<?xml version="1.0" encoding="utf-8"?>
<!-- Generator: Adobe Illustrator 26.0.3, SVG Export Plug-In . SVG Version: 6.00 Build 0)  -->
<svg version="1.1" id="Layer_1" xmlns="http://www.w3.org/2000/svg" xmlns:xlink="http://www.w3.org/1999/xlink" x="0px" y="0px"
	 viewBox="0 0 78 78" style="enable-background:new 0 0 78 78;" xml:space="preserve">
<style type="text/css">
	.st0{opacity:0.6;}
</style>
<g class="st0">
	<path d="M12.4,45.4v-0.3h5.8v0.2c0.2,2.2,2.3,3.8,5.4,3.8s5.1-1.7,5.1-4.1l0,0c0-2.8-2.1-4.3-5.5-4.3h-3.3v-4.3h3.2
		c3,0,5-1.6,5-3.9l0,0c0-2.4-1.6-3.9-4.5-3.9s-4.7,1.5-5,3.9v0.2h-5.6v-0.2c0.4-5.2,4.5-8.5,10.5-8.5s10.2,3.1,10.2,7.7l0,0
		c0,3.6-2.6,5.9-6,6.6v0.1c4.3,0.4,7.1,2.9,7.1,6.8l0,0c0,5.2-4.5,8.8-11.2,8.8C17.1,54,12.9,50.5,12.4,45.4z"/>
	<path d="M40.8,24.6h11.3c8.5,0,13.5,5.2,13.5,14.2l0,0c0,9.3-4.9,14.5-13.5,14.5H40.8V24.6z M51.1,48.4c5.3,0,8.3-3.3,8.3-9.5l0,0
		c0-5.9-3.1-9.3-8.3-9.3h-4.3v18.8H51.1z"/>
</g>
</svg>
