<?xml version="1.0" encoding="UTF-8"?><svg id="a" xmlns="http://www.w3.org/2000/svg" viewBox="0 0 427.32 56.2"><defs><style>.b{fill:#d0b669;}</style></defs><path class="b" d="M18.44,56.12c6.47,0,10.61-3.31,13.55-7.45v6.62h9.11V.35h-9.11V21.73c-2.86-3.76-7-7-13.55-7C8.96,14.73,0,22.18,0,35.35v.15c0,13.17,9.11,20.62,18.44,20.62m2.18-7.9c-6.17,0-11.44-5.04-11.44-12.72v-.15c0-7.9,5.19-12.72,11.44-12.72s11.51,5.04,11.51,12.72v.15c0,7.6-5.42,12.72-11.51,12.72m60.51,7.07h9.11v-15.13c0-10.54,5.57-15.73,13.55-15.73h.53V14.8c-7-.3-11.59,3.76-14.07,9.71V15.56h-9.11V55.29Zm76.54,.9c7.3,0,12.49-2.94,16.26-7.45l-5.34-4.74c-3.16,3.09-6.32,4.74-10.76,4.74-5.87,0-10.46-3.61-11.44-10.08h29.2c.07-.9,.15-1.73,.15-2.56,0-11.44-6.4-21.37-19.04-21.37-11.36,0-19.42,9.33-19.42,20.7v.15c0,12.27,8.88,20.62,20.4,20.62m-11.36-23.56c.83-6.17,4.74-10.46,10.31-10.46,6.02,0,9.48,4.59,10.08,10.46h-20.39Zm-2.56-22.95h25.59V3.06h-25.59v6.62Zm69.76,45.61h9.1v-22.43c0-6.1,3.46-9.86,8.51-9.86s8.05,3.46,8.05,9.63v22.65h9.11v-22.43c0-6.4,3.54-9.86,8.5-9.86s8.05,3.39,8.05,9.71v22.58h9.11V29.93c0-9.71-5.27-15.2-13.92-15.2-6.02,0-10.24,2.78-13.4,7-2.11-4.21-6.17-7-11.89-7-6.1,0-9.56,3.31-12.12,6.85v-6.02h-9.1V55.29ZM329.41,14.65c-7.3,0-12.49,2.93-16.26,7.45l5.34,4.74c3.16-3.09,6.32-4.74,10.76-4.74,5.87,0,10.46,3.61,11.44,10.08h-29.2c-.07,.9-.15,1.73-.15,2.56,0,11.44,6.4,21.37,19.04,21.37,11.36,0,19.42-9.33,19.42-20.7v-.15c0-12.27-8.88-20.62-20.39-20.62m11.36,23.56c-.83,6.17-4.74,10.46-10.31,10.46-6.02,0-9.48-4.59-10.08-10.46h20.39Zm46.89,17.08h9.11v-15.13c0-10.54,5.57-15.73,13.55-15.73h.53V14.8c-7-.3-11.59,3.76-14.07,9.71V15.56h-9.11V55.29Z"/><path class="b" d="M420.68,5.41v-1.98h1.48c.76,0,1.23,.32,1.23,.97,0,.6-.44,1.01-1.23,1.01h-1.48Zm-.88,2.74h.88v-2.01h1.32l1.38,2.01h1.1l-1.54-2.14c.76-.22,1.35-.76,1.35-1.67,0-1.1-.91-1.7-2.05-1.7h-2.45v5.5Zm2.04,2.26c-2.77,0-4.84-2.2-4.84-4.87v-.03c0-2.67,2.11-4.91,4.84-4.91s4.84,2.2,4.84,4.87v.03c0,2.67-2.11,4.91-4.84,4.91m0,.6c3.05,0,5.47-2.52,5.47-5.5v-.03c0-2.99-2.39-5.47-5.47-5.47s-5.47,2.52-5.47,5.5v.03c0,2.99,2.39,5.47,5.47,5.47"/></svg>
