<?xml version="1.0" encoding="utf-8"?>
<!-- Generator: Adobe Illustrator 26.1.0, SVG Export Plug-In . SVG Version: 6.00 Build 0)  -->
<svg version="1.1" id="Layer_1" xmlns="http://www.w3.org/2000/svg" xmlns:xlink="http://www.w3.org/1999/xlink" x="0px" y="0px"
	 viewBox="0 0 232.7 51.1" style="enable-background:new 0 0 232.7 51.1;" xml:space="preserve">
<style type="text/css">
	.st0{fill:#D0B669;}
</style>
<g>
	<path class="st0" d="M7.1,40.2c-1.5,0-1.6,0.1-1.6,1v4.5c0,3.4,0.2,3.8,2,4l0.9,0.1c0.2,0.1,0.1,0.7-0.1,0.8
		c-1.7-0.1-2.8-0.1-4.1-0.1c-1.4,0-2.5,0.1-3.7,0.1c-0.2-0.1-0.3-0.6-0.1-0.8l0.5-0.1c1.8-0.3,1.9-0.6,1.9-4V34.2
		c0-3.4-0.2-3.9-1.9-4l-0.8-0.1C-0.1,30,0,29.4,0.2,29.3c1.6,0,2.7,0.1,4,0.1c1.2,0,2.3,0,3.7-0.1C8.1,29.4,8.2,30,8,30.1l-0.6,0.1
		c-1.9,0.2-1.9,0.7-1.9,4v3.7c0,1,0.1,1,1.6,1h9.2c1.5,0,1.6,0,1.6-1v-3.7c0-3.4-0.1-3.8-2-4l-0.6-0.1c-0.2-0.1-0.1-0.7,0.1-0.8
		c1.5,0.1,2.6,0.1,3.9,0.1c1.2,0,2.3,0,3.8-0.1c0.2,0.1,0.3,0.7,0.1,0.8l-0.7,0.1c-1.9,0.2-1.9,0.7-1.9,4v11.5c0,3.4,0.1,3.8,1.9,4
		l0.8,0.1c0.2,0.1,0.1,0.7-0.1,0.8c-1.5-0.1-2.6-0.1-3.9-0.1c-1.3,0-2.5,0-3.9,0.1c-0.2-0.1-0.3-0.6-0.1-0.8l0.6-0.1
		c2-0.3,2-0.6,2-4v-4.5c0-1-0.1-1-1.6-1H7.1z"/>
	<path class="st0" d="M33.1,34.2c0-3.3-0.1-3.8-2-4l-0.5-0.1c-0.2-0.1-0.1-0.7,0.1-0.8c1.4,0.1,2.5,0.1,3.8,0.1h6c2,0,3.9,0,4.3-0.1
		c0.2,0.5,0.4,2.8,0.5,4.3c-0.1,0.2-0.6,0.3-0.8,0.1c-0.5-1.5-0.8-2.6-2.4-3c-0.7-0.2-1.7-0.2-3.1-0.2h-2.3c-1,0-1,0.1-1,1.3v6.4
		c0,0.9,0.1,0.9,1.1,0.9h1.9c1.3,0,2.3-0.1,2.7-0.2c0.4-0.1,0.6-0.3,0.8-1.1l0.3-1.3c0.2-0.2,0.7-0.2,0.8,0c0,0.8-0.1,2-0.1,3.2
		s0.1,2.4,0.1,3.1c-0.1,0.2-0.7,0.2-0.8,0l-0.4-1.3c-0.1-0.6-0.4-1.1-1-1.2c-0.4-0.1-1.2-0.2-2.5-0.2h-1.9c-1,0-1.1,0-1.1,0.9v4.5
		c0,1.7,0.1,2.8,0.6,3.3c0.4,0.4,1.1,0.7,3.9,0.7c2.5,0,3.4-0.1,4.1-0.5c0.6-0.3,1.4-1.4,2.3-3.1c0.2-0.2,0.7-0.1,0.8,0.2
		c-0.2,1.1-1,3.6-1.4,4.4c-2.9-0.1-5.7-0.1-8.6-0.1h-2.9c-1.4,0-2.5,0-4.4,0.1c-0.2-0.1-0.3-0.6-0.1-0.8l1.1-0.1c1.8-0.2,2-0.6,2-4
		L33.1,34.2L33.1,34.2z"/>
	<path class="st0" d="M66,43.1c-0.2-0.7-0.4-0.8-1.3-0.8h-4.8c-0.8,0-1,0.1-1.2,0.8l-1.1,3.4c-0.5,1.4-0.7,2.3-0.7,2.7
		c0,0.4,0.2,0.6,0.9,0.6l1.1,0.1c0.2,0.2,0.2,0.7-0.1,0.8c-0.8-0.1-1.8-0.1-3.3-0.1c-1.1,0-2.2,0.1-3.1,0.1
		c-0.2-0.1-0.3-0.6-0.1-0.8l1.1-0.1c0.8-0.1,1.5-0.4,1.9-1.6c0.6-1.5,1.5-3.6,2.8-7.1l3.3-8.6c0.4-1.2,0.6-1.8,0.5-2.3
		c0.8-0.2,1.3-0.8,1.7-1.2c0.2,0,0.4,0.1,0.5,0.3c0.4,1.4,0.9,2.9,1.4,4.3l4.4,12.9c0.9,2.8,1.3,3.2,2.7,3.4l0.9,0.1
		c0.2,0.2,0.2,0.7,0,0.8c-1.3-0.1-2.4-0.1-3.9-0.1s-2.8,0.1-3.7,0.1c-0.3-0.1-0.3-0.6-0.1-0.8l0.9-0.1c0.7-0.1,1.1-0.3,1.1-0.6
		c0-0.4-0.2-0.9-0.4-1.7L66,43.1z M59.7,40.3c-0.3,0.7-0.2,0.8,0.7,0.8h3.9c0.9,0,1-0.1,0.7-1l-1.7-5.2c-0.3-0.8-0.5-1.6-0.7-2h-0.1
		c-0.1,0.2-0.4,0.9-0.8,1.9L59.7,40.3z"/>
	<path class="st0" d="M82.3,33.6c0-2.2-0.2-2.9-1.5-3.1l-0.7-0.1c-0.3-0.2-0.3-0.7,0-0.8c2.7-0.2,5.3-0.3,8-0.3s5,0.2,7,1
		c4.3,1.6,6.5,5.2,6.5,9.4c0,4.1-2,7.6-5.6,9.5c-2.1,1.1-4.7,1.5-7.2,1.5c-2,0-4.1-0.3-5.2-0.3c-1.3,0-2.5,0-4,0.1
		c-0.2-0.1-0.3-0.6-0.1-0.8l0.7-0.1c1.9-0.3,1.9-0.6,1.9-4v-12H82.3z M84.9,45c0,1.7,0.1,2.7,0.6,3.5c0.7,1,1.9,1.3,3.9,1.3
		c6.2,0,9-4.1,9-10c0-3.5-1.7-9.5-10.1-9.5c-1.9,0-2.9,0.3-3.2,0.4c-0.3,0.2-0.3,1-0.3,2.4V45H84.9z"/>
	<path class="st0" d="M110.6,33.6c0-2.4-0.1-3-1.6-3.1l-1-0.1c-0.3-0.2-0.2-0.7,0-0.8c1.7-0.2,3.9-0.3,6.9-0.3c2,0,3.9,0.2,5.4,0.9
		c1.4,0.7,2.4,2,2.4,4c0,2.3-1.3,3.5-3.3,4.4c0,0.3,0.3,0.4,0.6,0.5c1.7,0.3,4.3,1.9,4.3,5.3c0,3.7-2.8,6.2-8.5,6.2
		c-0.9,0-2.5-0.1-3.8-0.1c-1.4,0-2.5,0.1-3.7,0.1c-0.2-0.1-0.3-0.6-0.1-0.8l0.6-0.1c1.7-0.3,1.8-0.6,1.8-4L110.6,33.6L110.6,33.6z
		 M113.2,37.8c0,0.9,0,1,1.7,0.9c3.3-0.1,5-1.1,5-4.1c0-3.1-2.3-4.3-4.8-4.3c-0.7,0-1.2,0.1-1.5,0.2c-0.3,0.1-0.4,0.3-0.4,0.8V37.8z
		 M113.2,45.3c0,1.2,0.1,2.8,0.7,3.5c0.6,0.7,1.6,0.9,2.5,0.9c2.8,0,5-1.3,5-4.5c0-2.5-1.3-5.5-6.4-5.5c-1.7,0-1.9,0.2-1.9,0.8
		L113.2,45.3L113.2,45.3z"/>
	<path class="st0" d="M131.1,40.2c0-6.4,4.8-11.3,11.4-11.3c7.4,0,11.1,5.3,11.1,11c0,6.5-4.9,11.2-11.1,11.2
		C135.4,51.1,131.1,46,131.1,40.2z M150.4,40.9c0-5.3-2.3-11-8.4-11c-3.3,0-7.6,2.3-7.6,9.3c0,4.7,2.3,10.9,8.6,10.9
		C146.7,50.1,150.4,47.2,150.4,40.9z"/>
	<path class="st0" d="M171,43.1c-0.2-0.7-0.4-0.8-1.3-0.8h-4.8c-0.8,0-1,0.1-1.2,0.8l-1.1,3.4c-0.5,1.4-0.7,2.3-0.7,2.7
		c0,0.4,0.2,0.6,0.9,0.6l1.1,0.1c0.2,0.2,0.2,0.7-0.1,0.8c-0.8-0.1-1.8-0.1-3.3-0.1c-1.1,0-2.2,0.1-3.1,0.1
		c-0.2-0.1-0.3-0.6-0.1-0.8l1.1-0.1c0.8-0.1,1.5-0.4,1.9-1.6c0.6-1.5,1.5-3.6,2.8-7.1l3.3-8.6c0.4-1.2,0.6-1.8,0.5-2.3
		c0.8-0.2,1.3-0.8,1.7-1.2c0.2,0,0.4,0.1,0.5,0.3c0.4,1.4,0.9,2.9,1.4,4.3l4.4,12.9c0.9,2.8,1.3,3.2,2.7,3.4l0.9,0.1
		c0.2,0.2,0.2,0.7,0,0.8c-1.3-0.1-2.4-0.1-3.9-0.1s-2.8,0.1-3.7,0.1c-0.3-0.1-0.3-0.6-0.1-0.8l0.9-0.1c0.7-0.1,1.1-0.3,1.1-0.6
		c0-0.4-0.2-0.9-0.4-1.7L171,43.1z M164.7,40.3c-0.3,0.7-0.2,0.8,0.7,0.8h3.9c0.9,0,1-0.1,0.7-1l-1.7-5.2c-0.3-0.8-0.5-1.6-0.7-2
		h-0.1c-0.1,0.2-0.4,0.9-0.8,1.9L164.7,40.3z"/>
	<path class="st0" d="M187.3,34.3c0-3-0.1-3.6-1.4-3.7l-1-0.1c-0.2-0.2-0.2-0.7,0-0.8c1.8-0.2,4-0.3,7.1-0.3c2,0,3.9,0.2,5.3,1
		c1.5,0.8,2.7,2.2,2.7,4.5c0,3-2.4,4.7-4,5.3c-0.2,0.2,0,0.5,0.2,0.8c2.6,4.1,4.3,6.7,6.4,8.5c0.5,0.5,1.3,0.8,2.2,0.9
		c0.2,0.1,0.2,0.3,0,0.4c-0.3,0.1-0.8,0.2-1.4,0.2c-2.7,0-4.4-0.8-6.6-4c-0.8-1.2-2.1-3.4-3.1-4.8c-0.5-0.7-1-1-2.3-1
		c-1.4,0-1.5,0-1.5,0.7v4c0,3.4,0.1,3.7,1.9,4l0.7,0.1c0.2,0.2,0.1,0.7-0.1,0.8c-1.4-0.1-2.5-0.1-3.8-0.1s-2.5,0-4,0.1
		c-0.2-0.1-0.3-0.6-0.1-0.8l0.8-0.1c1.9-0.2,1.9-0.6,1.9-4V34.3H187.3z M189.9,38.8c0,0.6,0,0.9,0.1,1.1c0.1,0.1,0.6,0.2,2.2,0.2
		c1.2,0,2.4-0.1,3.3-0.8c0.9-0.7,1.6-1.8,1.6-4c0-2.5-1.6-4.9-5.1-4.9c-2,0-2.1,0.1-2.1,1V38.8z"/>
	<path class="st0" d="M213.4,33.6c0-2.2-0.2-2.9-1.5-3.1l-0.7-0.1c-0.3-0.2-0.3-0.7,0-0.8c2.7-0.2,5.3-0.3,8-0.3s5,0.2,7,1
		c4.3,1.6,6.5,5.2,6.5,9.4c0,4.1-2,7.6-5.6,9.5c-2.1,1.1-4.7,1.5-7.2,1.5c-2,0-4.1-0.3-5.2-0.3c-1.3,0-2.5,0-4,0.1
		c-0.2-0.1-0.3-0.6-0.1-0.8l0.7-0.1c1.9-0.3,1.9-0.6,1.9-4v-12H213.4z M216,45c0,1.7,0.1,2.7,0.6,3.5c0.7,1,1.9,1.3,3.9,1.3
		c6.2,0,9-4.1,9-10c0-3.5-1.7-9.5-10.1-9.5c-1.9,0-2.9,0.3-3.2,0.4c-0.3,0.2-0.3,1-0.3,2.4L216,45L216,45z"/>
	<g>
		<path class="st0" d="M7.4,22c2.6,0,4.2-1.3,5.3-2.9v2.6h3.6V0h-3.6v8.4c-1.1-1.5-2.8-2.8-5.3-2.8c-3.7,0-7.3,2.9-7.3,8.1v0.1
			C0.1,19.1,3.7,22,7.4,22 M8.3,18.9c-2.4,0-4.5-2-4.5-5v-0.1c0-3.1,2-5,4.5-5c2.4,0,4.5,2,4.5,5v0.1C12.8,16.9,10.7,18.9,8.3,18.9
			 M32.1,21.7h3.6v-6c0-4.2,2.2-6.2,5.3-6.2h0.3V5.7c-2.8-0.1-4.6,1.5-5.5,3.8V6h-3.6L32.1,21.7L32.1,21.7z M62.3,22
			c2.9,0,4.9-1.2,6.4-2.9l-2.1-1.9c-1.2,1.2-2.5,1.9-4.2,1.9c-2.3,0-4.1-1.4-4.5-4h11.5c0-0.4,0.1-0.7,0.1-1c0-4.5-2.5-8.4-7.5-8.4
			c-4.5,0-7.7,3.7-7.7,8.2V14C54.3,18.7,57.8,22,62.3,22 M57.8,12.7c0.3-2.4,1.9-4.1,4.1-4.1c2.4,0,3.7,1.8,4,4.1H57.8z M56.8,3.7
			h10.1V1.1H56.8V3.7z M84.3,21.7h3.6v-8.8c0-2.4,1.4-3.9,3.4-3.9s3.2,1.4,3.2,3.8v8.9h3.6v-8.8c0-2.5,1.4-3.9,3.4-3.9
			s3.2,1.3,3.2,3.8v8.9h3.6v-10c0-3.8-2.1-6-5.5-6c-2.4,0-4,1.1-5.3,2.8c-0.8-1.7-2.4-2.8-4.7-2.8C90.4,5.7,89,7,88,8.4V6h-3.7V21.7
			z M130,5.7c-2.9,0-4.9,1.2-6.4,2.9l2.1,1.9c1.2-1.2,2.5-1.9,4.2-1.9c2.3,0,4.1,1.4,4.5,4h-11.5c0,0.4-0.1,0.7-0.1,1
			c0,4.5,2.5,8.4,7.5,8.4c4.5,0,7.7-3.7,7.7-8.2v-0.1C138.1,8.9,134.6,5.7,130,5.7 M134.5,14.9c-0.3,2.4-1.9,4.1-4.1,4.1
			c-2.4,0-3.7-1.8-4-4.1H134.5z M153,21.7h3.6v-6c0-4.2,2.2-6.2,5.3-6.2h0.2V5.7c-2.8-0.1-4.6,1.5-5.5,3.8V6H153V21.7z"/>
	</g>
	<path class="st0" d="M169.2,2.8L169.2,2.8c0-1.2,0.9-2.1,2.1-2.1c1.2,0,2.1,0.9,2.1,2.1l0,0c0,1.1-0.9,2.1-2.1,2.1
		C170.1,4.8,169.2,3.9,169.2,2.8z M173.2,2.7L173.2,2.7c0-1-0.8-1.9-1.8-1.9s-1.8,0.9-1.8,1.9l0,0c0,1,0.8,1.9,1.8,1.9
		C172.3,4.6,173.2,3.8,173.2,2.7z M170.5,1.7h0.9c0.4,0,0.8,0.2,0.8,0.6c0,0.3-0.2,0.6-0.5,0.6l0.6,0.8h-0.4l-0.5-0.8h-0.5v0.8h-0.3
		v-2H170.5z M171.4,2.7c0.3,0,0.5-0.2,0.5-0.4c0-0.3-0.2-0.4-0.5-0.4h-0.6v0.8C170.8,2.7,171.4,2.7,171.4,2.7z"/>
</g>
</svg>
