<svg id="Layer_1" data-name="Layer 1" xmlns="http://www.w3.org/2000/svg" width="62.45mm" height="8.35mm" viewBox="0 0 177.02 23.68"><defs><style>.cls-1{fill:#fff;}</style></defs><path class="cls-1" d="M88.32,11.31a.48.48,0,0,0-.31.46.54.54,0,0,0,.14.36.71.71,0,0,0,.17.11.58.58,0,0,0,.19,0,.5.5,0,0,0,.35-.14.55.55,0,0,0,.15-.36.5.5,0,0,0-.69-.46Z"/><path class="cls-1" d="M173.55,11.26H102.68a.5.5,0,0,0-.5.5.51.51,0,0,0,.5.5h70.87a.5.5,0,0,0,.5-.5A.5.5,0,0,0,173.55,11.26Z"/><path class="cls-1" d="M74.34,11.26H3.47a.5.5,0,0,0-.5.5.51.51,0,0,0,.5.5H74.34a.51.51,0,0,0,.5-.5A.5.5,0,0,0,74.34,11.26Z"/><path class="cls-1" d="M88.51,5.21a.5.5,0,0,0,.5-.5V.5a.5.5,0,0,0-1,0V4.71A.5.5,0,0,0,88.51,5.21Z"/><path class="cls-1" d="M88,7.19v3a.5.5,0,0,0,1,0v-3l3.09-3.1a.49.49,0,0,0-.7-.7L88.51,6.27,85.62,3.39a.49.49,0,0,0-.7.7Z"/><path class="cls-1" d="M86.54,2.47a.49.49,0,0,0,.35.15.47.47,0,0,0,.35-.15.48.48,0,0,0,0-.7L85.62.15a.48.48,0,0,0-.7,0,.48.48,0,0,0,0,.7Z"/><path class="cls-1" d="M90.13,2.62a.47.47,0,0,0,.35-.15L92.1.85a.48.48,0,0,0,0-.7.48.48,0,0,0-.7,0L89.78,1.77a.5.5,0,0,0,.35.85Z"/><path class="cls-1" d="M88.51,18.47a.5.5,0,0,0-.5.5v4.21a.5.5,0,0,0,1,0V19A.5.5,0,0,0,88.51,18.47Z"/><path class="cls-1" d="M89,16.49v-3a.5.5,0,1,0-1,0v3l-3.09,3.09a.5.5,0,0,0,0,.71.49.49,0,0,0,.35.15.47.47,0,0,0,.35-.15l2.89-2.89,2.89,2.89a.48.48,0,0,0,.7,0,.5.5,0,0,0,0-.71Z"/><path class="cls-1" d="M90.48,21.2a.5.5,0,0,0-.7,0,.5.5,0,0,0,0,.71l1.62,1.62a.48.48,0,0,0,.7,0,.5.5,0,0,0,0-.71Z"/><path class="cls-1" d="M86.54,21.2l-1.62,1.62a.5.5,0,0,0,0,.71.49.49,0,0,0,.35.15.47.47,0,0,0,.35-.15l1.62-1.62a.5.5,0,0,0,0-.71A.5.5,0,0,0,86.54,21.2Z"/><path class="cls-1" d="M87.36,13.08a.5.5,0,0,0-.5-.86l-2.63,1.51L80,12.6a.5.5,0,1,0-.26,1l3.94,1-1.06,3.94a.51.51,0,0,0,.36.62h.13a.49.49,0,0,0,.48-.37l1.13-4.22Z"/><path class="cls-1" d="M82.77,15.15a.49.49,0,0,0-.68-.18l-3.65,2.1a.51.51,0,0,0-.18.69.5.5,0,0,0,.43.25.45.45,0,0,0,.25-.07l3.65-2.1A.51.51,0,0,0,82.77,15.15Z"/><path class="cls-1" d="M81,17.62a.5.5,0,0,0-.61.35l-.59,2.21a.51.51,0,0,0,.35.62h.13a.49.49,0,0,0,.48-.37l.6-2.21A.5.5,0,0,0,81,17.62Z"/><path class="cls-1" d="M79.29,15.8a.5.5,0,0,0,.12-1l-2.21-.59a.5.5,0,0,0-.61.35.52.52,0,0,0,.35.62l2.22.59Z"/><path class="cls-1" d="M89.66,10.6a.5.5,0,0,0,.25.93.45.45,0,0,0,.25-.07L92.79,10,97,11.08h.12a.49.49,0,0,0,.49-.37.5.5,0,0,0-.36-.61l-3.94-1,1.06-3.95a.5.5,0,0,0-1-.26L92.29,9.08Z"/><path class="cls-1" d="M94.25,8.52a.48.48,0,0,0,.43.25.54.54,0,0,0,.25-.06L98.58,6.6a.5.5,0,0,0-.5-.86l-3.65,2.1A.5.5,0,0,0,94.25,8.52Z"/><path class="cls-1" d="M96,6.06l.13,0a.5.5,0,0,0,.48-.37l.59-2.22a.49.49,0,0,0-.35-.61.5.5,0,0,0-.61.35l-.6,2.22A.5.5,0,0,0,96,6.06Z"/><path class="cls-1" d="M100.08,8.49,97.87,7.9a.52.52,0,0,0-.62.35.5.5,0,0,0,.36.61l2.21.6H100a.5.5,0,0,0,.13-1Z"/><path class="cls-1" d="M98.58,17.07,94.93,15a.49.49,0,0,0-.68.18.51.51,0,0,0,.18.69l3.65,2.1a.47.47,0,0,0,.25.07.5.5,0,0,0,.43-.25A.51.51,0,0,0,98.58,17.07Z"/><path class="cls-1" d="M93.33,14.62l3.94-1a.51.51,0,0,0,.36-.62A.5.5,0,0,0,97,12.6l-4.23,1.13-2.63-1.51a.5.5,0,0,0-.5.86l2.63,1.52,1.13,4.22a.49.49,0,0,0,.48.37H94a.51.51,0,0,0,.36-.62Z"/><path class="cls-1" d="M99.82,14.22l-2.21.59a.5.5,0,0,0-.36.61.51.51,0,0,0,.49.38l.13,0,2.21-.59a.5.5,0,0,0-.26-1Z"/><path class="cls-1" d="M96.6,18a.5.5,0,0,0-1,.26l.6,2.21a.49.49,0,0,0,.48.37h.13a.49.49,0,0,0,.35-.62Z"/><path class="cls-1" d="M78.44,6.6l3.65,2.11a.54.54,0,0,0,.25.06.48.48,0,0,0,.43-.25.5.5,0,0,0-.18-.68l-3.65-2.1a.5.5,0,0,0-.5.86Z"/><path class="cls-1" d="M83.69,9.06l-3.94,1a.5.5,0,0,0,.13,1H80L84.23,10l2.63,1.51a.45.45,0,0,0,.25.07.5.5,0,0,0,.25-.93L84.73,9.08,83.6,4.85a.5.5,0,0,0-1,.26Z"/><path class="cls-1" d="M77.07,9.47h.13l2.21-.6a.5.5,0,0,0,.36-.61.5.5,0,0,0-.61-.35l-2.22.59a.5.5,0,0,0-.35.61A.49.49,0,0,0,77.07,9.47Z"/><path class="cls-1" d="M80.42,5.71a.5.5,0,0,0,.48.37l.13,0a.5.5,0,0,0,.36-.61l-.6-2.22a.5.5,0,0,0-1,.26Z"/></svg>