<svg id="Layer_1" data-name="Layer 1" xmlns="http://www.w3.org/2000/svg" viewBox="0 0 422.32 140.64"><defs><style>.cls-1{fill:#f2f2f2;}</style></defs><path class="cls-1" d="M21.82,19.25a.48.48,0,0,0-.31.46.54.54,0,0,0,.14.36.71.71,0,0,0,.17.11.58.58,0,0,0,.19,0,.5.5,0,0,0,.35-.14.55.55,0,0,0,.15-.36.5.5,0,0,0-.69-.46Z"/><path class="cls-1" d="M22,13.16a.51.51,0,0,0,.5-.5V8.44a.51.51,0,0,0-.5-.5.5.5,0,0,0-.5.5v4.22A.5.5,0,0,0,22,13.16Z"/><path class="cls-1" d="M21.51,15.13v3a.5.5,0,0,0,.5.5.5.5,0,0,0,.5-.5v-3L25.6,12a.5.5,0,0,0,0-.71.51.51,0,0,0-.71,0L22,14.22l-2.89-2.89a.5.5,0,1,0-.71.71Z"/><path class="cls-1" d="M20,10.42a.5.5,0,0,0,.36.14.47.47,0,0,0,.35-.14.5.5,0,0,0,0-.71L19.12,8.09a.5.5,0,0,0-.71.71Z"/><path class="cls-1" d="M23.63,10.56a.47.47,0,0,0,.35-.14L25.6,8.8a.5.5,0,0,0,0-.71.51.51,0,0,0-.71,0L23.27,9.71a.51.51,0,0,0,0,.71A.5.5,0,0,0,23.63,10.56Z"/><path class="cls-1" d="M22,26.41a.5.5,0,0,0-.5.5v4.21a.5.5,0,0,0,.5.5.5.5,0,0,0,.5-.5V26.91A.5.5,0,0,0,22,26.41Z"/><path class="cls-1" d="M22.51,24.44v-3a.51.51,0,0,0-.5-.5.5.5,0,0,0-.5.5v3l-3.1,3.09a.51.51,0,0,0,0,.71.54.54,0,0,0,.36.14.52.52,0,0,0,.35-.14L22,25.35l2.88,2.89a.54.54,0,0,0,.36.14.52.52,0,0,0,.35-.14.5.5,0,0,0,0-.71Z"/><path class="cls-1" d="M24,29.15a.5.5,0,0,0-.71,0,.5.5,0,0,0,0,.7l1.62,1.63a.54.54,0,0,0,.36.14.52.52,0,0,0,.35-.14.5.5,0,0,0,0-.71Z"/><path class="cls-1" d="M20,29.15l-1.62,1.62a.51.51,0,0,0,0,.71.54.54,0,0,0,.36.14.52.52,0,0,0,.35-.14l1.62-1.63a.48.48,0,0,0,0-.7A.5.5,0,0,0,20,29.15Z"/><path class="cls-1" d="M20.86,21a.51.51,0,0,0,.18-.69.5.5,0,0,0-.68-.18l-2.63,1.52L13.5,20.54a.5.5,0,0,0-.26,1l4,1.06-1.06,3.94a.5.5,0,0,0,.35.61l.13,0a.5.5,0,0,0,.49-.37l1.13-4.23Z"/><path class="cls-1" d="M16.27,23.1a.5.5,0,0,0-.68-.19L11.94,25a.5.5,0,0,0,.25.93.57.57,0,0,0,.25-.06l3.65-2.11A.5.5,0,0,0,16.27,23.1Z"/><path class="cls-1" d="M14.53,25.56a.5.5,0,0,0-.61.36l-.59,2.21a.49.49,0,0,0,.35.61l.13,0a.5.5,0,0,0,.48-.37l.59-2.22A.49.49,0,0,0,14.53,25.56Z"/><path class="cls-1" d="M12.78,23.74a.5.5,0,0,0,.48-.37.48.48,0,0,0-.35-.61l-2.21-.6a.5.5,0,0,0-.61.36.49.49,0,0,0,.35.61l2.21.59Z"/><path class="cls-1" d="M23.16,18.54a.5.5,0,0,0,.25.93.54.54,0,0,0,.25-.06l2.63-1.52L30.51,19l.13,0a.52.52,0,0,0,.49-.37.5.5,0,0,0-.36-.61L26.83,17l1.05-3.94a.5.5,0,1,0-1-.26L25.79,17Z"/><path class="cls-1" d="M27.75,16.47a.5.5,0,0,0,.43.25.47.47,0,0,0,.25-.07l3.65-2.1a.51.51,0,0,0,.18-.69.49.49,0,0,0-.68-.18l-3.65,2.11A.49.49,0,0,0,27.75,16.47Z"/><path class="cls-1" d="M29.48,14a.32.32,0,0,0,.13,0,.5.5,0,0,0,.49-.37l.59-2.21a.5.5,0,0,0-.35-.61.51.51,0,0,0-.62.35l-.59,2.21A.5.5,0,0,0,29.48,14Z"/><path class="cls-1" d="M33.58,16.44l-2.22-.6a.5.5,0,0,0-.25,1l2.21.59.13,0a.5.5,0,0,0,.13-1Z"/><path class="cls-1" d="M32.08,25l-3.65-2.11a.5.5,0,0,0-.68.19.49.49,0,0,0,.18.68l3.65,2.11a.54.54,0,0,0,.25.06.5.5,0,0,0,.25-.93Z"/><path class="cls-1" d="M26.83,22.57l3.94-1.06a.5.5,0,0,0,.36-.61.51.51,0,0,0-.62-.36l-4.22,1.14-2.63-1.52a.49.49,0,0,0-.68.18.51.51,0,0,0,.18.69l2.63,1.51,1.13,4.23a.5.5,0,0,0,.48.37l.13,0a.49.49,0,0,0,.35-.61Z"/><path class="cls-1" d="M33.32,22.16l-2.21.6a.5.5,0,0,0,.12,1l.13,0,2.22-.59a.5.5,0,0,0-.26-1Z"/><path class="cls-1" d="M30.1,25.92a.5.5,0,1,0-1,.25l.59,2.22a.51.51,0,0,0,.49.37l.13,0a.5.5,0,0,0,.35-.61Z"/><path class="cls-1" d="M11.94,14.55l3.65,2.1a.43.43,0,0,0,.25.07.5.5,0,0,0,.25-.93l-3.65-2.11a.49.49,0,0,0-.68.18A.51.51,0,0,0,11.94,14.55Z"/><path class="cls-1" d="M17.19,17l-4,1.06a.5.5,0,0,0,.13,1l.13,0,4.23-1.13,2.63,1.52a.5.5,0,0,0,.5-.87L18.23,17,17.1,12.8a.51.51,0,0,0-.62-.36.52.52,0,0,0-.35.62Z"/><path class="cls-1" d="M10.57,17.42l.13,0,2.21-.59a.49.49,0,0,0,.35-.61.5.5,0,0,0-.61-.36l-2.21.6a.48.48,0,0,0-.35.61A.5.5,0,0,0,10.57,17.42Z"/><path class="cls-1" d="M13.92,13.65a.5.5,0,0,0,.48.37.3.3,0,0,0,.13,0,.48.48,0,0,0,.35-.61l-.59-2.21a.5.5,0,0,0-1,.26Z"/><path class="cls-1" d="M201,81.25a.48.48,0,0,0-.31.46.54.54,0,0,0,.14.36.71.71,0,0,0,.17.11.58.58,0,0,0,.19,0,.5.5,0,0,0,.35-.14.55.55,0,0,0,.15-.36.5.5,0,0,0-.69-.46Z"/><path class="cls-1" d="M201.2,75.16a.5.5,0,0,0,.5-.5V70.44a.5.5,0,0,0-1,0v4.22A.5.5,0,0,0,201.2,75.16Z"/><path class="cls-1" d="M200.7,77.13v3a.5.5,0,1,0,1,0v-3L204.79,74a.5.5,0,0,0,0-.71.5.5,0,0,0-.7,0l-2.89,2.89-2.89-2.89a.5.5,0,0,0-.7,0,.5.5,0,0,0,0,.71Z"/><path class="cls-1" d="M199.23,72.42a.47.47,0,0,0,.35.14.46.46,0,0,0,.35-.14.5.5,0,0,0,0-.71l-1.62-1.62a.5.5,0,0,0-.7,0,.5.5,0,0,0,0,.71Z"/><path class="cls-1" d="M202.82,72.56a.46.46,0,0,0,.35-.14l1.62-1.62a.5.5,0,0,0,0-.71.5.5,0,0,0-.7,0l-1.62,1.62a.5.5,0,0,0,0,.71A.47.47,0,0,0,202.82,72.56Z"/><path class="cls-1" d="M201.2,88.41a.5.5,0,0,0-.5.5v4.21a.5.5,0,0,0,1,0V88.91A.5.5,0,0,0,201.2,88.41Z"/><path class="cls-1" d="M201.7,86.44v-3a.5.5,0,0,0-1,0v3l-3.09,3.09a.5.5,0,0,0,0,.71.52.52,0,0,0,.35.14.5.5,0,0,0,.35-.14l2.89-2.89,2.89,2.89a.5.5,0,0,0,.7-.71Z"/><path class="cls-1" d="M203.17,91.15a.48.48,0,0,0-.7,0,.5.5,0,0,0,0,.71l1.62,1.62a.5.5,0,0,0,.7-.71Z"/><path class="cls-1" d="M199.23,91.15l-1.62,1.62a.5.5,0,0,0,0,.71.52.52,0,0,0,.35.14.5.5,0,0,0,.35-.14l1.62-1.62a.5.5,0,0,0,0-.71A.48.48,0,0,0,199.23,91.15Z"/><path class="cls-1" d="M200.05,83a.51.51,0,0,0,.18-.69.49.49,0,0,0-.68-.18l-2.63,1.52-4.22-1.14a.51.51,0,0,0-.62.36.5.5,0,0,0,.36.61l3.94,1.06-1.06,3.94a.5.5,0,0,0,.36.61l.13,0a.5.5,0,0,0,.48-.37l1.13-4.23Z"/><path class="cls-1" d="M195.46,85.1a.51.51,0,0,0-.68-.19L191.13,87a.5.5,0,0,0,.25.93.54.54,0,0,0,.25-.06l3.65-2.11A.49.49,0,0,0,195.46,85.1Z"/><path class="cls-1" d="M193.72,87.56a.5.5,0,0,0-.61.36l-.59,2.21a.5.5,0,0,0,.35.61l.13,0a.5.5,0,0,0,.48-.37l.6-2.22A.5.5,0,0,0,193.72,87.56Z"/><path class="cls-1" d="M192,85.74a.5.5,0,0,0,.49-.37.5.5,0,0,0-.36-.61l-2.21-.6a.5.5,0,0,0-.26,1l2.22.59Z"/><path class="cls-1" d="M202.35,80.54a.5.5,0,0,0,.25.93.54.54,0,0,0,.25-.06l2.63-1.52L209.7,81l.13,0a.5.5,0,0,0,.49-.37.5.5,0,0,0-.36-.61L206,79l1.06-3.94a.5.5,0,0,0-.36-.61.49.49,0,0,0-.61.35L205,79Z"/><path class="cls-1" d="M206.94,78.47a.5.5,0,0,0,.43.25.45.45,0,0,0,.25-.07l3.65-2.1a.51.51,0,0,0,.18-.69.49.49,0,0,0-.68-.18l-3.65,2.11A.49.49,0,0,0,206.94,78.47Z"/><path class="cls-1" d="M208.68,76a.27.27,0,0,0,.13,0,.5.5,0,0,0,.48-.37l.59-2.21a.5.5,0,0,0-1-.26l-.6,2.21A.5.5,0,0,0,208.68,76Z"/><path class="cls-1" d="M212.77,78.44l-2.21-.6a.51.51,0,0,0-.62.36.5.5,0,0,0,.36.61l2.21.59.13,0a.5.5,0,0,0,.48-.37A.48.48,0,0,0,212.77,78.44Z"/><path class="cls-1" d="M211.27,87l-3.65-2.11a.51.51,0,0,0-.68.19.49.49,0,0,0,.18.68l3.65,2.11A.57.57,0,0,0,211,88a.5.5,0,0,0,.25-.93Z"/><path class="cls-1" d="M206,84.57,210,83.51a.5.5,0,1,0-.25-1l-4.23,1.14-2.63-1.52a.5.5,0,0,0-.68.18.51.51,0,0,0,.18.69L205,84.54l1.13,4.23a.5.5,0,0,0,.48.37l.13,0a.5.5,0,0,0,.36-.61Z"/><path class="cls-1" d="M212.51,84.16l-2.21.6a.5.5,0,0,0-.36.61.51.51,0,0,0,.49.37l.13,0,2.21-.59a.49.49,0,0,0,.35-.61A.5.5,0,0,0,212.51,84.16Z"/><path class="cls-1" d="M209.29,87.92a.5.5,0,0,0-1,.25l.6,2.22a.5.5,0,0,0,.48.37l.13,0a.49.49,0,0,0,.35-.61Z"/><path class="cls-1" d="M191.13,76.55l3.65,2.1a.45.45,0,0,0,.25.07.5.5,0,0,0,.25-.93l-3.65-2.11a.49.49,0,0,0-.68.18A.51.51,0,0,0,191.13,76.55Z"/><path class="cls-1" d="M196.38,79l-3.94,1.06a.5.5,0,0,0-.36.61.51.51,0,0,0,.49.37l.13,0,4.22-1.13,2.63,1.52a.54.54,0,0,0,.25.06.5.5,0,0,0,.25-.93L197.42,79l-1.13-4.22a.48.48,0,0,0-.61-.35.5.5,0,0,0-.36.61Z"/><path class="cls-1" d="M189.76,79.42l.13,0,2.21-.59a.5.5,0,1,0-.25-1l-2.22.6a.5.5,0,0,0,.13,1Z"/><path class="cls-1" d="M193.11,75.65a.5.5,0,0,0,.48.37.27.27,0,0,0,.13,0,.5.5,0,0,0,.36-.61l-.6-2.21a.49.49,0,0,0-.61-.35.5.5,0,0,0-.35.61Z"/><path class="cls-1" d="M46.73,54.46l-.08,0a.24.24,0,0,0,0,.32l.08.06h.09a.2.2,0,0,0,.16-.07.23.23,0,0,0-.25-.37Z"/><path class="cls-1" d="M46.81,51.66a.23.23,0,0,0,.23-.23V49.49a.23.23,0,0,0-.23-.23.24.24,0,0,0-.23.23v1.94A.24.24,0,0,0,46.81,51.66Z"/><path class="cls-1" d="M46.58,52.56V54a.24.24,0,0,0,.23.23A.23.23,0,0,0,47,54v-1.4l1.42-1.42a.23.23,0,0,0-.32-.32l-1.33,1.32-1.32-1.32a.24.24,0,0,0-.33,0,.22.22,0,0,0,0,.32Z"/><path class="cls-1" d="M45.91,50.4a.23.23,0,0,0,.32-.33l-.74-.74a.24.24,0,0,0-.33,0,.22.22,0,0,0,0,.32Z"/><path class="cls-1" d="M47.56,50.47a.24.24,0,0,0,.16-.07l.74-.75a.23.23,0,0,0-.32-.32l-.74.74a.24.24,0,0,0,.16.4Z"/><path class="cls-1" d="M46.81,57.75a.23.23,0,0,0-.23.22v1.94a.23.23,0,0,0,.23.23.23.23,0,0,0,.23-.23V58A.22.22,0,0,0,46.81,57.75Z"/><path class="cls-1" d="M47,56.84v-1.4a.22.22,0,0,0-.23-.22.23.23,0,0,0-.23.22v1.4l-1.42,1.42a.22.22,0,0,0,0,.32.23.23,0,0,0,.17.07.23.23,0,0,0,.16-.07l1.32-1.32,1.33,1.32a.22.22,0,0,0,.32,0,.22.22,0,0,0,0-.32Z"/><path class="cls-1" d="M47.72,59a.22.22,0,0,0-.32,0,.24.24,0,0,0,0,.33l.74.74a.22.22,0,0,0,.32,0,.22.22,0,0,0,0-.32Z"/><path class="cls-1" d="M45.91,59l-.75.75a.22.22,0,0,0,0,.32.23.23,0,0,0,.17.07.23.23,0,0,0,.16-.07l.74-.74a.24.24,0,0,0,0-.33A.22.22,0,0,0,45.91,59Z"/><path class="cls-1" d="M46.28,55.27a.23.23,0,0,0,.09-.31.23.23,0,0,0-.31-.09l-1.21.7-1.94-.52a.23.23,0,0,0-.28.16.22.22,0,0,0,.16.28L44.6,56l-.49,1.81a.23.23,0,0,0,.17.28h.06a.23.23,0,0,0,.22-.17L45.08,56Z"/><path class="cls-1" d="M44.18,56.22a.24.24,0,0,0-.32-.08l-1.67,1a.23.23,0,0,0-.09.31.24.24,0,0,0,.2.11.27.27,0,0,0,.12,0l1.67-1A.24.24,0,0,0,44.18,56.22Z"/><path class="cls-1" d="M43.38,57.36a.22.22,0,0,0-.28.16l-.27,1a.23.23,0,0,0,.16.29h.06a.22.22,0,0,0,.22-.17l.27-1A.23.23,0,0,0,43.38,57.36Z"/><path class="cls-1" d="M42.58,56.52a.23.23,0,0,0,.22-.17.23.23,0,0,0-.16-.28l-1-.28a.23.23,0,0,0-.28.17.22.22,0,0,0,.16.28l1,.27Z"/><path class="cls-1" d="M47.34,54.13a.23.23,0,0,0-.08.31.22.22,0,0,0,.2.12.2.2,0,0,0,.11,0l1.21-.7,1.94.52h.06a.23.23,0,0,0,.22-.17.22.22,0,0,0-.16-.28L49,53.42l.48-1.81a.22.22,0,0,0-.16-.28.23.23,0,0,0-.28.16l-.52,1.94Z"/><path class="cls-1" d="M49.45,53.18a.23.23,0,0,0,.2.11.2.2,0,0,0,.11,0l1.68-1a.23.23,0,0,0,.08-.32.22.22,0,0,0-.31-.08l-1.68,1A.24.24,0,0,0,49.45,53.18Z"/><path class="cls-1" d="M50.25,52.05h.06a.22.22,0,0,0,.22-.17l.27-1a.22.22,0,0,0-.16-.28.22.22,0,0,0-.28.16l-.27,1A.23.23,0,0,0,50.25,52.05Z"/><path class="cls-1" d="M52.13,53.16l-1-.27a.23.23,0,0,0-.28.16.23.23,0,0,0,.16.28l1,.28h.06a.22.22,0,0,0,.22-.17A.24.24,0,0,0,52.13,53.16Z"/><path class="cls-1" d="M51.44,57.11l-1.68-1a.23.23,0,0,0-.31.08.24.24,0,0,0,.08.32l1.68,1a.27.27,0,0,0,.12,0,.23.23,0,0,0,.19-.11A.22.22,0,0,0,51.44,57.11Z"/><path class="cls-1" d="M49,56l1.81-.49a.22.22,0,0,0,.16-.28.23.23,0,0,0-.28-.16l-1.94.52-1.21-.7a.23.23,0,0,0-.31.09.23.23,0,0,0,.08.31l1.21.7.52,1.94a.23.23,0,0,0,.22.17h.06a.22.22,0,0,0,.16-.28Z"/><path class="cls-1" d="M52,55.79l-1,.28a.23.23,0,0,0-.16.28.23.23,0,0,0,.22.17h.06l1-.27a.23.23,0,0,0-.12-.45Z"/><path class="cls-1" d="M50.53,57.52a.22.22,0,0,0-.28-.16.22.22,0,0,0-.16.28l.27,1a.22.22,0,0,0,.22.17h.06a.23.23,0,0,0,.16-.29Z"/><path class="cls-1" d="M42.19,52.3l1.67,1a.27.27,0,0,0,.12,0,.23.23,0,0,0,.2-.11.24.24,0,0,0-.09-.32l-1.67-1a.23.23,0,0,0-.32.08A.24.24,0,0,0,42.19,52.3Z"/><path class="cls-1" d="M44.6,53.42l-1.81.49a.23.23,0,0,0,.06.45h.06l1.94-.52,1.21.7a.2.2,0,0,0,.11,0,.22.22,0,0,0,.2-.12.23.23,0,0,0-.09-.31l-1.2-.7-.52-1.94a.23.23,0,0,0-.45.12Z"/><path class="cls-1" d="M41.56,53.61h.06l1-.28a.23.23,0,0,0,.16-.28.23.23,0,0,0-.28-.16l-1,.27a.23.23,0,0,0-.16.28A.21.21,0,0,0,41.56,53.61Z"/><path class="cls-1" d="M43.1,51.88a.22.22,0,0,0,.22.17h.06a.24.24,0,0,0,.16-.29l-.27-1a.22.22,0,0,0-.28-.16.22.22,0,0,0-.16.28Z"/><path class="cls-1" d="M88.84,105.52l-.08,0a.24.24,0,0,0-.07.16.28.28,0,0,0,.07.17.16.16,0,0,0,.08,0h.08a.23.23,0,0,0,.16-.06.23.23,0,0,0,.07-.17.2.2,0,0,0-.07-.16A.23.23,0,0,0,88.84,105.52Z"/><path class="cls-1" d="M88.92,102.72a.23.23,0,0,0,.23-.23v-1.93a.23.23,0,1,0-.46,0v1.93A.23.23,0,0,0,88.92,102.72Z"/><path class="cls-1" d="M88.69,103.63V105a.23.23,0,0,0,.46,0v-1.39l1.42-1.42a.24.24,0,0,0,0-.33.22.22,0,0,0-.32,0l-1.33,1.33-1.32-1.33a.23.23,0,0,0-.33.33Z"/><path class="cls-1" d="M88,101.46a.2.2,0,0,0,.16.07.21.21,0,0,0,.16-.07.22.22,0,0,0,0-.32l-.74-.75a.23.23,0,0,0-.33.33Z"/><path class="cls-1" d="M89.67,101.53a.23.23,0,0,0,.16-.07l.74-.74a.24.24,0,0,0,0-.33.22.22,0,0,0-.32,0l-.75.75a.22.22,0,0,0,0,.32A.23.23,0,0,0,89.67,101.53Z"/><path class="cls-1" d="M88.92,108.81a.23.23,0,0,0-.23.23V111a.23.23,0,1,0,.46,0V109A.23.23,0,0,0,88.92,108.81Z"/><path class="cls-1" d="M89.15,107.9v-1.39a.23.23,0,0,0-.46,0v1.39l-1.42,1.42a.24.24,0,0,0,0,.33.26.26,0,0,0,.16.07.28.28,0,0,0,.17-.07l1.32-1.33,1.33,1.33a.23.23,0,1,0,.32-.33Z"/><path class="cls-1" d="M89.83,110.07a.24.24,0,0,0-.33,0,.22.22,0,0,0,0,.32l.75.75a.24.24,0,0,0,.32,0,.24.24,0,0,0,0-.33Z"/><path class="cls-1" d="M88,110.07l-.75.74a.24.24,0,0,0,0,.33.25.25,0,0,0,.16.06.27.27,0,0,0,.17-.06l.74-.75a.23.23,0,1,0-.32-.32Z"/><path class="cls-1" d="M88.39,106.34a.24.24,0,0,0,.09-.32.23.23,0,0,0-.32-.08l-1.2.69L85,106.11a.23.23,0,0,0-.28.17.23.23,0,0,0,.17.28l1.81.48-.49,1.81a.24.24,0,0,0,.16.29h.06a.23.23,0,0,0,.23-.17l.52-1.94Z"/><path class="cls-1" d="M86.29,107.29a.24.24,0,0,0-.32-.09l-1.67,1a.23.23,0,0,0-.09.31.22.22,0,0,0,.2.12.27.27,0,0,0,.12,0l1.67-1A.23.23,0,0,0,86.29,107.29Z"/><path class="cls-1" d="M85.49,108.42a.23.23,0,0,0-.28.16l-.28,1a.23.23,0,0,0,.17.28h.06a.23.23,0,0,0,.22-.17l.27-1A.23.23,0,0,0,85.49,108.42Z"/><path class="cls-1" d="M84.68,107.58a.25.25,0,0,0,.23-.17.23.23,0,0,0-.17-.28l-1-.27a.24.24,0,0,0-.29.16.23.23,0,0,0,.17.28l1,.27Z"/><path class="cls-1" d="M89.45,105.19a.23.23,0,0,0,.12.43l.11,0,1.21-.69,1.94.52h.06a.22.22,0,0,0,.22-.17A.23.23,0,0,0,93,105l-1.81-.48.48-1.81a.24.24,0,0,0-.16-.29.23.23,0,0,0-.28.17l-.52,1.94Z"/><path class="cls-1" d="M91.56,104.24a.22.22,0,0,0,.2.12.2.2,0,0,0,.11,0l1.68-1a.23.23,0,0,0,.08-.31.23.23,0,0,0-.31-.09l-1.68,1A.22.22,0,0,0,91.56,104.24Z"/><path class="cls-1" d="M92.36,103.11h.06a.23.23,0,0,0,.22-.17l.27-1a.23.23,0,0,0-.16-.28.23.23,0,0,0-.28.16l-.28,1A.23.23,0,0,0,92.36,103.11Z"/><path class="cls-1" d="M94.24,104.23l-1-.27a.22.22,0,0,0-.28.16.23.23,0,0,0,.16.28l1,.27h.06a.23.23,0,0,0,.22-.17A.23.23,0,0,0,94.24,104.23Z"/><path class="cls-1" d="M93.55,108.17l-1.68-1a.23.23,0,0,0-.31.09.22.22,0,0,0,.08.31l1.68,1a.2.2,0,0,0,.11,0,.22.22,0,0,0,.2-.12A.23.23,0,0,0,93.55,108.17Z"/><path class="cls-1" d="M91.14,107l1.81-.48a.23.23,0,0,0-.12-.45l-1.94.52-1.21-.69a.23.23,0,0,0-.31.08.23.23,0,0,0,.08.32l1.21.69.52,1.94a.22.22,0,0,0,.22.17h.06a.24.24,0,0,0,.16-.29Z"/><path class="cls-1" d="M94.12,106.86l-1,.27a.23.23,0,0,0-.16.28.22.22,0,0,0,.22.17h.06l1-.27a.23.23,0,0,0-.12-.44Z"/><path class="cls-1" d="M92.64,108.58a.24.24,0,0,0-.28-.16.23.23,0,0,0-.17.28l.28,1a.23.23,0,0,0,.22.17h.06a.23.23,0,0,0,.16-.28Z"/><path class="cls-1" d="M84.3,103.36l1.67,1a.27.27,0,0,0,.12,0,.23.23,0,0,0,.11-.43l-1.67-1a.24.24,0,0,0-.32.09A.23.23,0,0,0,84.3,103.36Z"/><path class="cls-1" d="M86.71,104.49,84.9,105a.23.23,0,0,0-.17.28.23.23,0,0,0,.23.17H85L87,104.9l1.2.69a.27.27,0,0,0,.12,0,.23.23,0,0,0,.11-.43l-1.2-.69-.52-1.94a.23.23,0,1,0-.45.12Z"/><path class="cls-1" d="M83.67,104.68h.06l1-.27a.23.23,0,0,0,.17-.28.23.23,0,0,0-.29-.16l-1,.27a.23.23,0,0,0-.17.28A.25.25,0,0,0,83.67,104.68Z"/><path class="cls-1" d="M85.21,103a.23.23,0,0,0,.22.17h.06a.23.23,0,0,0,.16-.28l-.27-1a.24.24,0,0,0-.28-.16.23.23,0,0,0-.17.28Z"/><path class="cls-1" d="M256.64,99.61a.16.16,0,0,0-.08,0,.24.24,0,0,0-.07.16.28.28,0,0,0,.07.17l.08.05h.08a.23.23,0,0,0,.16-.06.28.28,0,0,0,.07-.17.23.23,0,0,0-.31-.21Z"/><path class="cls-1" d="M256.72,96.81a.23.23,0,0,0,.23-.23V94.64a.23.23,0,1,0-.46,0v1.94A.23.23,0,0,0,256.72,96.81Z"/><path class="cls-1" d="M256.49,97.72v1.39a.23.23,0,0,0,.46,0V97.72l1.42-1.42a.24.24,0,0,0,0-.33.22.22,0,0,0-.32,0l-1.33,1.33L255.4,96a.23.23,0,0,0-.33.33Z"/><path class="cls-1" d="M255.81,95.55a.23.23,0,0,0,.17.07.21.21,0,0,0,.16-.07.22.22,0,0,0,0-.32l-.74-.75a.23.23,0,0,0-.33.33Z"/><path class="cls-1" d="M257.47,95.62a.23.23,0,0,0,.16-.07l.74-.74a.24.24,0,0,0,0-.33.22.22,0,0,0-.32,0l-.75.75a.22.22,0,0,0,0,.32A.23.23,0,0,0,257.47,95.62Z"/><path class="cls-1" d="M256.72,102.9a.23.23,0,0,0-.23.23v1.93a.23.23,0,0,0,.46,0v-1.93A.23.23,0,0,0,256.72,102.9Z"/><path class="cls-1" d="M257,102V100.6a.23.23,0,1,0-.46,0V102l-1.42,1.42a.24.24,0,0,0,0,.33.25.25,0,0,0,.16.06.27.27,0,0,0,.17-.06l1.32-1.33,1.33,1.33a.24.24,0,0,0,.32,0,.24.24,0,0,0,0-.33Z"/><path class="cls-1" d="M257.63,104.16a.24.24,0,0,0-.33,0,.22.22,0,0,0,0,.32l.75.74a.22.22,0,0,0,.32,0,.22.22,0,0,0,0-.32Z"/><path class="cls-1" d="M255.81,104.16l-.74.74a.22.22,0,0,0,0,.32.21.21,0,0,0,.16.07.23.23,0,0,0,.17-.07l.74-.74a.22.22,0,0,0,0-.32A.24.24,0,0,0,255.81,104.16Z"/><path class="cls-1" d="M256.19,100.42A.23.23,0,1,0,256,100l-1.2.69-1.95-.52a.23.23,0,0,0-.11.45l1.81.48-.49,1.81a.23.23,0,0,0,.16.28h.06a.25.25,0,0,0,.23-.17l.52-1.94Z"/><path class="cls-1" d="M254.08,101.38a.22.22,0,0,0-.31-.09l-1.67,1a.23.23,0,0,0-.09.31.22.22,0,0,0,.2.12.27.27,0,0,0,.12,0l1.67-1A.22.22,0,0,0,254.08,101.38Z"/><path class="cls-1" d="M253.29,102.51a.24.24,0,0,0-.29.16l-.27,1a.23.23,0,0,0,.16.28H253a.24.24,0,0,0,.23-.17l.27-1A.23.23,0,0,0,253.29,102.51Z"/><path class="cls-1" d="M252.48,101.67a.23.23,0,0,0,.06-.45l-1-.27a.23.23,0,0,0-.29.16.23.23,0,0,0,.17.28l1,.27Z"/><path class="cls-1" d="M257.25,99.28a.23.23,0,0,0,.12.43l.11,0,1.21-.7,1.94.52h.06a.23.23,0,0,0,.22-.17.23.23,0,0,0-.16-.28l-1.81-.49.48-1.81a.23.23,0,0,0-.44-.12l-.52,2Z"/><path class="cls-1" d="M259.36,98.33a.24.24,0,0,0,.2.12.23.23,0,0,0,.11,0l1.68-1a.24.24,0,0,0,.08-.32.23.23,0,0,0-.31-.08l-1.68,1A.22.22,0,0,0,259.36,98.33Z"/><path class="cls-1" d="M260.16,97.2h.06a.23.23,0,0,0,.22-.17l.27-1a.23.23,0,0,0-.16-.28.23.23,0,0,0-.28.16l-.28,1A.23.23,0,0,0,260.16,97.2Z"/><path class="cls-1" d="M262,98.32,261,98a.23.23,0,0,0-.12.45l1,.27H262a.23.23,0,0,0,.22-.17A.23.23,0,0,0,262,98.32Z"/><path class="cls-1" d="M261.35,102.26l-1.68-1a.23.23,0,0,0-.31.09.22.22,0,0,0,.08.31l1.68,1a.2.2,0,0,0,.11,0,.22.22,0,0,0,.2-.12A.23.23,0,0,0,261.35,102.26Z"/><path class="cls-1" d="M258.94,101.13l1.81-.48a.24.24,0,0,0,.16-.28.23.23,0,0,0-.28-.17l-1.94.52-1.21-.69a.23.23,0,0,0-.23.39l1.21.7.52,1.94a.23.23,0,0,0,.22.17h.06a.23.23,0,0,0,.16-.28Z"/><path class="cls-1" d="M261.92,101l-1,.27a.22.22,0,0,0-.16.28.23.23,0,0,0,.22.17H261l1-.27a.23.23,0,0,0,.16-.28A.22.22,0,0,0,261.92,101Z"/><path class="cls-1" d="M260.44,102.67a.24.24,0,0,0-.28-.16.23.23,0,0,0-.17.28l.28,1a.23.23,0,0,0,.22.17h.06a.23.23,0,0,0,.16-.28Z"/><path class="cls-1" d="M252.1,97.45l1.67,1a.27.27,0,0,0,.12,0,.24.24,0,0,0,.19-.12A.22.22,0,0,0,254,98l-1.67-1a.24.24,0,0,0-.32.08A.24.24,0,0,0,252.1,97.45Z"/><path class="cls-1" d="M254.51,98.57l-1.81.49a.23.23,0,0,0-.17.28.23.23,0,0,0,.22.17h.06l1.95-.52,1.2.7a.27.27,0,0,0,.12,0,.23.23,0,0,0,.11-.43l-1.2-.69-.52-2a.24.24,0,0,0-.29-.16.23.23,0,0,0-.16.28Z"/><path class="cls-1" d="M251.47,98.77h.06l1-.27a.23.23,0,0,0,.16-.28.22.22,0,0,0-.28-.17l-1,.28a.22.22,0,0,0-.17.28A.24.24,0,0,0,251.47,98.77Z"/><path class="cls-1" d="M253,97a.25.25,0,0,0,.23.17h.06a.23.23,0,0,0,.16-.28l-.27-1a.24.24,0,0,0-.29-.16.23.23,0,0,0-.16.28Z"/><path class="cls-1" d="M179.22,36l-.08.05a.23.23,0,0,0-.06.16.27.27,0,0,0,.06.17l.08,0h.09a.23.23,0,0,0,.16-.06.28.28,0,0,0,.07-.17.24.24,0,0,0-.07-.16A.26.26,0,0,0,179.22,36Z"/><path class="cls-1" d="M179.3,33.17a.23.23,0,0,0,.23-.23V31a.23.23,0,0,0-.23-.23.23.23,0,0,0-.23.23v1.93A.23.23,0,0,0,179.3,33.17Z"/><path class="cls-1" d="M179.07,34.08v1.39a.23.23,0,0,0,.23.23.23.23,0,0,0,.23-.23V34.08L181,32.66a.26.26,0,0,0,0-.33.24.24,0,0,0-.33,0l-1.33,1.33L178,32.33a.23.23,0,0,0-.33.33Z"/><path class="cls-1" d="M178.4,31.91a.22.22,0,0,0,.32,0,.22.22,0,0,0,0-.32l-.74-.75a.23.23,0,0,0-.33.33Z"/><path class="cls-1" d="M180.05,32a.2.2,0,0,0,.16-.07l.75-.74a.26.26,0,0,0,0-.33.24.24,0,0,0-.33,0l-.74.75a.22.22,0,0,0,0,.32A.2.2,0,0,0,180.05,32Z"/><path class="cls-1" d="M179.3,39.26a.23.23,0,0,0-.23.23v1.93a.23.23,0,0,0,.23.23.23.23,0,0,0,.23-.23V39.49A.23.23,0,0,0,179.3,39.26Z"/><path class="cls-1" d="M179.53,38.35V37a.23.23,0,0,0-.23-.23.23.23,0,0,0-.23.23v1.39l-1.42,1.42a.24.24,0,0,0,0,.33.27.27,0,0,0,.17.06.25.25,0,0,0,.16-.06l1.32-1.33,1.33,1.33a.25.25,0,0,0,.16.06.27.27,0,0,0,.17-.06.26.26,0,0,0,0-.33Z"/><path class="cls-1" d="M180.21,40.52a.23.23,0,0,0-.32.32l.74.75a.25.25,0,0,0,.16.06.27.27,0,0,0,.17-.06.26.26,0,0,0,0-.33Z"/><path class="cls-1" d="M178.4,40.52l-.75.74a.24.24,0,0,0,0,.33.27.27,0,0,0,.17.06.25.25,0,0,0,.16-.06l.74-.75a.23.23,0,0,0-.32-.32Z"/><path class="cls-1" d="M178.78,36.79a.25.25,0,0,0,.08-.32.22.22,0,0,0-.31-.08l-1.21.69-1.94-.52a.23.23,0,0,0-.28.17.22.22,0,0,0,.16.28l1.81.48-.49,1.81a.24.24,0,0,0,.17.29h.06a.22.22,0,0,0,.22-.17l.52-1.94Z"/><path class="cls-1" d="M176.67,37.74a.24.24,0,0,0-.32-.09l-1.67,1a.23.23,0,0,0,.11.43.27.27,0,0,0,.12,0l1.67-1A.23.23,0,0,0,176.67,37.74Z"/><path class="cls-1" d="M175.87,38.87a.23.23,0,0,0-.28.16l-.27,1a.22.22,0,0,0,.16.28h.06a.23.23,0,0,0,.22-.17l.27-1A.23.23,0,0,0,175.87,38.87Z"/><path class="cls-1" d="M175.07,38a.23.23,0,0,0,.22-.17.23.23,0,0,0-.16-.28l-1-.27a.23.23,0,0,0-.28.16.22.22,0,0,0,.16.28l1,.27Z"/><path class="cls-1" d="M179.83,35.64a.24.24,0,0,0-.08.32.23.23,0,0,0,.2.11.2.2,0,0,0,.11,0l1.21-.69,1.94.52h.06a.21.21,0,0,0,.22-.17.22.22,0,0,0-.16-.28l-1.81-.48.48-1.81a.23.23,0,0,0-.16-.29.23.23,0,0,0-.28.17L181,35Z"/><path class="cls-1" d="M181.94,34.69a.22.22,0,0,0,.2.12.2.2,0,0,0,.11,0l1.68-1a.22.22,0,0,0,.08-.31.23.23,0,0,0-.31-.09l-1.68,1A.24.24,0,0,0,181.94,34.69Z"/><path class="cls-1" d="M182.74,33.56h.06a.23.23,0,0,0,.22-.17l.27-1a.22.22,0,0,0-.16-.28.23.23,0,0,0-.28.16l-.27,1A.22.22,0,0,0,182.74,33.56Z"/><path class="cls-1" d="M184.62,34.68l-1-.28a.24.24,0,0,0-.28.17.23.23,0,0,0,.16.28l1,.27h.06a.23.23,0,0,0,.22-.17A.23.23,0,0,0,184.62,34.68Z"/><path class="cls-1" d="M183.93,38.62l-1.68-1a.23.23,0,0,0-.31.09.24.24,0,0,0,.08.31l1.68,1,.12,0a.23.23,0,0,0,.11-.43Z"/><path class="cls-1" d="M181.52,37.49l1.81-.48a.22.22,0,0,0,.16-.28.23.23,0,0,0-.28-.17l-1.94.52-1.21-.69a.23.23,0,0,0-.31.08.24.24,0,0,0,.08.32l1.21.69.52,1.94a.22.22,0,0,0,.22.17h.06a.23.23,0,0,0,.16-.29Z"/><path class="cls-1" d="M184.5,37.31l-1,.27a.23.23,0,0,0-.16.28.23.23,0,0,0,.22.17h.06l1-.27a.23.23,0,0,0-.12-.44Z"/><path class="cls-1" d="M183,39a.23.23,0,0,0-.28-.16.22.22,0,0,0-.16.28l.27,1a.23.23,0,0,0,.22.17h.06a.22.22,0,0,0,.16-.28Z"/><path class="cls-1" d="M174.68,33.81l1.67,1,.12,0a.22.22,0,0,0,.2-.12.23.23,0,0,0-.09-.31l-1.67-1a.24.24,0,0,0-.32.09A.23.23,0,0,0,174.68,33.81Z"/><path class="cls-1" d="M177.09,34.94l-1.81.48a.22.22,0,0,0-.16.28.21.21,0,0,0,.22.17h.06l1.94-.52,1.21.69a.2.2,0,0,0,.11,0,.23.23,0,0,0,.2-.11.25.25,0,0,0-.08-.32L177.57,35,177.05,33a.23.23,0,0,0-.28-.17.24.24,0,0,0-.17.29Z"/><path class="cls-1" d="M174.05,35.13h.06l1-.27a.23.23,0,0,0-.12-.45l-1,.28a.22.22,0,0,0-.16.28A.23.23,0,0,0,174.05,35.13Z"/><path class="cls-1" d="M175.59,33.4a.23.23,0,0,0,.22.17h.06a.23.23,0,0,0,.16-.28l-.27-1a.23.23,0,0,0-.28-.16.22.22,0,0,0-.16.28Z"/><path class="cls-1" d="M313.73,9l-.08,0a.23.23,0,0,0-.06.16.27.27,0,0,0,.06.17l.08.05h.09a.23.23,0,0,0,.16-.06.28.28,0,0,0,.07-.17A.24.24,0,0,0,314,9,.26.26,0,0,0,313.73,9Z"/><path class="cls-1" d="M313.82,6.18a.23.23,0,0,0,.23-.23V4a.23.23,0,0,0-.23-.23.23.23,0,0,0-.23.23V6A.23.23,0,0,0,313.82,6.18Z"/><path class="cls-1" d="M313.59,7.09V8.48a.23.23,0,0,0,.23.23.23.23,0,0,0,.23-.23V7.09l1.42-1.42a.23.23,0,0,0-.33-.33l-1.32,1.33-1.33-1.33a.23.23,0,0,0-.33.33Z"/><path class="cls-1" d="M312.91,4.92a.22.22,0,0,0,.32,0,.22.22,0,0,0,0-.32l-.74-.75a.23.23,0,0,0-.33.33Z"/><path class="cls-1" d="M314.56,5a.2.2,0,0,0,.16-.07l.75-.74a.23.23,0,1,0-.33-.33l-.74.75a.22.22,0,0,0,0,.32A.2.2,0,0,0,314.56,5Z"/><path class="cls-1" d="M313.82,12.27a.23.23,0,0,0-.23.23v1.93a.23.23,0,0,0,.23.23.23.23,0,0,0,.23-.23V12.5A.23.23,0,0,0,313.82,12.27Z"/><path class="cls-1" d="M314.05,11.36V10a.23.23,0,0,0-.23-.23.23.23,0,0,0-.23.23v1.39l-1.43,1.42a.24.24,0,0,0,0,.33.28.28,0,0,0,.17.07.26.26,0,0,0,.16-.07l1.33-1.33,1.32,1.33a.26.26,0,0,0,.16.07.28.28,0,0,0,.17-.07.24.24,0,0,0,0-.33Z"/><path class="cls-1" d="M314.72,13.53a.23.23,0,0,0-.32.32l.74.75a.25.25,0,0,0,.16.06.27.27,0,0,0,.17-.06.24.24,0,0,0,0-.33Z"/><path class="cls-1" d="M312.91,13.53l-.75.74a.24.24,0,0,0,0,.33.27.27,0,0,0,.17.06.25.25,0,0,0,.16-.06l.74-.75a.23.23,0,1,0-.32-.32Z"/><path class="cls-1" d="M313.29,9.8a.24.24,0,0,0,.08-.32.22.22,0,0,0-.31-.08l-1.21.69-1.94-.52a.23.23,0,0,0-.28.17.22.22,0,0,0,.16.28l1.81.48-.48,1.81a.23.23,0,0,0,.16.29h.06a.22.22,0,0,0,.22-.17l.52-1.94Z"/><path class="cls-1" d="M311.18,10.75a.23.23,0,0,0-.31-.09l-1.68,1a.23.23,0,0,0,.11.43l.12,0,1.67-1A.23.23,0,0,0,311.18,10.75Z"/><path class="cls-1" d="M310.38,11.88a.23.23,0,0,0-.28.16l-.27,1a.22.22,0,0,0,.16.28h.06a.23.23,0,0,0,.22-.17l.27-1A.22.22,0,0,0,310.38,11.88Z"/><path class="cls-1" d="M309.58,11a.22.22,0,0,0,.22-.17.23.23,0,0,0-.16-.28l-1-.27a.23.23,0,1,0-.12.44l1,.27Z"/><path class="cls-1" d="M314.34,8.65a.24.24,0,0,0-.08.32.23.23,0,0,0,.2.11.2.2,0,0,0,.11,0l1.21-.69,1.94.52h.06a.21.21,0,0,0,.22-.17.22.22,0,0,0-.16-.28L316,8l.49-1.81a.24.24,0,0,0-.17-.29.23.23,0,0,0-.28.17L315.55,8Z"/><path class="cls-1" d="M316.45,7.7a.22.22,0,0,0,.2.12.27.27,0,0,0,.12,0l1.67-1a.22.22,0,0,0,.08-.31.23.23,0,0,0-.31-.09l-1.67,1A.23.23,0,0,0,316.45,7.7Z"/><path class="cls-1" d="M317.25,6.57h.06a.23.23,0,0,0,.22-.17l.27-1a.22.22,0,0,0-.16-.28.23.23,0,0,0-.28.16l-.27,1A.22.22,0,0,0,317.25,6.57Z"/><path class="cls-1" d="M319.13,7.69l-1-.27a.23.23,0,0,0-.28.16.23.23,0,0,0,.16.28l1,.27h.06a.23.23,0,0,0,.22-.17A.22.22,0,0,0,319.13,7.69Z"/><path class="cls-1" d="M318.44,11.63l-1.67-1a.24.24,0,0,0-.32.09.23.23,0,0,0,.09.31l1.67,1,.12,0a.21.21,0,0,0,.19-.12A.22.22,0,0,0,318.44,11.63Z"/><path class="cls-1" d="M316,10.5l1.81-.48a.22.22,0,0,0,.16-.28.23.23,0,0,0-.28-.17l-1.94.52-1.21-.69a.23.23,0,0,0-.31.08.24.24,0,0,0,.08.32l1.21.69.52,1.94a.22.22,0,0,0,.22.17h.06a.24.24,0,0,0,.17-.29Z"/><path class="cls-1" d="M319,10.32l-1,.27a.23.23,0,0,0-.16.28.22.22,0,0,0,.22.17h.06l1-.27a.22.22,0,0,0,.16-.28A.23.23,0,0,0,319,10.32Z"/><path class="cls-1" d="M317.53,12a.23.23,0,0,0-.28-.16.22.22,0,0,0-.16.28l.27,1a.23.23,0,0,0,.22.17h.06a.22.22,0,0,0,.16-.28Z"/><path class="cls-1" d="M309.19,6.82l1.68,1a.2.2,0,0,0,.11,0,.22.22,0,0,0,.2-.12.23.23,0,0,0-.09-.31l-1.67-1a.23.23,0,0,0-.31.09A.22.22,0,0,0,309.19,6.82Z"/><path class="cls-1" d="M311.6,8l-1.81.48a.22.22,0,0,0-.16.28.21.21,0,0,0,.22.17h.06l1.94-.52,1.21.69a.2.2,0,0,0,.11,0,.23.23,0,0,0,.2-.11.24.24,0,0,0-.08-.32L312.08,8,311.56,6a.23.23,0,0,0-.28-.17.23.23,0,0,0-.16.29Z"/><path class="cls-1" d="M308.56,8.14h.06l1-.27a.23.23,0,0,0,.16-.28.22.22,0,0,0-.28-.16l-1,.27a.23.23,0,0,0-.16.28A.23.23,0,0,0,308.56,8.14Z"/><path class="cls-1" d="M310.1,6.41a.23.23,0,0,0,.22.17h.06a.22.22,0,0,0,.16-.28l-.27-1a.23.23,0,0,0-.28-.16.22.22,0,0,0-.16.28Z"/><path class="cls-1" d="M373,17.93a.48.48,0,0,0-.31.46.54.54,0,0,0,.14.36.71.71,0,0,0,.17.11.58.58,0,0,0,.19,0,.5.5,0,0,0,.35-.14.55.55,0,0,0,.15-.36.5.5,0,0,0-.69-.46Z"/><path class="cls-1" d="M373.19,11.83a.5.5,0,0,0,.5-.5V7.12a.5.5,0,0,0-.5-.5.5.5,0,0,0-.5.5v4.21A.5.5,0,0,0,373.19,11.83Z"/><path class="cls-1" d="M372.69,13.81v3a.5.5,0,0,0,.5.5.51.51,0,0,0,.5-.5v-3l3.09-3.1a.5.5,0,0,0,0-.7.5.5,0,0,0-.71,0l-2.88,2.88L370.3,10a.5.5,0,0,0-.71,0,.5.5,0,0,0,0,.7Z"/><path class="cls-1" d="M371.21,9.09a.51.51,0,0,0,.36.15.5.5,0,0,0,.35-.85L370.3,6.77a.5.5,0,0,0-.71,0,.5.5,0,0,0,0,.7Z"/><path class="cls-1" d="M374.81,9.24a.5.5,0,0,0,.35-.15l1.62-1.62a.5.5,0,0,0,0-.7.5.5,0,0,0-.71,0l-1.62,1.62a.5.5,0,0,0,0,.7A.51.51,0,0,0,374.81,9.24Z"/><path class="cls-1" d="M373.19,25.09a.5.5,0,0,0-.5.5V29.8a.5.5,0,0,0,.5.5.51.51,0,0,0,.5-.5V25.59A.5.5,0,0,0,373.19,25.09Z"/><path class="cls-1" d="M373.69,23.11v-3a.5.5,0,0,0-.5-.5.5.5,0,0,0-.5.5v3l-3.1,3.09a.51.51,0,0,0,0,.71.51.51,0,0,0,.36.15.5.5,0,0,0,.35-.15L373.19,24l2.88,2.89a.5.5,0,0,0,.35.15.51.51,0,0,0,.36-.15.51.51,0,0,0,0-.71Z"/><path class="cls-1" d="M375.16,27.82a.5.5,0,0,0-.71.71l1.62,1.62a.5.5,0,0,0,.35.15.51.51,0,0,0,.36-.15.51.51,0,0,0,0-.71Z"/><path class="cls-1" d="M371.21,27.82l-1.62,1.62a.51.51,0,0,0,0,.71.51.51,0,0,0,.36.15.5.5,0,0,0,.35-.15l1.62-1.62a.5.5,0,0,0-.71-.71Z"/><path class="cls-1" d="M372,19.7a.51.51,0,0,0,.19-.68.52.52,0,0,0-.69-.19l-2.62,1.52-4.23-1.13a.5.5,0,0,0-.61.35.52.52,0,0,0,.35.62l3.94,1-1.05,3.94a.52.52,0,0,0,.35.62h.13a.49.49,0,0,0,.48-.37l1.14-4.22Z"/><path class="cls-1" d="M367.45,21.77a.51.51,0,0,0-.69-.18l-3.64,2.1a.5.5,0,0,0,.25.94.47.47,0,0,0,.25-.07l3.64-2.11A.5.5,0,0,0,367.45,21.77Z"/><path class="cls-1" d="M365.71,24.24a.49.49,0,0,0-.61.35l-.6,2.21a.51.51,0,0,0,.36.62H365a.49.49,0,0,0,.48-.37l.59-2.21A.5.5,0,0,0,365.71,24.24Z"/><path class="cls-1" d="M364,22.41a.49.49,0,0,0,.48-.37.5.5,0,0,0-.35-.61l-2.21-.59a.51.51,0,0,0-.62.35.5.5,0,0,0,.36.61l2.21.6Z"/><path class="cls-1" d="M374.34,17.22a.5.5,0,0,0-.19.68.52.52,0,0,0,.44.25.47.47,0,0,0,.25-.07l2.62-1.52,4.23,1.14h.13a.49.49,0,0,0,.48-.37.5.5,0,0,0-.35-.61L378,15.67l1.05-3.94a.5.5,0,0,0-.35-.61.5.5,0,0,0-.61.35L377,15.7Z"/><path class="cls-1" d="M378.92,15.14a.5.5,0,0,0,.44.25.57.57,0,0,0,.25-.06l3.64-2.11a.5.5,0,0,0,.19-.68.51.51,0,0,0-.69-.18l-3.64,2.1A.51.51,0,0,0,378.92,15.14Z"/><path class="cls-1" d="M380.66,12.68l.13,0a.52.52,0,0,0,.49-.37l.59-2.22a.5.5,0,0,0-1-.26l-.59,2.22A.5.5,0,0,0,380.66,12.68Z"/><path class="cls-1" d="M384.75,15.11l-2.21-.59a.5.5,0,0,0-.26,1l2.22.6h.12a.49.49,0,0,0,.49-.37A.5.5,0,0,0,384.75,15.11Z"/><path class="cls-1" d="M383.25,23.69l-3.64-2.1a.5.5,0,1,0-.5.86l3.64,2.11a.47.47,0,0,0,.25.07.5.5,0,0,0,.44-.25A.51.51,0,0,0,383.25,23.69Z"/><path class="cls-1" d="M378,21.24l3.94-1a.5.5,0,0,0-.26-1l-4.23,1.13-2.62-1.52a.52.52,0,0,0-.69.19.51.51,0,0,0,.19.68L377,21.22l1.14,4.22a.49.49,0,0,0,.48.37h.13a.51.51,0,0,0,.35-.62Z"/><path class="cls-1" d="M384.5,20.84l-2.22.59a.5.5,0,0,0-.35.61.49.49,0,0,0,.48.37h.13l2.21-.6a.5.5,0,0,0,.36-.61A.5.5,0,0,0,384.5,20.84Z"/><path class="cls-1" d="M381.28,24.59a.51.51,0,0,0-.62-.35.5.5,0,0,0-.35.61l.59,2.21a.49.49,0,0,0,.48.37h.13a.51.51,0,0,0,.36-.62Z"/><path class="cls-1" d="M363.12,13.22l3.64,2.11a.57.57,0,0,0,.25.06.5.5,0,0,0,.25-.93l-3.64-2.1a.51.51,0,0,0-.69.18A.5.5,0,0,0,363.12,13.22Z"/><path class="cls-1" d="M368.36,15.67l-3.94,1.06a.5.5,0,0,0-.35.61.49.49,0,0,0,.48.37h.13l4.23-1.14,2.62,1.52a.47.47,0,0,0,.25.07.52.52,0,0,0,.44-.25.5.5,0,0,0-.19-.68l-2.62-1.52-1.14-4.23a.5.5,0,1,0-1,.26Z"/><path class="cls-1" d="M361.75,16.09h.13l2.21-.6a.5.5,0,0,0,.35-.61.49.49,0,0,0-.61-.35l-2.21.59a.5.5,0,0,0-.36.61A.49.49,0,0,0,361.75,16.09Z"/><path class="cls-1" d="M365.1,12.33a.5.5,0,0,0,.48.37l.13,0a.5.5,0,0,0,.35-.61l-.59-2.22a.5.5,0,0,0-1,.26Z"/><path class="cls-1" d="M128.49,127.71a.48.48,0,0,0-.31.46.54.54,0,0,0,.14.36.71.71,0,0,0,.17.11.58.58,0,0,0,.19,0,.5.5,0,0,0,.35-.14.55.55,0,0,0,.15-.36.5.5,0,0,0-.69-.46Z"/><path class="cls-1" d="M128.68,121.61a.5.5,0,0,0,.5-.5V116.9a.5.5,0,0,0-.5-.5.5.5,0,0,0-.5.5v4.21A.5.5,0,0,0,128.68,121.61Z"/><path class="cls-1" d="M128.18,123.59v3a.5.5,0,0,0,.5.5.5.5,0,0,0,.5-.5v-3l3.09-3.1a.5.5,0,0,0,0-.7.5.5,0,0,0-.71,0l-2.88,2.88-2.89-2.88a.5.5,0,0,0-.71,0,.5.5,0,0,0,0,.7Z"/><path class="cls-1" d="M126.7,118.87a.51.51,0,0,0,.36.15.5.5,0,0,0,.35-.85l-1.62-1.62a.5.5,0,0,0-.71,0,.5.5,0,0,0,0,.7Z"/><path class="cls-1" d="M130.3,119a.5.5,0,0,0,.35-.15l1.62-1.62a.5.5,0,0,0,0-.7.5.5,0,0,0-.71,0l-1.62,1.62a.5.5,0,0,0,0,.7A.51.51,0,0,0,130.3,119Z"/><path class="cls-1" d="M128.68,134.87a.5.5,0,0,0-.5.5v4.21a.5.5,0,0,0,.5.5.51.51,0,0,0,.5-.5v-4.21A.5.5,0,0,0,128.68,134.87Z"/><path class="cls-1" d="M129.18,132.89v-3a.5.5,0,0,0-.5-.5.5.5,0,0,0-.5.5v3l-3.1,3.09a.51.51,0,0,0,0,.71.51.51,0,0,0,.36.15.5.5,0,0,0,.35-.15l2.89-2.88,2.88,2.88a.5.5,0,0,0,.35.15.51.51,0,0,0,.36-.15.51.51,0,0,0,0-.71Z"/><path class="cls-1" d="M130.65,137.6a.5.5,0,0,0-.71.71l1.62,1.62a.5.5,0,0,0,.35.15.51.51,0,0,0,.36-.15.51.51,0,0,0,0-.71Z"/><path class="cls-1" d="M126.7,137.6l-1.62,1.62a.51.51,0,0,0,0,.71.51.51,0,0,0,.36.15.5.5,0,0,0,.35-.15l1.62-1.62a.5.5,0,1,0-.71-.71Z"/><path class="cls-1" d="M127.52,129.48a.5.5,0,1,0-.5-.86l-2.62,1.51L120.17,129a.5.5,0,0,0-.61.35.52.52,0,0,0,.35.62l3.94,1.05-1,3.94a.51.51,0,0,0,.35.62h.13a.49.49,0,0,0,.48-.37L124.9,131Z"/><path class="cls-1" d="M122.94,131.55a.51.51,0,0,0-.69-.18l-3.64,2.11a.49.49,0,0,0-.19.68.51.51,0,0,0,.44.25.47.47,0,0,0,.25-.07l3.64-2.1A.52.52,0,0,0,122.94,131.55Z"/><path class="cls-1" d="M121.2,134a.5.5,0,0,0-.61.35l-.6,2.21a.51.51,0,0,0,.36.62h.13a.49.49,0,0,0,.48-.37l.59-2.21A.5.5,0,0,0,121.2,134Z"/><path class="cls-1" d="M119.45,132.2a.5.5,0,0,0,.48-.38.5.5,0,0,0-.35-.61l-2.21-.59a.5.5,0,1,0-.26,1l2.21.59Z"/><path class="cls-1" d="M129.83,127a.5.5,0,0,0-.19.68.52.52,0,0,0,.44.25.47.47,0,0,0,.25-.07l2.62-1.51,4.23,1.13.13,0a.5.5,0,0,0,.13-1l-3.94-1.05,1.05-3.95a.5.5,0,0,0-.35-.61.5.5,0,0,0-.61.35l-1.14,4.23Z"/><path class="cls-1" d="M134.41,124.93a.52.52,0,0,0,.44.25.59.59,0,0,0,.25-.07l3.64-2.11a.5.5,0,0,0,.19-.68.51.51,0,0,0-.69-.18l-3.64,2.1A.52.52,0,0,0,134.41,124.93Z"/><path class="cls-1" d="M136.15,122.46l.13,0a.52.52,0,0,0,.49-.37l.59-2.22a.5.5,0,0,0-1-.26l-.59,2.22A.5.5,0,0,0,136.15,122.46Z"/><path class="cls-1" d="M140.24,124.89,138,124.3a.5.5,0,0,0-.61.35.52.52,0,0,0,.35.62l2.22.59.12,0a.5.5,0,0,0,.13-1Z"/><path class="cls-1" d="M138.74,133.48l-3.64-2.11a.51.51,0,0,0-.69.18.52.52,0,0,0,.19.69l3.64,2.1a.47.47,0,0,0,.25.07.5.5,0,0,0,.44-.25A.49.49,0,0,0,138.74,133.48Z"/><path class="cls-1" d="M133.5,131l3.94-1.05a.51.51,0,0,0,.35-.62.5.5,0,0,0-.61-.35L133,130.13l-2.62-1.51a.5.5,0,1,0-.5.86l2.62,1.52,1.14,4.22a.49.49,0,0,0,.48.37h.13a.5.5,0,0,0,.35-.62Z"/><path class="cls-1" d="M140,130.62l-2.22.59a.5.5,0,0,0-.35.61.5.5,0,0,0,.48.38l.13,0,2.21-.59a.51.51,0,0,0,.36-.62A.5.5,0,0,0,140,130.62Z"/><path class="cls-1" d="M136.77,134.37a.51.51,0,0,0-.62-.35.5.5,0,0,0-.35.61l.59,2.21a.49.49,0,0,0,.48.37H137a.51.51,0,0,0,.36-.62Z"/><path class="cls-1" d="M118.61,123l3.64,2.11a.59.59,0,0,0,.25.07.51.51,0,0,0,.44-.25.52.52,0,0,0-.19-.69l-3.64-2.1a.51.51,0,0,0-.69.18A.5.5,0,0,0,118.61,123Z"/><path class="cls-1" d="M123.85,125.46l-3.94,1.05a.5.5,0,0,0-.35.61.5.5,0,0,0,.48.38l.13,0,4.23-1.13,2.62,1.51a.47.47,0,0,0,.25.07.51.51,0,0,0,.44-.25.5.5,0,0,0-.19-.68l-2.62-1.52-1.14-4.23a.5.5,0,1,0-1,.26Z"/><path class="cls-1" d="M117.24,125.88l.13,0,2.21-.59a.52.52,0,0,0,.35-.62.5.5,0,0,0-.61-.35l-2.21.59a.5.5,0,0,0,.13,1Z"/><path class="cls-1" d="M120.59,122.11a.5.5,0,0,0,.48.37l.13,0a.5.5,0,0,0,.35-.61l-.59-2.22a.5.5,0,0,0-1,.26Z"/><path class="cls-1" d="M318.49,121.08a.48.48,0,0,0-.31.46.54.54,0,0,0,.14.36.71.71,0,0,0,.17.11.58.58,0,0,0,.19,0,.5.5,0,0,0,.35-.14.55.55,0,0,0,.15-.36.5.5,0,0,0-.69-.46Z"/><path class="cls-1" d="M318.68,115a.5.5,0,0,0,.5-.5v-4.21a.5.5,0,1,0-1,0v4.21A.5.5,0,0,0,318.68,115Z"/><path class="cls-1" d="M318.18,117v3a.5.5,0,1,0,1,0v-3l3.09-3.09a.5.5,0,0,0,0-.71.48.48,0,0,0-.7,0l-2.89,2.89-2.89-2.89a.48.48,0,0,0-.7,0,.5.5,0,0,0,0,.71Z"/><path class="cls-1" d="M316.71,112.25a.5.5,0,1,0,.7-.71l-1.62-1.62a.48.48,0,0,0-.7,0,.5.5,0,0,0,0,.71Z"/><path class="cls-1" d="M320.3,112.39a.5.5,0,0,0,.35-.14l1.62-1.62a.5.5,0,0,0,0-.71.48.48,0,0,0-.7,0L320,111.54a.5.5,0,0,0,.35.85Z"/><path class="cls-1" d="M318.68,128.24a.5.5,0,0,0-.5.5V133a.5.5,0,0,0,1,0v-4.21A.5.5,0,0,0,318.68,128.24Z"/><path class="cls-1" d="M319.18,126.26v-3a.5.5,0,0,0-1,0v3l-3.09,3.1a.48.48,0,0,0,0,.7.48.48,0,0,0,.7,0l2.89-2.88,2.89,2.88a.48.48,0,0,0,.7,0,.48.48,0,0,0,0-.7Z"/><path class="cls-1" d="M320.65,131a.49.49,0,1,0-.7.7l1.62,1.62a.48.48,0,0,0,.7,0,.48.48,0,0,0,0-.7Z"/><path class="cls-1" d="M316.71,131l-1.62,1.62a.48.48,0,0,0,0,.7.48.48,0,0,0,.7,0l1.62-1.62a.49.49,0,1,0-.7-.7Z"/><path class="cls-1" d="M317.53,122.85a.5.5,0,1,0-.5-.86l-2.63,1.51-4.22-1.13a.51.51,0,0,0-.62.36.5.5,0,0,0,.36.61l3.94,1-1.06,4a.5.5,0,0,0,.36.61l.13,0a.5.5,0,0,0,.48-.37l1.13-4.23Z"/><path class="cls-1" d="M312.94,124.93a.49.49,0,0,0-.68-.19l-3.65,2.11a.5.5,0,0,0,.25.93.45.45,0,0,0,.25-.07l3.65-2.1A.5.5,0,0,0,312.94,124.93Z"/><path class="cls-1" d="M311.2,127.39a.5.5,0,0,0-.61.35L310,130a.5.5,0,0,0,.35.61l.13,0a.5.5,0,0,0,.48-.37l.6-2.22A.5.5,0,0,0,311.2,127.39Z"/><path class="cls-1" d="M309.45,125.57a.51.51,0,0,0,.49-.37.5.5,0,0,0-.36-.61l-2.21-.6a.5.5,0,0,0-.61.36.5.5,0,0,0,.35.61l2.21.59Z"/><path class="cls-1" d="M319.83,120.37a.5.5,0,0,0,.25.93.54.54,0,0,0,.25-.06l2.63-1.52,4.22,1.13.13,0a.51.51,0,0,0,.49-.37.5.5,0,0,0-.36-.61l-3.94-1.06,1.06-3.94a.51.51,0,0,0-.36-.62.5.5,0,0,0-.61.36l-1.13,4.22Z"/><path class="cls-1" d="M324.42,118.3a.5.5,0,0,0,.43.25.45.45,0,0,0,.25-.07l3.65-2.1a.51.51,0,0,0,.18-.69.49.49,0,0,0-.68-.18l-3.65,2.11A.49.49,0,0,0,324.42,118.3Z"/><path class="cls-1" d="M326.16,115.83l.13,0a.5.5,0,0,0,.48-.37l.59-2.21a.51.51,0,0,0-.35-.62.5.5,0,0,0-.61.36l-.6,2.21A.5.5,0,0,0,326.16,115.83Z"/><path class="cls-1" d="M330.25,118.27l-2.21-.6a.51.51,0,0,0-.62.36.5.5,0,0,0,.36.61l2.21.59.13,0a.5.5,0,0,0,.48-.37A.49.49,0,0,0,330.25,118.27Z"/><path class="cls-1" d="M328.75,126.85l-3.65-2.11a.51.51,0,0,0-.68.19.5.5,0,0,0,.18.68l3.65,2.1a.45.45,0,0,0,.25.07.5.5,0,0,0,.25-.93Z"/><path class="cls-1" d="M323.5,124.39l3.94-1a.5.5,0,0,0,.36-.61.51.51,0,0,0-.62-.36L323,123.51,320.33,122a.5.5,0,0,0-.5.86l2.63,1.52,1.13,4.23a.5.5,0,0,0,.48.37l.13,0a.5.5,0,0,0,.36-.61Z"/><path class="cls-1" d="M330,124l-2.21.6a.5.5,0,0,0-.36.61.51.51,0,0,0,.49.37l.13,0,2.21-.59a.5.5,0,0,0,.35-.61A.5.5,0,0,0,330,124Z"/><path class="cls-1" d="M326.77,127.74a.5.5,0,0,0-1,.26l.6,2.22a.5.5,0,0,0,.48.37l.13,0a.5.5,0,0,0,.35-.61Z"/><path class="cls-1" d="M308.61,116.38l3.65,2.1a.45.45,0,0,0,.25.07.5.5,0,0,0,.25-.93l-3.65-2.11a.49.49,0,0,0-.68.18A.51.51,0,0,0,308.61,116.38Z"/><path class="cls-1" d="M313.86,118.83l-3.94,1.06a.5.5,0,0,0-.36.61.51.51,0,0,0,.49.37l.13,0,4.22-1.13,2.63,1.52a.54.54,0,0,0,.25.06.5.5,0,0,0,.25-.93l-2.63-1.52-1.13-4.22a.5.5,0,0,0-.61-.36.51.51,0,0,0-.36.62Z"/><path class="cls-1" d="M307.24,119.25l.13,0,2.21-.59a.5.5,0,0,0,.36-.61.51.51,0,0,0-.62-.36l-2.21.6a.49.49,0,0,0-.35.61A.5.5,0,0,0,307.24,119.25Z"/><path class="cls-1" d="M310.59,115.48a.5.5,0,0,0,.48.37l.13,0a.5.5,0,0,0,.36-.61L311,113a.5.5,0,0,0-.61-.36.51.51,0,0,0-.35.62Z"/><path class="cls-1" d="M14.49,116.61a1,1,0,0,0-.69,1,1.17,1.17,0,0,0,.31.79,1.57,1.57,0,0,0,.38.25,1.37,1.37,0,0,0,.42.06,1.09,1.09,0,0,0,.77-.31,1.19,1.19,0,0,0,.33-.79,1.13,1.13,0,0,0-.33-.78A1.12,1.12,0,0,0,14.49,116.61Z"/><path class="cls-1" d="M14.9,103.11A1.11,1.11,0,0,0,16,102V92.68a1.11,1.11,0,1,0-2.22,0V102A1.11,1.11,0,0,0,14.9,103.11Z"/><path class="cls-1" d="M13.79,107.48v6.71a1.11,1.11,0,0,0,2.22,0v-6.71l6.84-6.84a1.11,1.11,0,1,0-1.56-1.57l-6.39,6.39L8.51,99.07A1.11,1.11,0,1,0,7,100.64Z"/><path class="cls-1" d="M10.53,97.05a1.12,1.12,0,0,0,1.57,0,1.12,1.12,0,0,0,0-1.57L8.51,91.9A1.1,1.1,0,0,0,7,91.9a1.09,1.09,0,0,0,0,1.56Z"/><path class="cls-1" d="M18.49,97.37a1.09,1.09,0,0,0,.78-.32l3.58-3.59a1.09,1.09,0,0,0,0-1.56,1.1,1.1,0,0,0-1.56,0L17.7,95.48a1.12,1.12,0,0,0,0,1.57A1.09,1.09,0,0,0,18.49,97.37Z"/><path class="cls-1" d="M14.9,132.45a1.11,1.11,0,0,0-1.11,1.11v9.32a1.11,1.11,0,0,0,2.22,0v-9.32A1.11,1.11,0,0,0,14.9,132.45Z"/><path class="cls-1" d="M16,128.08v-6.71a1.11,1.11,0,0,0-2.22,0v6.71L7,134.92a1.1,1.1,0,0,0,0,1.57,1.11,1.11,0,0,0,1.56,0l6.39-6.39,6.39,6.39a1.11,1.11,0,0,0,1.56,0,1.1,1.1,0,0,0,0-1.57Z"/><path class="cls-1" d="M19.27,138.51a1.12,1.12,0,0,0-1.57,0,1.1,1.1,0,0,0,0,1.56l3.59,3.59a1.11,1.11,0,0,0,1.56,0,1.09,1.09,0,0,0,0-1.56Z"/><path class="cls-1" d="M10.53,138.51,7,142.1a1.09,1.09,0,0,0,0,1.56,1.11,1.11,0,0,0,1.56,0l3.59-3.59a1.1,1.1,0,0,0,0-1.56A1.12,1.12,0,0,0,10.53,138.51Z"/><path class="cls-1" d="M12.35,120.53a1.11,1.11,0,0,0-1.11-1.92L5.43,122l-9.35-2.51a1.12,1.12,0,0,0-1.36.79,1.1,1.1,0,0,0,.78,1.35l8.73,2.34-2.34,8.73A1.1,1.1,0,0,0,2.67,134a1,1,0,0,0,.29,0A1.11,1.11,0,0,0,4,133.24l2.51-9.35Z"/><path class="cls-1" d="M2.2,125.11a1.11,1.11,0,0,0-1.52-.4l-8.07,4.66a1.1,1.1,0,0,0-.4,1.51,1.09,1.09,0,0,0,1,.56,1.14,1.14,0,0,0,.55-.15l8.07-4.66A1.12,1.12,0,0,0,2.2,125.11Z"/><path class="cls-1" d="M17.45,115a1.1,1.1,0,0,0-.4,1.51,1.07,1.07,0,0,0,.95.55,1.14,1.14,0,0,0,.56-.14l5.81-3.36,9.35,2.51.29,0A1.1,1.1,0,0,0,34.3,114l-8.73-2.34,2.34-8.73a1.09,1.09,0,0,0-.79-1.35,1.11,1.11,0,0,0-1.35.78l-2.51,9.35Z"/><path class="cls-1" d="M27.6,110.44a1.11,1.11,0,0,0,1,.56,1.15,1.15,0,0,0,.56-.15l8.07-4.66a1.11,1.11,0,0,0-1.11-1.92L28,108.93A1.11,1.11,0,0,0,27.6,110.44Z"/><path class="cls-1" d="M31.45,105a1.43,1.43,0,0,0,.29,0,1.11,1.11,0,0,0,1.07-.82l1.31-4.89A1.11,1.11,0,0,0,32,98.73l-1.31,4.9A1.11,1.11,0,0,0,31.45,105Z"/><path class="cls-1" d="M40.51,110.37l-4.9-1.31A1.11,1.11,0,1,0,35,111.2l4.9,1.31a1.35,1.35,0,0,0,.28,0,1.11,1.11,0,0,0,.29-2.18Z"/><path class="cls-1" d="M37.19,129.37l-8.07-4.66A1.11,1.11,0,1,0,28,126.63l8.07,4.66a1.15,1.15,0,0,0,.56.15,1.08,1.08,0,0,0,1-.56A1.1,1.1,0,0,0,37.19,129.37Z"/><path class="cls-1" d="M25.57,123.94l8.73-2.34a1.11,1.11,0,0,0-.57-2.14L24.37,122l-5.81-3.36a1.11,1.11,0,0,0-1.11,1.92l5.81,3.36,2.51,9.35a1.11,1.11,0,0,0,1.07.82.9.9,0,0,0,.28,0,1.1,1.1,0,0,0,.79-1.35Z"/><path class="cls-1" d="M39.94,123.05,35,124.36a1.11,1.11,0,0,0,.28,2.18,1.45,1.45,0,0,0,.29,0l4.9-1.31a1.11,1.11,0,0,0-.57-2.14Z"/><path class="cls-1" d="M32.81,131.35a1.11,1.11,0,1,0-2.14.58l1.31,4.9a1.11,1.11,0,0,0,1.07.82,1.35,1.35,0,0,0,.28,0,1.11,1.11,0,0,0,.79-1.36Z"/><path class="cls-1" d="M-7.39,106.19l8.07,4.66a1.15,1.15,0,0,0,.56.15,1.11,1.11,0,0,0,.55-2.07l-8.07-4.66a1.11,1.11,0,0,0-1.51.41A1.1,1.1,0,0,0-7.39,106.19Z"/><path class="cls-1" d="M4.23,111.62-4.5,114a1.09,1.09,0,0,0-.78,1.35,1.1,1.1,0,0,0,1.07.82l.29,0,9.35-2.51L11.24,117a1.12,1.12,0,0,0,.55.14,1.08,1.08,0,0,0,1-.55,1.1,1.1,0,0,0-.4-1.51l-5.81-3.36L4,102.32a1.11,1.11,0,0,0-2.14.57Z"/><path class="cls-1" d="M395.75,89.93a1,1,0,0,0-.38.24,1.11,1.11,0,0,0-.31.77,1.2,1.2,0,0,0,.31.8,1.3,1.3,0,0,0,.38.24,1.12,1.12,0,0,0,.42.07,1.07,1.07,0,0,0,.77-.31,1.23,1.23,0,0,0,.34-.8,1.14,1.14,0,0,0-.34-.77A1.12,1.12,0,0,0,395.75,89.93Z"/><path class="cls-1" d="M396.16,76.43a1.11,1.11,0,0,0,1.11-1.11V66a1.11,1.11,0,1,0-2.21,0v9.32A1.11,1.11,0,0,0,396.16,76.43Z"/><path class="cls-1" d="M395.06,80.8v6.71a1.11,1.11,0,1,0,2.21,0V80.8L404.12,74a1.11,1.11,0,1,0-1.57-1.56l-6.39,6.38-6.39-6.38a1.09,1.09,0,0,0-1.56,0,1.1,1.1,0,0,0,0,1.56Z"/><path class="cls-1" d="M391.79,70.37a1.12,1.12,0,0,0,1.57,0,1.12,1.12,0,0,0,0-1.57l-3.59-3.58a1.09,1.09,0,0,0-1.56,0,1.1,1.1,0,0,0,0,1.56Z"/><path class="cls-1" d="M399.75,70.69a1.11,1.11,0,0,0,.78-.32l3.59-3.59a1.11,1.11,0,1,0-1.57-1.56L399,68.8a1.1,1.1,0,0,0,0,1.57A1.11,1.11,0,0,0,399.75,70.69Z"/><path class="cls-1" d="M396.16,105.77a1.1,1.1,0,0,0-1.1,1.1v9.32a1.11,1.11,0,1,0,2.21,0v-9.32A1.11,1.11,0,0,0,396.16,105.77Z"/><path class="cls-1" d="M397.27,101.39V94.68a1.11,1.11,0,1,0-2.21,0v6.71l-6.85,6.85a1.12,1.12,0,0,0,0,1.57,1.13,1.13,0,0,0,.78.32,1.1,1.1,0,0,0,.78-.32l6.39-6.39,6.39,6.39a1.12,1.12,0,0,0,1.57,0,1.12,1.12,0,0,0,0-1.57Z"/><path class="cls-1" d="M400.53,111.83a1.1,1.1,0,0,0-1.56,1.56l3.58,3.59a1.12,1.12,0,0,0,1.57,0,1.12,1.12,0,0,0,0-1.57Z"/><path class="cls-1" d="M391.79,111.83l-3.58,3.58a1.12,1.12,0,0,0,0,1.57,1.13,1.13,0,0,0,.78.32,1.1,1.1,0,0,0,.78-.32l3.59-3.59a1.11,1.11,0,1,0-1.57-1.56Z"/><path class="cls-1" d="M393.61,93.85a1.11,1.11,0,1,0-1.11-1.92l-5.81,3.36-9.35-2.51a1.11,1.11,0,0,0-1.36.78,1.12,1.12,0,0,0,.79,1.36l8.72,2.34L383.15,106a1.12,1.12,0,0,0,.79,1.36,1.35,1.35,0,0,0,.28,0,1.11,1.11,0,0,0,1.07-.82l2.51-9.36Z"/><path class="cls-1" d="M383.46,98.43A1.11,1.11,0,0,0,382,98l-8.08,4.67a1.1,1.1,0,0,0-.4,1.51,1.11,1.11,0,0,0,1,.55,1.08,1.08,0,0,0,.55-.15l8.07-4.66A1.1,1.1,0,0,0,383.46,98.43Z"/><path class="cls-1" d="M379.61,103.89a1.1,1.1,0,0,0-1.35.78l-1.32,4.9a1.11,1.11,0,0,0,.79,1.35.9.9,0,0,0,.28,0,1.1,1.1,0,0,0,1.07-.82l1.31-4.9A1.1,1.1,0,0,0,379.61,103.89Z"/><path class="cls-1" d="M375.74,99.85a1.1,1.1,0,0,0,.29-2.17l-4.9-1.31a1.1,1.1,0,1,0-.57,2.13l4.89,1.32Z"/><path class="cls-1" d="M398.71,88.34a1.11,1.11,0,0,0,.56,2.07,1.08,1.08,0,0,0,.55-.15l5.81-3.35,9.36,2.5a.9.9,0,0,0,.28,0,1.11,1.11,0,0,0,.29-2.18l-8.73-2.34,2.34-8.72a1.11,1.11,0,0,0-.78-1.36,1.13,1.13,0,0,0-1.36.79L404.53,85Z"/><path class="cls-1" d="M408.87,83.76a1.07,1.07,0,0,0,.95.55,1.14,1.14,0,0,0,.56-.14l8.07-4.66a1.12,1.12,0,0,0,.41-1.52,1.11,1.11,0,0,0-1.52-.4l-8.07,4.66A1.1,1.1,0,0,0,408.87,83.76Z"/><path class="cls-1" d="M412.71,78.3a1,1,0,0,0,.29,0,1.11,1.11,0,0,0,1.07-.82l1.31-4.9a1.11,1.11,0,0,0-2.14-.57L411.93,77A1.09,1.09,0,0,0,412.71,78.3Z"/><path class="cls-1" d="M421.77,83.69l-4.9-1.31a1.1,1.1,0,1,0-.57,2.13l4.9,1.32a1.33,1.33,0,0,0,.28,0,1.1,1.1,0,0,0,.29-2.17Z"/><path class="cls-1" d="M418.45,102.69,410.38,98a1.11,1.11,0,0,0-1.51.41,1.1,1.1,0,0,0,.4,1.51l8.07,4.66a1.15,1.15,0,0,0,.56.15,1.12,1.12,0,0,0,1-.55A1.11,1.11,0,0,0,418.45,102.69Z"/><path class="cls-1" d="M406.83,97.26l8.73-2.34a1.11,1.11,0,0,0-.57-2.14l-9.36,2.51-5.81-3.36a1.11,1.11,0,0,0-1.11,1.92l5.82,3.35,2.5,9.36a1.12,1.12,0,0,0,1.07.82,1.45,1.45,0,0,0,.29,0,1.11,1.11,0,0,0,.78-1.36Z"/><path class="cls-1" d="M421.2,96.37l-4.9,1.31a1.1,1.1,0,0,0,.29,2.17,1.33,1.33,0,0,0,.28,0l4.9-1.32a1.1,1.1,0,0,0-.57-2.13Z"/><path class="cls-1" d="M414.07,104.67a1.11,1.11,0,0,0-2.14.57l1.31,4.9a1.11,1.11,0,0,0,1.07.82,1,1,0,0,0,.29,0,1.09,1.09,0,0,0,.78-1.35Z"/><path class="cls-1" d="M373.87,79.51,382,84.17a1.07,1.07,0,0,0,.55.14,1.1,1.1,0,0,0,.55-2.06L375,77.59a1.1,1.1,0,0,0-1.51.4A1.11,1.11,0,0,0,373.87,79.51Z"/><path class="cls-1" d="M385.49,84.93l-8.72,2.34a1.11,1.11,0,0,0,.28,2.18,1,1,0,0,0,.29,0l9.35-2.51,5.81,3.36a1.15,1.15,0,0,0,.56.15,1.11,1.11,0,0,0,.55-2.07L387.8,85l-2.51-9.35a1.09,1.09,0,0,0-1.35-.79,1.12,1.12,0,0,0-.79,1.36Z"/><path class="cls-1" d="M370.84,85.86a1.43,1.43,0,0,0,.29,0l4.9-1.32a1.1,1.1,0,1,0-.58-2.13l-4.89,1.31a1.1,1.1,0,0,0,.28,2.17Z"/><path class="cls-1" d="M378.26,77.52a1.1,1.1,0,0,0,1.06.82.92.92,0,0,0,.29,0,1.09,1.09,0,0,0,.78-1.35l-1.31-4.9a1.1,1.1,0,0,0-1.35-.78,1.11,1.11,0,0,0-.79,1.35Z"/><path class="cls-1" d="M106.19,40.7a.81.81,0,0,0-.29.19.85.85,0,0,0-.24.59,1,1,0,0,0,.24.62,1.62,1.62,0,0,0,.29.19,1.13,1.13,0,0,0,.32.05.86.86,0,0,0,.6-.24,1,1,0,0,0,.26-.62.87.87,0,0,0-1.18-.78Z"/><path class="cls-1" d="M106.51,30.31a.86.86,0,0,0,.85-.86V22.28a.85.85,0,1,0-1.7,0v7.17A.86.86,0,0,0,106.51,30.31Z"/><path class="cls-1" d="M105.66,33.67v5.17a.85.85,0,0,0,1.7,0V33.67l5.27-5.27a.85.85,0,1,0-1.2-1.2l-4.92,4.91-4.92-4.91a.85.85,0,0,0-1.2,1.2Z"/><path class="cls-1" d="M103.15,25.64a.82.82,0,0,0,.6.25.83.83,0,0,0,.6-.25.86.86,0,0,0,0-1.21l-2.76-2.76a.85.85,0,0,0-1.2,1.21Z"/><path class="cls-1" d="M109.27,25.89a.82.82,0,0,0,.6-.25l2.76-2.76a.85.85,0,1,0-1.2-1.21l-2.76,2.76a.86.86,0,0,0,0,1.21A.82.82,0,0,0,109.27,25.89Z"/><path class="cls-1" d="M106.51,52.9a.85.85,0,0,0-.85.85v7.17a.85.85,0,1,0,1.7,0V53.75A.85.85,0,0,0,106.51,52.9Z"/><path class="cls-1" d="M107.36,49.53V44.36a.85.85,0,1,0-1.7,0v5.17l-5.27,5.27a.85.85,0,0,0,0,1.21.86.86,0,0,0,.6.25.87.87,0,0,0,.6-.25l4.92-4.92L111.43,56a.84.84,0,0,0,1.2,0,.85.85,0,0,0,0-1.21Z"/><path class="cls-1" d="M109.87,57.56a.85.85,0,0,0-1.2,0,.86.86,0,0,0,0,1.21l2.76,2.76a.84.84,0,0,0,1.2,0,.85.85,0,0,0,0-1.21Z"/><path class="cls-1" d="M103.15,57.56l-2.76,2.76a.85.85,0,0,0,0,1.21.86.86,0,0,0,.6.25.87.87,0,0,0,.6-.25l2.76-2.76a.86.86,0,0,0,0-1.21A.85.85,0,0,0,103.15,57.56Z"/><path class="cls-1" d="M104.55,43.72a.86.86,0,0,0-.86-1.48l-4.47,2.59L92,42.9a.85.85,0,1,0-.44,1.64l6.71,1.8-1.8,6.72a.86.86,0,0,0,.61,1,.78.78,0,0,0,.22,0,.85.85,0,0,0,.82-.63l1.93-7.2Z"/><path class="cls-1" d="M96.73,47.25a.85.85,0,0,0-1.17-.31l-6.21,3.58A.85.85,0,0,0,89,51.69a.84.84,0,0,0,.74.42A.8.8,0,0,0,90.2,52l6.22-3.59A.86.86,0,0,0,96.73,47.25Z"/><path class="cls-1" d="M93.77,51.45a.86.86,0,0,0-1,.6l-1,3.77a.86.86,0,0,0,.6,1,.91.91,0,0,0,.23,0,.86.86,0,0,0,.82-.64l1-3.77A.85.85,0,0,0,93.77,51.45Z"/><path class="cls-1" d="M90.79,48.34A.85.85,0,0,0,91,46.67l-3.78-1a.85.85,0,0,0-.44,1.64l3.77,1A.91.91,0,0,0,90.79,48.34Z"/><path class="cls-1" d="M108.47,39.48a.85.85,0,0,0,.43,1.59.86.86,0,0,0,.43-.11l4.47-2.59L121,40.3l.22,0a.86.86,0,0,0,.83-.63.85.85,0,0,0-.6-1l-6.72-1.8,1.8-6.72a.85.85,0,1,0-1.65-.44L113,36.9Z"/><path class="cls-1" d="M116.29,36a.85.85,0,0,0,.74.43.91.91,0,0,0,.42-.11l6.22-3.59a.85.85,0,0,0,.31-1.17.84.84,0,0,0-1.16-.31l-6.22,3.59A.84.84,0,0,0,116.29,36Z"/><path class="cls-1" d="M119.25,31.75l.22,0a.86.86,0,0,0,.83-.63l1-3.77a.85.85,0,1,0-1.65-.44l-1,3.77A.85.85,0,0,0,119.25,31.75Z"/><path class="cls-1" d="M126.23,35.9l-3.78-1a.85.85,0,0,0-.44,1.64l3.78,1a.78.78,0,0,0,.22,0,.85.85,0,0,0,.22-1.67Z"/><path class="cls-1" d="M123.67,50.52l-6.22-3.58a.85.85,0,0,0-.85,1.47L122.82,52a.8.8,0,0,0,.42.11.84.84,0,0,0,.74-.42A.85.85,0,0,0,123.67,50.52Z"/><path class="cls-1" d="M114.73,46.34l6.71-1.8A.85.85,0,1,0,121,42.9l-7.2,1.93-4.47-2.59a.86.86,0,1,0-.86,1.48L113,46.3l1.93,7.2a.85.85,0,0,0,.82.63.78.78,0,0,0,.22,0,.86.86,0,0,0,.61-1Z"/><path class="cls-1" d="M125.79,45.66l-3.78,1a.85.85,0,0,0,.22,1.67.78.78,0,0,0,.22,0l3.78-1a.85.85,0,1,0-.44-1.64Z"/><path class="cls-1" d="M120.3,52.05a.87.87,0,0,0-1-.6.85.85,0,0,0-.6,1l1,3.77a.85.85,0,0,0,.82.64.78.78,0,0,0,.22,0,.86.86,0,0,0,.61-1Z"/><path class="cls-1" d="M89.35,32.68l6.21,3.59a1,1,0,0,0,.43.11.85.85,0,0,0,.43-1.59L90.2,31.2a.85.85,0,0,0-.85,1.48Z"/><path class="cls-1" d="M98.29,36.86l-6.71,1.8a.85.85,0,0,0,.21,1.67.91.91,0,0,0,.23,0l7.2-1.93L103.69,41a.84.84,0,0,0,.43.11.85.85,0,0,0,.43-1.59l-4.48-2.58-1.93-7.2a.85.85,0,0,0-1-.61.86.86,0,0,0-.61,1.05Z"/><path class="cls-1" d="M87,37.57a.78.78,0,0,0,.22,0l3.78-1a.85.85,0,1,0-.45-1.64l-3.77,1A.85.85,0,0,0,87,37.57Z"/><path class="cls-1" d="M92.72,31.15a.85.85,0,0,0,.82.63.91.91,0,0,0,.23,0,.85.85,0,0,0,.6-1l-1-3.77a.85.85,0,1,0-1.65.44Z"/><path class="cls-1" d="M241.89,137.85a.85.85,0,0,0,.86-.85v-7.18a.86.86,0,0,0-1.71,0V137A.85.85,0,0,0,241.89,137.85Z"/><path class="cls-1" d="M241,141.21v5.17a.86.86,0,0,0,1.71,0v-5.17l5.27-5.27a.85.85,0,1,0-1.21-1.2l-4.92,4.92L237,134.74a.85.85,0,1,0-1.21,1.2Z"/><path class="cls-1" d="M238.53,133.18a.85.85,0,0,0,1.21-1.2L237,129.22a.85.85,0,1,0-1.21,1.2Z"/><path class="cls-1" d="M244.66,133.43a.85.85,0,0,0,.6-.25l2.76-2.76a.85.85,0,1,0-1.21-1.2L244.05,132a.85.85,0,0,0,.61,1.45Z"/><path class="cls-1" d="M243.86,147a.85.85,0,0,0-.31,1.17.84.84,0,0,0,.73.42.81.81,0,0,0,.43-.11l4.48-2.58,7.2,1.93a.83.83,0,0,0,.22,0,.86.86,0,0,0,.22-1.68l-6.72-1.8,1.8-6.72a.85.85,0,0,0-1.65-.44l-1.93,7.2Z"/><path class="cls-1" d="M251.68,143.5a.84.84,0,0,0,.73.42,1,1,0,0,0,.43-.11l6.22-3.59a.86.86,0,0,0-.86-1.48L252,142.33A.85.85,0,0,0,251.68,143.5Z"/><path class="cls-1" d="M254.64,139.29a.78.78,0,0,0,.22,0,.85.85,0,0,0,.82-.63l1-3.77a.85.85,0,0,0-.6-1,.86.86,0,0,0-1,.6l-1,3.77A.85.85,0,0,0,254.64,139.29Z"/><path class="cls-1" d="M224.73,140.22l6.22,3.59a.91.91,0,0,0,.42.11.84.84,0,0,0,.74-.42.85.85,0,0,0-.31-1.17l-6.21-3.59a.86.86,0,0,0-.86,1.48Z"/><path class="cls-1" d="M233.68,144.4,227,146.2a.86.86,0,0,0,.22,1.68.83.83,0,0,0,.22,0l7.2-1.93,4.48,2.58a.8.8,0,0,0,.42.11.85.85,0,0,0,.43-1.59l-4.48-2.58-1.93-7.2a.83.83,0,0,0-1-.6.85.85,0,0,0-.6,1Z"/><path class="cls-1" d="M228.11,138.69a.84.84,0,0,0,.82.63.85.85,0,0,0,.82-1.07l-1-3.77a.84.84,0,0,0-1-.6.85.85,0,0,0-.6,1Z"/><path class="cls-1" d="M245.72,7a1,1,0,0,0-.29.19.83.83,0,0,0-.24.6.89.89,0,0,0,.24.61,1,1,0,0,0,.29.19,1.07,1.07,0,0,0,.32,0,.89.89,0,0,0,.6-.24,1,1,0,0,0,.25-.61A.85.85,0,0,0,245.72,7Z"/><path class="cls-1" d="M245.18,0V5.18a.86.86,0,1,0,1.71,0V0l5.27-5.28a.85.85,0,0,0,0-1.2.86.86,0,0,0-1.21,0L246-1.54l-4.92-4.92a.86.86,0,0,0-1.21,0,.85.85,0,0,0,0,1.2Z"/><path class="cls-1" d="M246,19.24a.86.86,0,0,0-.86.85v7.18a.86.86,0,0,0,.86.85.85.85,0,0,0,.85-.85V20.09A.85.85,0,0,0,246,19.24Z"/><path class="cls-1" d="M246.89,15.87V10.7a.85.85,0,0,0-.85-.85.86.86,0,0,0-.86.85v5.17l-5.27,5.27a.86.86,0,0,0,.61,1.46.85.85,0,0,0,.6-.25L246,17.43,251,22.35a.86.86,0,1,0,1.21-1.21Z"/><path class="cls-1" d="M249.4,23.9a.85.85,0,0,0-1.2,1.21L251,27.87a.85.85,0,1,0,1.21-1.2Z"/><path class="cls-1" d="M242.67,23.9l-2.76,2.77a.85.85,0,0,0,1.21,1.2l2.76-2.76a.86.86,0,0,0-1.21-1.21Z"/><path class="cls-1" d="M244.07,10.06a.85.85,0,0,0-.85-1.47l-4.48,2.58-7.2-1.93a.85.85,0,0,0-.44,1.65l6.72,1.8L236,19.41a.85.85,0,0,0,.6,1l.22,0a.86.86,0,0,0,.83-.63l1.93-7.2Z"/><path class="cls-1" d="M236.26,13.59a.85.85,0,0,0-1.17-.31l-6.22,3.59a.85.85,0,0,0,.43,1.59.85.85,0,0,0,.43-.12l6.21-3.58A.86.86,0,0,0,236.26,13.59Z"/><path class="cls-1" d="M233.29,17.79a.85.85,0,0,0-1,.61l-1,3.77a.85.85,0,0,0,.6,1l.22,0a.84.84,0,0,0,.82-.63l1-3.77A.86.86,0,0,0,233.29,17.79Z"/><path class="cls-1" d="M230.31,14.69a.86.86,0,0,0,.22-1.68l-3.77-1a.85.85,0,0,0-.44,1.65l3.77,1Z"/><path class="cls-1" d="M248,5.83A.84.84,0,0,0,247.69,7a.86.86,0,0,0,.74.43.81.81,0,0,0,.42-.12l4.48-2.58,7.2,1.93a.83.83,0,0,0,.22,0A.86.86,0,0,0,261,5l-6.72-1.8,1.8-6.72a.85.85,0,0,0-.6-1,.87.87,0,0,0-1,.6l-1.92,7.2Z"/><path class="cls-1" d="M255.82,2.3a.84.84,0,0,0,.73.42.81.81,0,0,0,.43-.11L263.2-1a.86.86,0,0,0,.31-1.16.85.85,0,0,0-1.16-.32l-6.22,3.59A.85.85,0,0,0,255.82,2.3Z"/><path class="cls-1" d="M265.75,2.24l-3.77-1a.85.85,0,0,0-1,.6.86.86,0,0,0,.6,1l3.77,1,.22,0a.87.87,0,0,0,.83-.64A.85.85,0,0,0,265.75,2.24Z"/><path class="cls-1" d="M263.2,16.87,257,13.28a.85.85,0,0,0-.85,1.48l6.22,3.58a.81.81,0,0,0,.42.12.85.85,0,0,0,.43-1.59Z"/><path class="cls-1" d="M254.25,12.69l6.72-1.8a.84.84,0,0,0,.6-1.05.85.85,0,0,0-1-.6l-7.2,1.93-4.48-2.58a.85.85,0,1,0-.85,1.47l4.48,2.59,1.92,7.2a.86.86,0,0,0,.83.63l.22,0a.85.85,0,0,0,.6-1Z"/><path class="cls-1" d="M265.31,12l-3.77,1a.86.86,0,0,0-.6,1.05.84.84,0,0,0,.82.63.83.83,0,0,0,.22,0l3.77-1a.86.86,0,0,0,.61-1.05A.87.87,0,0,0,265.31,12Z"/><path class="cls-1" d="M259.82,18.4a.85.85,0,1,0-1.64.44l1,3.77a.84.84,0,0,0,.82.63.85.85,0,0,0,.82-1.07Z"/><path class="cls-1" d="M228.87-1l6.22,3.59a.81.81,0,0,0,.43.11.86.86,0,0,0,.74-.42.86.86,0,0,0-.32-1.17l-6.21-3.59a.86.86,0,0,0-1.17.32A.86.86,0,0,0,228.87-1Z"/><path class="cls-1" d="M237.82,3.2,231.1,5a.86.86,0,0,0,.22,1.68.83.83,0,0,0,.22,0l7.2-1.93,4.48,2.58a.81.81,0,0,0,.42.12.85.85,0,0,0,.74-.43.84.84,0,0,0-.31-1.16L239.6,3.24,237.67-4a.86.86,0,0,0-1-.6.85.85,0,0,0-.6,1Z"/><path class="cls-1" d="M226.54,3.92a.83.83,0,0,0,.22,0l3.77-1a.85.85,0,0,0-.44-1.65l-3.77,1a.86.86,0,0,0,.22,1.68Z"/><path class="cls-1" d="M302.14,55.71a.81.81,0,0,0-.29.19.85.85,0,0,0-.24.59,1,1,0,0,0,.24.62,1.6,1.6,0,0,0,.29.18.88.88,0,0,0,.33.05.84.84,0,0,0,.59-.23.93.93,0,0,0,.26-.62.83.83,0,0,0-.26-.59A.87.87,0,0,0,302.14,55.71Z"/><path class="cls-1" d="M302.46,45.31a.85.85,0,0,0,.85-.85V37.29a.85.85,0,1,0-1.7,0v7.17A.85.85,0,0,0,302.46,45.31Z"/><path class="cls-1" d="M301.61,48.68v5.17a.85.85,0,1,0,1.7,0V48.68l5.27-5.27a.85.85,0,1,0-1.2-1.21l-4.92,4.92-4.92-4.92a.85.85,0,0,0-1.2,1.21Z"/><path class="cls-1" d="M299.1,40.65a.84.84,0,0,0,1.2,0,.85.85,0,0,0,0-1.21l-2.76-2.76a.85.85,0,1,0-1.2,1.21Z"/><path class="cls-1" d="M305.22,40.9a.86.86,0,0,0,.6-.25l2.76-2.76a.85.85,0,1,0-1.2-1.21l-2.76,2.76a.86.86,0,0,0,0,1.21A.87.87,0,0,0,305.22,40.9Z"/><path class="cls-1" d="M302.46,67.9a.85.85,0,0,0-.85.86v7.17a.85.85,0,1,0,1.7,0V68.76A.85.85,0,0,0,302.46,67.9Z"/><path class="cls-1" d="M303.31,64.54V59.37a.85.85,0,1,0-1.7,0v5.17l-5.27,5.27a.83.83,0,0,0,0,1.2.85.85,0,0,0,1.2,0l4.92-4.91L307.38,71a.83.83,0,0,0,.6.25.82.82,0,0,0,.6-.25.83.83,0,0,0,0-1.2Z"/><path class="cls-1" d="M305.82,72.57a.85.85,0,0,0-1.2,1.2l2.76,2.77a.87.87,0,0,0,.6.25.86.86,0,0,0,.6-.25.85.85,0,0,0,0-1.21Z"/><path class="cls-1" d="M299.1,72.57l-2.76,2.76a.85.85,0,0,0,0,1.21.85.85,0,0,0,1.2,0l2.76-2.77a.83.83,0,0,0,0-1.2A.85.85,0,0,0,299.1,72.57Z"/><path class="cls-1" d="M300.5,58.73a.87.87,0,0,0,.31-1.17.85.85,0,0,0-1.17-.31l-4.47,2.59L288,57.91a.85.85,0,1,0-.44,1.64l6.72,1.8-1.8,6.72a.85.85,0,0,0,.82,1.07.84.84,0,0,0,.82-.63l1.93-7.2Z"/><path class="cls-1" d="M292.68,62.26a.86.86,0,0,0-1.16-.32l-6.22,3.59a.85.85,0,0,0,.43,1.59.8.8,0,0,0,.42-.11l6.22-3.59A.84.84,0,0,0,292.68,62.26Z"/><path class="cls-1" d="M289.72,66.46a.87.87,0,0,0-1.05.6l-1,3.77a.86.86,0,0,0,.61,1,.78.78,0,0,0,.22,0,.85.85,0,0,0,.82-.63l1-3.77A.85.85,0,0,0,289.72,66.46Z"/><path class="cls-1" d="M286.74,63.35a.85.85,0,0,0,.22-1.67l-3.77-1a.85.85,0,1,0-.45,1.64l3.78,1A.78.78,0,0,0,286.74,63.35Z"/><path class="cls-1" d="M304.42,54.49a.85.85,0,0,0,.43,1.59,1,1,0,0,0,.43-.11l4.47-2.59,7.2,1.93a.91.91,0,0,0,.23,0,.85.85,0,0,0,.22-1.67l-6.72-1.8,1.8-6.72a.85.85,0,1,0-1.65-.44l-1.93,7.2Z"/><path class="cls-1" d="M312.24,51a.85.85,0,0,0,.74.43.88.88,0,0,0,.43-.12l6.21-3.58a.85.85,0,0,0,.31-1.17.84.84,0,0,0-1.16-.31l-6.22,3.59A.86.86,0,0,0,312.24,51Z"/><path class="cls-1" d="M315.2,46.76l.22,0a.86.86,0,0,0,.83-.63l1-3.77a.85.85,0,1,0-1.65-.44l-1,3.77A.85.85,0,0,0,315.2,46.76Z"/><path class="cls-1" d="M322.18,50.91l-3.77-1a.85.85,0,1,0-.44,1.64l3.77,1a.78.78,0,0,0,.22,0,.85.85,0,0,0,.22-1.67Z"/><path class="cls-1" d="M319.62,65.53l-6.21-3.59a.86.86,0,0,0-.86,1.48L318.77,67a.81.81,0,0,0,.43.11.84.84,0,0,0,.73-.42A.85.85,0,0,0,319.62,65.53Z"/><path class="cls-1" d="M310.68,61.35l6.71-1.8a.85.85,0,0,0,.61-1,.84.84,0,0,0-1-.6l-7.21,1.93-4.47-2.59a.86.86,0,0,0-.86,1.48l4.48,2.58,1.93,7.2a.85.85,0,0,0,.82.63.78.78,0,0,0,.22,0,.85.85,0,0,0,.61-1Z"/><path class="cls-1" d="M321.74,60.67l-3.77,1a.85.85,0,0,0,.22,1.67l.22,0,3.77-1a.85.85,0,1,0-.44-1.64Z"/><path class="cls-1" d="M316.25,67.06a.85.85,0,0,0-1.65.44l1,3.77a.85.85,0,0,0,.82.63.78.78,0,0,0,.22,0,.86.86,0,0,0,.61-1Z"/><path class="cls-1" d="M285.3,47.69l6.22,3.58a.81.81,0,0,0,.42.12.86.86,0,0,0,.74-.43.84.84,0,0,0-.31-1.16l-6.22-3.59a.84.84,0,0,0-1.16.31A.85.85,0,0,0,285.3,47.69Z"/><path class="cls-1" d="M294.25,51.87l-6.72,1.8a.85.85,0,0,0-.61,1,.86.86,0,0,0,.83.63l.22,0,7.2-1.93L299.64,56a1,1,0,0,0,.43.11.85.85,0,0,0,.43-1.59L296,51.91l-1.93-7.2a.85.85,0,1,0-1.64.44Z"/><path class="cls-1" d="M283,52.58a.91.91,0,0,0,.23,0l3.77-1a.85.85,0,1,0-.44-1.64l-3.78,1a.85.85,0,0,0,.22,1.67Z"/><path class="cls-1" d="M288.67,46.16a.86.86,0,0,0,.83.63l.22,0a.85.85,0,0,0,.6-1l-1-3.77a.85.85,0,1,0-1.65.44Z"/></svg>