<?xml version="1.0" encoding="utf-8"?>
<!-- Generator: Adobe Illustrator 25.4.1, SVG Export Plug-In . SVG Version: 6.00 Build 0)  -->
<svg version="1.1" id="Layer_1" xmlns="http://www.w3.org/2000/svg" xmlns:xlink="http://www.w3.org/1999/xlink" x="0px" y="0px"
	 viewBox="0 0 480 126.5" style="enable-background:new 0 0 480 126.5;" xml:space="preserve">
<style type="text/css">
	.st0{opacity:0.6;enable-background:new    ;}
</style>
<g class="st0">
	<path d="M143.9,85.9l-18.9-48.7h7l12.7,35.4c1,2.8,1.9,5.5,2.6,8c0.8-2.7,1.6-5.3,2.6-8L163,37.2h6.6l-19.1,48.7H143.9z"/>
	<path d="M173.4,44.1v-6.9h6v6.9H173.4z M173.4,85.9V50.6h6v35.3H173.4z"/>
	<path d="M212.6,74.5l6.2,0.8c-1,3.6-2.8,6.4-5.4,8.4c-2.6,2-6,3-10.1,3c-5.2,0-9.2-1.6-12.3-4.8c-3-3.2-4.5-7.6-4.5-13.4
		c0-5.9,1.5-10.5,4.6-13.8c3.1-3.3,7-4.9,11.9-4.9c4.7,0,8.6,1.6,11.6,4.8c3,3.2,4.5,7.7,4.5,13.5c0,0.4,0,0.9,0,1.6h-26.3
		c0.2,3.9,1.3,6.8,3.3,8.9c2,2.1,4.4,3.1,7.4,3.1c2.2,0,4.1-0.6,5.6-1.7C210.5,78.9,211.7,77,212.6,74.5z M193,64.8h19.7
		c-0.3-3-1-5.2-2.3-6.7c-1.9-2.3-4.4-3.5-7.4-3.5c-2.7,0-5.1,0.9-6.9,2.8C194.2,59.3,193.2,61.8,193,64.8z"/>
	<path d="M232.8,85.9L222,50.6h6.2l5.6,20.4l2.1,7.6c0.1-0.4,0.7-2.8,1.8-7.3l5.6-20.7h6.1l5.3,20.5l1.8,6.7l2-6.8l6-20.4h5.8
		l-11,35.3h-6.2l-5.6-21.1l-1.4-6L239,85.9H232.8z"/>
	<path d="M294.3,44.1v-6.9h6v6.9H294.3z M294.3,85.9V50.6h6v35.3H294.3z"/>
	<path d="M309.4,85.9V50.6h5.4v5c2.6-3.9,6.3-5.8,11.2-5.8c2.1,0,4.1,0.4,5.9,1.1c1.8,0.8,3.1,1.8,4,3c0.9,1.2,1.5,2.7,1.9,4.4
		c0.2,1.1,0.3,3,0.3,5.8v21.7h-6V64.4c0-2.4-0.2-4.3-0.7-5.5c-0.5-1.2-1.3-2.2-2.5-2.9c-1.2-0.7-2.6-1.1-4.2-1.1
		c-2.5,0-4.7,0.8-6.6,2.4c-1.8,1.6-2.8,4.7-2.8,9.2v19.3H309.4z"/>
	<path d="M364.5,73l6-0.8c0.7,3.4,1.9,5.8,3.5,7.3c1.6,1.5,3.7,2.2,6,2.2c2.8,0,5.2-1,7.1-2.9c1.9-1.9,2.9-4.4,2.9-7.2
		c0-2.7-0.9-5-2.7-6.8c-1.8-1.8-4.1-2.7-6.8-2.7c-1.1,0-2.5,0.2-4.2,0.7l0.7-5.2c0.4,0,0.7,0.1,1,0.1c2.5,0,4.8-0.7,6.9-2
		c2-1.3,3.1-3.4,3.1-6.1c0-2.2-0.7-4-2.2-5.4c-1.5-1.4-3.4-2.2-5.7-2.2c-2.3,0-4.3,0.7-5.8,2.2c-1.5,1.5-2.5,3.7-3,6.6l-6-1.1
		c0.7-4,2.4-7.1,5-9.3c2.6-2.2,5.8-3.3,9.7-3.3c2.7,0,5.1,0.6,7.3,1.7c2.2,1.1,3.9,2.7,5.1,4.7c1.2,2,1.8,4.1,1.8,6.3
		c0,2.1-0.6,4-1.7,5.7s-2.8,3.1-5,4.1c2.9,0.7,5.1,2,6.7,4.1s2.4,4.7,2.4,7.9c0,4.2-1.5,7.9-4.6,10.8c-3.1,3-7,4.4-11.8,4.4
		c-4.3,0-7.8-1.3-10.6-3.8C366.5,80.4,364.9,77.1,364.5,73z"/>
	<path d="M404.7,85.9V37.2h16.8c3.8,0,6.7,0.2,8.7,0.7c2.8,0.6,5.2,1.8,7.1,3.5c2.6,2.2,4.5,4.9,5.8,8.3c1.3,3.4,1.9,7.2,1.9,11.6
		c0,3.7-0.4,7-1.3,9.8s-2,5.2-3.3,7.1c-1.4,1.9-2.8,3.3-4.4,4.4c-1.6,1.1-3.5,1.9-5.8,2.4c-2.3,0.6-4.9,0.8-7.8,0.8H404.7z
		 M411.1,80.1h10.4c3.2,0,5.7-0.3,7.6-0.9s3.3-1.4,4.4-2.5c1.5-1.5,2.7-3.6,3.6-6.2c0.9-2.6,1.3-5.7,1.3-9.4c0-5.1-0.8-9-2.5-11.7
		c-1.7-2.7-3.7-4.6-6.1-5.5c-1.7-0.7-4.5-1-8.3-1h-10.2V80.1z"/>
</g>
<path class="st0" d="M100.2,85.3c0.1-0.1,0.1-0.2,0.2-0.3c0-0.1,0.1-0.2,0.1-0.4c0-0.1,0-0.1,0-0.2V74.1l0,0V42.4v-0.1
	c0-0.1,0-0.2,0-0.2c0-0.1,0-0.2-0.1-0.2c0-0.1-0.1-0.1-0.1-0.2v-0.1l-0.1-0.1c0-0.1-0.1-0.1-0.1-0.2c-0.1-0.1-0.1-0.1-0.2-0.2
	C99.8,41,99.8,41,99.7,41c0,0,0-0.1-0.1-0.1L89,34.8l-25.8-15c-0.6-0.3-1.3-0.3-1.8,0L35.6,34.7L25,40.8l-0.1,0.1
	c-0.1,0-0.1,0.1-0.2,0.1c-0.1,0.1-0.1,0.1-0.2,0.2c-0.1,0.1-0.1,0.1-0.1,0.2l-0.1,0.1v0.1c0,0.1-0.1,0.1-0.1,0.2
	c0,0.1-0.1,0.2-0.1,0.2c0,0.1,0,0.2,0,0.2v0.1v29.8v0.3v11.9c0,0.1,0,0.1,0,0.2s0,0.3,0.1,0.4c0,0.1,0.1,0.2,0.1,0.3
	c0.1,0.1,0.1,0.2,0.2,0.3c0.1,0.1,0.2,0.2,0.3,0.2c0.1,0,0.1,0.1,0.2,0.2l25.7,14.9l10.7,6.2c0,0,0.1,0,0.1,0.1c0,0,0.1,0,0.1,0.1
	c0.2,0.1,0.4,0.1,0.6,0.1c0.2,0,0.4-0.1,0.6-0.1c0.1,0,0.1,0,0.1-0.1c0,0,0.1,0,0.1-0.1l25.7-14.9L99.6,86c0.1,0,0.1-0.1,0.2-0.1
	c0.1-0.1,0.2-0.2,0.3-0.3C100.1,85.5,100.1,85.4,100.2,85.3z M87.1,89L87.1,89L87.1,89l-23,13.3v-7.2v-1.9V64.5L89,50.1l7.9-4.5
	v26.6l0,0v11.2L87.1,89z M52.6,97.7L27.7,83.4V72.5v-0.3V45.5l7.9,4.5l24.9,14.4v28.8v1.9v7.2L52.6,97.7z M62.3,23.5l24.8,14.3l0,0
	l0,0l7.9,4.6l-7.9,4.5l0,0l0,0L62.3,61.3L37.4,46.9l0,0l-7.8-4.5l7.9-4.5L62.3,23.5z"/>
</svg>
