<?xml version="1.0" encoding="utf-8"?>
<!-- Generator: Adobe Illustrator 25.4.1, SVG Export Plug-In . SVG Version: 6.00 Build 0)  -->
<svg version="1.1" id="Layer_1" xmlns="http://www.w3.org/2000/svg" xmlns:xlink="http://www.w3.org/1999/xlink" x="0px" y="0px"
	 viewBox="0 0 480 126.5" style="enable-background:new 0 0 480 126.5;" xml:space="preserve">
<style type="text/css">
	.st0{opacity:0.6;}
	.st1{opacity:0.2;}
	.st2{clip-path:url(#SVGID_00000072970372989590796710000002084813141015606958_);}
	.st3{clip-path:url(#SVGID_00000067213644043120653400000005792122222916454793_);}
	.st4{clip-path:url(#SVGID_00000013151466698201039520000015658824770580171152_);}
	.st5{clip-path:url(#SVGID_00000039813376210772504810000016801967756029322402_);}
	.st6{clip-path:url(#SVGID_00000033333969449966692500000008774534432572100759_);}
	.st7{clip-path:url(#SVGID_00000063618615785954252350000005111208398046976162_);}
	.st8{clip-path:url(#SVGID_00000034778985712884672030000005934747697785142670_);}
	.st9{clip-path:url(#SVGID_00000181063586508288276850000006462986255852982421_);}
	.st10{clip-path:url(#SVGID_00000080912279358664209100000005208854748364460160_);}
	.st11{opacity:0.6;enable-background:new    ;}
</style>
<g>
	<g class="st0">
		<g>
			<path d="M72.9,29.4c-0.3,0-0.6-0.1-0.9-0.2l-9.7-5.6l-9.7,5.6c-0.9,0.5-2,0.2-2.5-0.7c-0.5-0.9-0.2-2,0.7-2.5l10.6-6.1
				c0.6-0.3,1.3-0.3,1.8,0L73.8,26c0.9,0.5,1.2,1.6,0.7,2.5C74.1,29,73.5,29.4,72.9,29.4"/>
			<path d="M62.3,77.6c-1,0-1.8-0.8-1.8-1.8V63.5c0-1,0.8-1.8,1.8-1.8s1.8,0.8,1.8,1.8v12.3C64.1,76.8,63.3,77.6,62.3,77.6"/>
			<path d="M25.8,56.6c-1,0-1.8-0.8-1.8-1.8V42.4c0-1,0.8-1.8,1.8-1.8s1.8,0.8,1.8,1.8v12.3C27.6,55.7,26.8,56.6,25.8,56.6"/>
			<path d="M98.7,56.6c-1,0-1.8-0.8-1.8-1.8V42.5c0-1,0.8-1.8,1.8-1.8s1.8,0.8,1.8,1.8v12.3C100.5,55.7,99.7,56.6,98.7,56.6"/>
			<path d="M98.7,86.4c-1,0-1.8-0.8-1.8-1.8V72.3c0-1,0.8-1.8,1.8-1.8l0,0c1,0,1.8,0.8,1.8,1.8v12.3C100.6,85.6,99.7,86.4,98.7,86.4
				L98.7,86.4z"/>
			<path d="M25.8,86.4c-1,0-1.8-0.8-1.8-1.8V72.3c0-1,0.8-1.8,1.8-1.8s1.8,0.8,1.8,1.8v12.3C27.6,85.6,26.8,86.4,25.8,86.4"/>
			<path d="M62.3,36.6c-1,0-1.8-0.8-1.8-1.8V21.4c0-1,0.8-1.8,1.8-1.8s1.8,0.8,1.8,1.8v13.4C64.1,35.8,63.3,36.6,62.3,36.6"/>
			<path d="M62.3,107.5c-1,0-1.8-0.8-1.8-1.8V93.4c0-1,0.8-1.8,1.8-1.8s1.8,0.8,1.8,1.8v12.3C64.1,106.7,63.3,107.5,62.3,107.5"/>
			<path d="M62.3,107.5c-0.3,0-0.6-0.1-0.9-0.2l-10.7-6.2c-0.9-0.5-1.2-1.6-0.7-2.5s1.6-1.2,2.5-0.7l9.8,5.7l9.6-5.6
				c0.9-0.5,2-0.2,2.5,0.7s0.2,2-0.7,2.5l-10.6,6.1C62.9,107.5,62.6,107.5,62.3,107.5"/>
			<path d="M62.3,65.4c-0.3,0-0.6-0.1-0.9-0.2L50.7,59c-0.9-0.5-1.2-1.6-0.7-2.5s1.6-1.2,2.5-0.7l9.7,5.6l9.7-5.6
				c0.9-0.5,2-0.2,2.5,0.7s0.2,2-0.7,2.5l-10.6,6.1C62.9,65.3,62.6,65.4,62.3,65.4"/>
			<path d="M88.1,50.4c-0.6,0-1.2-0.3-1.6-0.9c-0.5-0.9-0.2-2,0.7-2.5l10.6-6.1c0.9-0.5,2-0.2,2.5,0.7s0.2,2-0.7,2.5L89,50.2
				C88.7,50.3,88.4,50.4,88.1,50.4"/>
			<path d="M98.7,44.3c-0.3,0-0.6-0.1-0.9-0.2L87.2,38c-0.9-0.5-1.2-1.6-0.7-2.5s1.6-1.2,2.5-0.7l10.6,6.1c0.9,0.5,1.2,1.6,0.7,2.5
				C100,43.9,99.3,44.3,98.7,44.3"/>
			<path d="M36.4,50.4c-0.3,0-0.6-0.1-0.9-0.2L24.9,44c-0.9-0.5-1.2-1.6-0.7-2.5s1.6-1.2,2.5-0.7L37.3,47c0.9,0.5,1.2,1.6,0.7,2.5
				C37.7,50.1,37.1,50.4,36.4,50.4"/>
			<path d="M25.8,44.3c-0.6,0-1.2-0.3-1.6-0.9c-0.5-0.9-0.2-2,0.7-2.5l10.6-6.1c0.9-0.5,2-0.2,2.5,0.7s0.2,2-0.7,2.5l-10.6,6
				C26.4,44.2,26.1,44.3,25.8,44.3"/>
			<path d="M88.1,92.6c-0.6,0-1.2-0.3-1.6-0.9c-0.5-0.9-0.2-2,0.7-2.5L97.8,83c0.9-0.5,2-0.2,2.5,0.7c0.5,0.9,0.2,2-0.7,2.5L89,92.3
				C88.7,92.5,88.4,92.6,88.1,92.6"/>
			<path d="M98.7,86.4c-0.3,0-0.6-0.1-0.9-0.2L87.2,80c-0.9-0.5-1.2-1.6-0.7-2.5s1.6-1.2,2.5-0.7L99.6,83c0.9,0.5,1.2,1.6,0.7,2.5
				C100,86.1,99.4,86.4,98.7,86.4"/>
			<path d="M36.4,92.6c-0.3,0-0.6-0.1-0.9-0.2l-10.6-6.2c-0.9-0.5-1.2-1.6-0.7-2.5s1.6-1.2,2.5-0.7l10.6,6.2
				c0.9,0.5,1.2,1.6,0.7,2.5C37.7,92.3,37.1,92.6,36.4,92.6"/>
			<path d="M25.8,86.4c-0.6,0-1.2-0.3-1.6-0.9c-0.5-0.9-0.2-2,0.7-2.5l10.6-6.1c0.9-0.5,2-0.2,2.5,0.7c0.5,0.9,0.2,2-0.7,2.5
				l-10.6,6.1C26.4,86.4,26.1,86.4,25.8,86.4"/>
			<g class="st1">
				<g>
					<g>
						<defs>
							<rect id="SVGID_1_" x="24.8" y="20.3" width="38.6" height="23.1"/>
						</defs>
						<clipPath id="SVGID_00000060715505137404639730000007160000051403456434_">
							<use xlink:href="#SVGID_1_"  style="overflow:visible;"/>
						</clipPath>
						<path style="clip-path:url(#SVGID_00000060715505137404639730000007160000051403456434_);" d="M25.8,43.5
							c-0.4,0-0.7-0.2-0.9-0.5c-0.3-0.5-0.1-1.1,0.4-1.4l36.5-21.1c0.5-0.3,1.1-0.1,1.4,0.4c0.3,0.5,0.1,1.1-0.4,1.4l-36.5,21
							C26.2,43.4,26,43.5,25.8,43.5"/>
					</g>
				</g>
			</g>
			<g class="st1">
				<g>
					<g>
						<defs>
							<rect id="SVGID_00000134946311500229366360000018417070257031564945_" x="24.8" y="41.4" width="75" height="44.3"/>
						</defs>
						<clipPath id="SVGID_00000158737695583749548810000006251503522825310870_">
							<use xlink:href="#SVGID_00000134946311500229366360000018417070257031564945_"  style="overflow:visible;"/>
						</clipPath>
						<path style="clip-path:url(#SVGID_00000158737695583749548810000006251503522825310870_);" d="M25.8,85.6
							c-0.4,0-0.7-0.2-0.9-0.5c-0.3-0.5-0.1-1.1,0.4-1.4l72.9-42.2c0.5-0.3,1.1-0.1,1.4,0.4s0.1,1.1-0.4,1.4L26.3,85.5
							C26.2,85.6,26,85.6,25.8,85.6"/>
					</g>
				</g>
			</g>
			<g class="st1">
				<g>
					<g>
						<defs>
							<rect id="SVGID_00000036937976936427585550000018073252556724882308_" x="61.2" y="20.3" width="38.5" height="23.1"/>
						</defs>
						<clipPath id="SVGID_00000144297901989154414470000010215492486561703605_">
							<use xlink:href="#SVGID_00000036937976936427585550000018073252556724882308_"  style="overflow:visible;"/>
						</clipPath>
						<path style="clip-path:url(#SVGID_00000144297901989154414470000010215492486561703605_);" d="M98.7,43.5
							c-0.2,0-0.4,0-0.5-0.1L61.8,22.3c-0.5-0.3-0.7-0.9-0.4-1.4s0.9-0.7,1.4-0.4l36.4,21.1c0.5,0.3,0.7,0.9,0.4,1.4
							C99.4,43.3,99.1,43.5,98.7,43.5"/>
					</g>
				</g>
			</g>
			<g class="st1">
				<g>
					<g>
						<defs>
							<rect id="SVGID_00000119817129969377652500000004645907263772467640_" x="24.8" y="41.4" width="75" height="44.3"/>
						</defs>
						<clipPath id="SVGID_00000066508599262341516260000013655091500528133567_">
							<use xlink:href="#SVGID_00000119817129969377652500000004645907263772467640_"  style="overflow:visible;"/>
						</clipPath>
						<path style="clip-path:url(#SVGID_00000066508599262341516260000013655091500528133567_);" d="M98.7,85.6
							c-0.2,0-0.4,0-0.5-0.1L25.3,43.3c-0.5-0.3-0.7-0.9-0.4-1.4c0.3-0.5,0.9-0.7,1.4-0.4l72.9,42.2c0.5,0.3,0.7,0.9,0.4,1.4
							C99.4,85.5,99.1,85.6,98.7,85.6"/>
					</g>
				</g>
			</g>
			<g class="st1">
				<g>
					<g>
						<defs>
							<rect id="SVGID_00000045586794158019622920000017996160632746490005_" x="24.8" y="83.6" width="38.6" height="23.2"/>
						</defs>
						<clipPath id="SVGID_00000126317108537090885050000000834763615363145881_">
							<use xlink:href="#SVGID_00000045586794158019622920000017996160632746490005_"  style="overflow:visible;"/>
						</clipPath>
						<path style="clip-path:url(#SVGID_00000126317108537090885050000000834763615363145881_);" d="M62.3,106.8
							c-0.2,0-0.4,0-0.5-0.1L25.3,85.5c-0.5-0.3-0.7-0.9-0.4-1.4c0.3-0.5,0.9-0.7,1.4-0.4l36.5,21.1c0.5,0.3,0.7,0.9,0.4,1.4
							C63,106.6,62.6,106.8,62.3,106.8"/>
					</g>
				</g>
			</g>
			<g class="st1">
				<g>
					<g>
						<defs>
							<rect id="SVGID_00000147220879873288883440000015600658647699135624_" x="61.2" y="83.6" width="38.5" height="23.2"/>
						</defs>
						<clipPath id="SVGID_00000054261155460433419190000007610466291898164621_">
							<use xlink:href="#SVGID_00000147220879873288883440000015600658647699135624_"  style="overflow:visible;"/>
						</clipPath>
						<path style="clip-path:url(#SVGID_00000054261155460433419190000007610466291898164621_);" d="M62.3,106.8
							c-0.4,0-0.7-0.2-0.9-0.5c-0.3-0.5-0.1-1.1,0.4-1.4l36.4-21.1c0.5-0.3,1.1-0.1,1.4,0.4s0.1,1.1-0.4,1.4l-36.4,21.1
							C62.6,106.7,62.5,106.8,62.3,106.8"/>
					</g>
				</g>
			</g>
			<g class="st1">
				<g>
					<g>
						<defs>
							<rect id="SVGID_00000182521815807364108930000016871284178738695341_" x="24.8" y="41.4" width="2.1" height="44.3"/>
						</defs>
						<clipPath id="SVGID_00000182520686044377179920000005597853359104009883_">
							<use xlink:href="#SVGID_00000182521815807364108930000016871284178738695341_"  style="overflow:visible;"/>
						</clipPath>
						<path style="clip-path:url(#SVGID_00000182520686044377179920000005597853359104009883_);" d="M25.8,85.6c-0.6,0-1-0.5-1-1
							V42.4c0-0.6,0.5-1,1-1c0.6,0,1,0.5,1,1v42.2C26.8,85.2,26.4,85.6,25.8,85.6"/>
					</g>
				</g>
			</g>
			<g class="st1">
				<g>
					<g>
						<defs>
							<rect id="SVGID_00000044157330565964491520000003083223098365411759_" x="97.7" y="41.4" width="2.1" height="44.3"/>
						</defs>
						<clipPath id="SVGID_00000044873270432200660410000008285045885991850128_">
							<use xlink:href="#SVGID_00000044157330565964491520000003083223098365411759_"  style="overflow:visible;"/>
						</clipPath>
						<path style="clip-path:url(#SVGID_00000044873270432200660410000008285045885991850128_);" d="M98.7,85.6c-0.6,0-1-0.5-1-1
							V42.4c0-0.6,0.5-1,1-1c0.6,0,1,0.5,1,1v42.2C99.8,85.2,99.3,85.6,98.7,85.6"/>
					</g>
				</g>
			</g>
			<g class="st1">
				<g>
					<g>
						<defs>
							<rect id="SVGID_00000146500764036026911100000005780408044555473813_" x="61.2" y="20.3" width="2.1" height="86.3"/>
						</defs>
						<clipPath id="SVGID_00000003085271703330455050000003379161157492137919_">
							<use xlink:href="#SVGID_00000146500764036026911100000005780408044555473813_"  style="overflow:visible;"/>
						</clipPath>
						<path style="clip-path:url(#SVGID_00000003085271703330455050000003379161157492137919_);" d="M62.3,106.6c-0.6,0-1-0.5-1-1
							V21.4c0-0.6,0.5-1,1-1c0.6,0,1,0.5,1,1v84.2C63.3,106.2,62.9,106.6,62.3,106.6"/>
					</g>
				</g>
			</g>
		</g>
	</g>
</g>
<g class="st11">
	<path d="M143.9,85.9l-18.9-48.7h7l12.7,35.4c1,2.8,1.9,5.5,2.6,8c0.8-2.7,1.6-5.3,2.6-8L163,37.2h6.6l-19.1,48.7H143.9z"/>
	<path d="M173.4,44.1v-6.9h6v6.9H173.4z M173.4,85.9V50.6h6v35.3H173.4z"/>
	<path d="M212.6,74.5l6.2,0.8c-1,3.6-2.8,6.4-5.4,8.4c-2.6,2-6,3-10.1,3c-5.2,0-9.2-1.6-12.3-4.8c-3-3.2-4.5-7.6-4.5-13.4
		c0-5.9,1.5-10.5,4.6-13.8c3.1-3.3,7-4.9,11.9-4.9c4.7,0,8.6,1.6,11.6,4.8c3,3.2,4.5,7.7,4.5,13.5c0,0.4,0,0.9,0,1.6h-26.3
		c0.2,3.9,1.3,6.8,3.3,8.9c2,2.1,4.4,3.1,7.4,3.1c2.2,0,4.1-0.6,5.6-1.7C210.5,78.9,211.7,77,212.6,74.5z M193,64.8h19.7
		c-0.3-3-1-5.2-2.3-6.7c-1.9-2.3-4.4-3.5-7.4-3.5c-2.7,0-5.1,0.9-6.9,2.8C194.2,59.3,193.2,61.8,193,64.8z"/>
	<path d="M232.8,85.9L222,50.6h6.2l5.6,20.4l2.1,7.6c0.1-0.4,0.7-2.8,1.8-7.3l5.6-20.7h6.1l5.3,20.5l1.8,6.7l2-6.8l6-20.4h5.8
		l-11,35.3h-6.2l-5.6-21.1l-1.4-6L239,85.9H232.8z"/>
	<path d="M294.3,44.1v-6.9h6v6.9H294.3z M294.3,85.9V50.6h6v35.3H294.3z"/>
	<path d="M309.4,85.9V50.6h5.4v5c2.6-3.9,6.3-5.8,11.2-5.8c2.1,0,4.1,0.4,5.9,1.1c1.8,0.8,3.1,1.8,4,3c0.9,1.2,1.5,2.7,1.9,4.4
		c0.2,1.1,0.3,3,0.3,5.8v21.7h-6V64.4c0-2.4-0.2-4.3-0.7-5.5c-0.5-1.2-1.3-2.2-2.5-2.9c-1.2-0.7-2.6-1.1-4.2-1.1
		c-2.5,0-4.7,0.8-6.6,2.4c-1.8,1.6-2.8,4.7-2.8,9.2v19.3H309.4z"/>
	<path d="M357.8,85.9l18.7-48.7h6.9l19.9,48.7H396l-5.7-14.7H370l-5.3,14.7H357.8z M371.8,65.9h16.5l-5.1-13.5
		c-1.5-4.1-2.7-7.5-3.5-10.1c-0.6,3.1-1.5,6.2-2.6,9.3L371.8,65.9z"/>
	<path d="M408.6,85.9V37.2h21.6c4.3,0,7.6,0.4,9.9,1.3c2.3,0.9,4.1,2.4,5.4,4.6c1.3,2.2,2,4.7,2,7.3c0,3.5-1.1,6.4-3.4,8.7
		c-2.2,2.4-5.7,3.9-10.4,4.5c1.7,0.8,3,1.6,3.9,2.4c1.9,1.7,3.7,3.9,5.3,6.5l8.5,13.2h-8.1l-6.4-10.1c-1.9-2.9-3.4-5.2-4.6-6.7
		c-1.2-1.5-2.3-2.6-3.3-3.3c-1-0.6-1.9-1.1-2.9-1.3c-0.7-0.2-1.9-0.2-3.6-0.2H415v21.6H408.6z M415,58.7h13.8c2.9,0,5.2-0.3,6.9-0.9
		c1.7-0.6,2.9-1.6,3.8-2.9c0.9-1.3,1.3-2.8,1.3-4.4c0-2.3-0.8-4.2-2.5-5.7c-1.7-1.5-4.3-2.2-7.9-2.2H415V58.7z"/>
</g>
</svg>
