<?xml version="1.0" encoding="utf-8"?>
<!-- Generator: Adobe Illustrator 24.3.0, SVG Export Plug-In . SVG Version: 6.00 Build 0)  -->
<svg version="1.1" id="Capa_1" xmlns="http://www.w3.org/2000/svg" xmlns:xlink="http://www.w3.org/1999/xlink" x="0px" y="0px"
	 viewBox="0 0 490.7 490.7" style="enable-background:new 0 0 490.7 490.7;" xml:space="preserve">
<style type="text/css">
	.st0{fill:#FFFFFF;}
</style>
<path class="st0" d="M64,73.6c0,0.4-0.1,0.7-0.1,1.1v128c0,5.9,4.8,10.7,10.7,10.7s10.7-4.8,10.7-10.7V100.4l131.1,131.1
	c4.2,4.2,10.9,4.2,15.1,0c2.1-2.1,3.1-4.8,3.1-7.6c0-2.7-1-5.5-3.1-7.5L100.4,85.3h102.2c5.9,0,10.7-4.8,10.7-10.7
	S208.5,64,202.6,64h-128c0,0,0,0,0,0s0,0,0,0C69.1,64,64.6,68.2,64,73.6z"/>
<path class="st0" d="M259.1,274.2l131.1,131.1H288c-5.9,0-10.7,4.8-10.7,10.7s4.8,10.7,10.7,10.7h127.9c2.8,0,5.5-1,7.6-3.1
	c0.7-0.7,1.3-1.5,1.8-2.4c0,0,0.1-0.1,0.1-0.1c0.1-0.2,0.2-0.4,0.3-0.6c0-0.1,0.1-0.2,0.2-0.3c0.1-0.2,0.1-0.4,0.2-0.5
	c0.1-0.2,0.1-0.3,0.2-0.5c0-0.2,0.1-0.3,0.1-0.5c0-0.2,0.1-0.3,0.1-0.5c0-0.2,0.1-0.4,0.1-0.6c0-0.2,0.1-0.3,0.1-0.5
	c0-0.3,0.1-0.7,0.1-1.1l0-128c0-5.9-4.8-10.7-10.7-10.7c-5.9,0-10.7,4.8-10.7,10.7l0,102.2L274.2,259.1c-4.2-4.2-10.9-4.2-15.1,0
	C255,263.3,255,270.1,259.1,274.2z"/>
<path class="st0" d="M458.7,0H32C14.4,0,0,14.4,0,32v426.7c0,17.6,14.4,32,32,32h426.7c17.6,0,32-14.4,32-32V32
	C490.7,14.4,476.3,0,458.7,0z M469.3,458.7L469.3,458.7c0,5.9-4.8,10.7-10.7,10.7H32c-5.9,0-10.7-4.8-10.7-10.7V32
	c0-5.9,4.8-10.7,10.7-10.7h426.7c5.9,0,10.7,4.8,10.7,10.7V458.7z"/>
</svg>
