<?xml version="1.0" encoding="utf-8"?>
<!-- Generator: Adobe Illustrator 22.1.0, SVG Export Plug-In . SVG Version: 6.00 Build 0)  -->
<svg version="1.1" id="Layer_1" xmlns="http://www.w3.org/2000/svg" xmlns:xlink="http://www.w3.org/1999/xlink" x="0px" y="0px"
	 viewBox="0 0 491 485" style="enable-background:new 0 0 491 485;" xml:space="preserve">
<g>
	<g transform="matrix(1.33333 0 0 -1.33333 0 566.93)">
		<path fill="#0072e3" d="M279.4,350.6c-4.8,7.8-6.3,8.7-10.5,8.2c-6.1-0.7-3.4-9-1.5-12c1.9-3,8.3-6.2,12.1-12.8c3.8-6.5,7.7-13.7,10.7-19.5
			c1.3-2.5,4.3-0.7,1.3,6.5c-1.8,4.5-3.3,7.6-5.2,11.4c-1.7,3.5-4.2,8.5-4.3,11.5C282.1,345.2,281.3,347.5,279.4,350.6 M264.9,216.4
			c-2.9-1.3-4-1.9-4-1.9s4.2-2.5,9.1-5.9c5.8-4.1,11.7-8.8,11.7-8.8l5.1,1.6c7.3,2.3,5.1,3.6-8.8,11.6
			C270.2,217.5,269.6,218.6,264.9,216.4 M128.8,277.7c-7-1-15-4.7-21.6-8.8c-10.6-6.6-16.6-4.2-16.6-4.2s3.6,1,6.5,3.8
			c3.8,3.6,2.5,5.7-1.3,5.7c-4.5,0-5.2-3.9-11.3-9.6c-4.4-4.1-9.1-6.5-14.2-7.2c-6.9-0.9-11.4,2.1-11.4,2.1s3.7-0.7,8.2,1.1
			c7.6,2.8,1.9,6.6-10.3,3.3c-10.2-2.8-18.5,4.1-21.9,8.2c-6.5,7.9-3.8,20.6-3.8,20.6s4-11.2,19.4-13.1c6.6-0.8,11.6,1.9,11.6,1.9
			s-5.1,0.2-8.2,2.5c-5.5,4-2.7,10.7-2.7,10.7s11.2-11.2,34.7-5.7c22.7,5.3,39,2.6,49.6-0.4c10.6-3,17.5-7.6,17.5-7.6
			c2.4,1,4.9,2.7,7.6,2.9c5.6,0.8,11.1,0.6,16.6-0.2c9-1.6,17.4-5,27.1-4.1c4.5,0.5,9,4.3,11.3,8.3c0,0-3.7-1.6-9.3-0.8
			c-8.6,1.2-10.6,7.3-10.6,7.3s13.9-2,18.4,5.9c0,0-3.9-1-9.4,1.3c-5.8,2.5-4.7,6.2-10,8.6c-3.7,1.7-7.9,0.8-7.9,0.8
			s6.3,9.2,17.2,6.9c16-3.4,16.1,3.9,16.1,3.9s-3.2-0.6-6.4,0.6c-9.4,3.4-8.1,7.2-20,6.4c0,0,6,9.3,16.5,8.4
			c12.2-1,16.3,4.2,16.3,4.2s-8.6-0.6-14.6,9c0,0,11.9-3.3,23.6,4.7c8.2,5.5,15.3,6.3,15.3,6.3c-2,6.4,1.6,14.7,3.4,17.2
			c1.8,2.5,3,3.6,4.7,4.4c0,0,2.1-11.9,4.7-14.7c0.4,0.6,1,2.1,2.5,4.7c2.1,3.4,6.5,8.4,9.6,8.4c0,0,0.1-4.3-0.1-9.4
			c-0.2-5.1-0.7-7.6-0.7-7.6s2.1-2.7,3.8-5.3c1.7-2.6,6.6-9.3,6.6-14.8c3.4-9.4,10.9-23.1,10.6-28.4c-0.1-2-0.6-6-3.5-8.9
			c-1.3-1.3-4-2.4-6.4-2c-4.8,0.5-5.6,6-8.8,8.4c-4.2,1.9-8.8,3.4-11.7,7.7c-0.7,0.1-0.4-0.6-0.4-0.6s3.9-16.8,4.7-24.5
			c0.6-6.2,1.4-19.1,1.7-22.1c0.3-3,3.7-12.5,4-15c0.5-3.8,1-12.9,0.9-17.7c4.3-4.6,24.6-25.7,28.2-29.1c3.6-3.5,12.3-12.7,7.9-15.8
			c-3.6-3.5-8.8-3.8-14.9-4.9c-2.9-0.5-7.6-1.6-7.6-1.6s3.9-5,11.1-15.5c6.4-9.4,14.7-14.7,17.3-19.4c2.3-4.1,10.3-15.4,10.6-16.7
			c0.3-1.3,0.5-1.6,0-2.3c-2.6-1.6-7.1-1.2-11.1-1.1c-4.1,0.1-5.7,0.4-6.4,1.6c-1.1,2.1-1.2,6-3.2,7.8c-5,4-5.8,9.8-6.9,15.3
			c-1.2,4-5.6,7.8-8.3,9.8c-12.5,8.9-22.2,16.5-22.2,16.5s-4.2-1.2-9.3-2.7c-3-0.9-5.5-2.1-10.4-3.1c-3.6-0.8-4.9-2.1-9.7-2.6
			c-6.5-0.6-14.9,4.7-15.4,5.8c-0.9,2.2,1.5,3.3,1.5,3.3s10.7,5.4,12.4,3.5c1.2-1.3,2.4-2.3,4.1-1.8c1.8,0.6,0.5,3,3,4.2
			c0.6,0.3,3.4,0.9,4.9,0.8c2.1-0.2,5.8,0.5,5.8,0.5c-6.5,3.2-16.1,7.7-23.3,14.8c0,0-3.6-0.7-13.5,1.2c-4.7,0.9-8.7,2.1-12.5,3.4
			c0,0-0.5-2.9-1.3-3.7c-3.7-5.4-9.3-7.3-11.6-13.2c-0.1-1-0.5-1.7-0.1-2.7c1.2-5.4,6.7-8.6,9.9-11.4c3.2-2.8,7.2-6,10.4-8.1
			c2.9-1.9,5.3-5.5,7.7-8.6c2.1-1.4,5-3.2,6.6-5.5c2.6-3.5,4.7-7,4.2-10.9c-0.3-1.4-17.6-0.6-17.6-0.6c-1.2,0.7-1.5,1.4-1.6,3.3
			c-0.1,1.9,1.6,5.6-0.9,7.5c-2.5,1.9-6.5,2.8-7.7,6.6c-1.2,5.3-6.4,8.8-11,11.1c-6.6,3.5-14.2,4.6-20.9,7.7c-1.9,1.2-3.8,3-3.5,5.3
			c0,4.4,2.8,5.4,5.3,10.1c6.3,11.7,5.3,19.5,5.3,19.5s-6.2,0.6-18.1,0.2c-5.6-12.2-17.7-23.4-29.1-30.5c-7.2-5-9.1-13.6-10.8-21.1
			c-2.7-7.4-3.5-15.2-8.8-21.3c-3.5-5.9-9-11-14.7-14.2c-1.5-0.6-4.4-1.6-5.6-0.4c-0.8,0.6-0.5,14.2-0.5,14.2
			c0.3,1.3,1.1,2.3,2.5,2.6c1.9,0.7,5.2-2.7,6,1.4s5.1,3.6,8.1,8.1c3.4,7.2,4.5,14.5,3.3,23.6c-1.2,9.2-3,16.1,2.5,19.1
			c14.6,8,15.4,16.4,15.2,35.4c-0.2,17.5,6.9,29.6,13.9,37.6C145.9,274.1,139.6,279.2,128.8,277.7"/>
	</g>
</g>
</svg>
