<svg enable-background="new 0 0 1565 485" viewBox="0 0 1565 485" xmlns="http://www.w3.org/2000/svg"><path d="m1529.5 153.3v7.6h3.4c1.2 0 1.9 0 2.8-.1 1.5-.3 3.4-1.1 3.4-3.6 0-.5-.1-2.1-1.6-3.1-1.1-.7-2.3-.7-4.5-.7h-3.5zm-3.6-3.1h7.5c3.1 0 5.1 0 7 1.5 1.5 1.2 2.5 3.1 2.5 5.5 0 4.9-3.8 6-4.9 6.3l5.7 9.6h-4.3l-5.4-9.1h-4.5v9.1h-3.6zm8.1-5.3c9.3 0 16.8 7.5 16.8 16.8s-7.5 16.8-16.8 16.8-16.8-7.5-16.8-16.8 7.5-16.8 16.8-16.8m0-3.6c-11.3 0-20.4 9.1-20.4 20.4s9.1 20.4 20.4 20.4 20.4-9.1 20.4-20.4-9.1-20.4-20.4-20.4m-45.1-94.8c-6.4-10.4-8.4-11.6-14-11-8.1.9-4.6 12-2 16 2.5 4 11.1 8.3 16.2 17s10.3 18.2 14.3 26c1.7 3.4 5.7 1 1.8-8.6-2.4-5.9-4.4-10.1-6.9-15.2-2.2-4.6-5.6-11.3-5.8-15.3 0-1.7-1.1-4.8-3.6-8.9m-19.3 178.9c-3.9 1.8-5.3 2.6-5.3 2.6s5.6 3.3 12.1 7.9c7.8 5.5 15.7 11.7 15.7 11.7l6.7-2.1c9.8-3 6.8-4.8-11.7-15.4-10.5-6.1-11.3-7.6-17.5-4.7m-181.5-81.7c-9.3 1.4-20 6.3-28.9 11.7-14.1 8.8-22.2 5.6-22.2 5.6s4.8-1.3 8.7-5.1c5.1-4.8 3.3-7.5-1.7-7.6-6 0-6.9 5.2-15 12.8-5.9 5.5-12.2 8.7-18.9 9.6-9.2 1.2-15.2-2.8-15.2-2.8s4.9.9 11-1.4c10.1-3.8 2.5-8.8-13.8-4.3-13.6 3.8-24.6-5.4-29.2-11-8.7-10.6-5-27.4-5-27.4s5.3 14.9 25.8 17.4c8.8 1.1 15.4-2.5 15.4-2.5s-6.8-.3-10.9-3.4c-7.3-5.3-3.7-14.3-3.7-14.3s14.9 14.9 46.2 7.6c30.3-7.1 52-3.5 66.1.5s23.3 10.1 23.3 10.1c3.2-1.4 6.6-3.6 10.1-3.9 7.5-1.1 14.9-.8 22.2.3 12.1 2.1 23.2 6.6 36.1 5.5 6.1-.7 11.9-5.8 15.1-11.1 0 0-4.9 2.2-12.4 1.1-11.5-1.6-14.2-9.7-14.2-9.7s18.5 2.7 24.5-7.9c0 0-5.2 1.3-12.5-1.8-7.8-3.3-6.3-8.3-13.3-11.4-4.9-2.2-10.6-1.1-10.6-1.1s8.4-12.3 23-9.2c21.3 4.5 21.4-5.2 21.4-5.2s-4.2.8-8.5-.7c-12.6-4.6-10.8-9.6-26.6-8.5 0 0 8-12.3 21.9-11.2 16.2 1.3 21.7-5.6 21.7-5.6s-11.4.8-19.4-12c0 0 15.9 4.4 31.5-6.2 10.9-7.4 20.4-8.4 20.4-8.4-2.7-8.5 2.1-19.7 4.5-22.9 2.4-3.3 4-4.7 6.3-5.8 0 0 2.8 15.8 6.2 19.6.6-.8 1.3-2.8 3.4-6.2 2.7-4.5 8.7-11.2 12.8-11.2 0 0 .1 5.8-.1 12.5s-.9 10.2-.9 10.2 2.8 3.6 5.1 7.1 8.8 12.4 8.8 19.7c4.6 12.5 14.6 30.8 14.2 37.9-.1 2.7-.8 8-4.6 11.9-1.7 1.7-5.4 3.2-8.6 2.7-6.4-.7-7.4-8-11.7-11.2-5.6-2.6-11.8-4.5-15.6-10.3-1-.2-.5.9-.5.9s5.3 22.4 6.2 32.7c.8 8.2 1.9 25.5 2.3 29.5.3 4 4.9 16.6 5.4 20.1.7 5.1 1.3 17.2 1.3 23.6 5.7 6.1 32.7 34.2 37.6 38.9s16.4 16.9 10.6 21.1c-4.7 4.7-11.7 5.1-19.9 6.6-3.8.7-10.1 2.1-10.1 2.1s5.3 6.7 14.9 20.6c8.6 12.5 19.6 19.6 23.1 25.9 3.1 5.5 13.7 20.6 14.1 22.3s.7 2.1 0 3c-3.5 2.1-9.4 1.6-14.9 1.4-5.4-.2-7.6-.5-8.5-2.2-1.4-2.8-1.7-8-4.3-10.3-6.6-5.3-7.7-13-9.2-20.5-1.6-5.4-7.4-10.5-11-13-16.6-11.9-29.6-22-29.6-22s-5.5 1.6-12.4 3.6c-4 1.1-7.4 2.7-13.8 4.1-4.8 1.1-6.5 2.8-12.9 3.5-8.6.8-19.9-6.3-20.5-7.8-1.2-3 2-4.4 2-4.4s14.3-7.2 16.5-4.7c1.5 1.8 3.2 3 5.5 2.3 2.4-.7.7-4 4-5.6.9-.4 4.6-1.2 6.5-1 2.8.3 7.7-.6 7.7-.6-8.6-4.3-21.5-10.3-31.1-19.8 0 0-4.7.9-18-1.6-6.3-1.1-11.6-2.8-16.7-4.6 0 0-.7 3.9-1.8 5-4.9 7.1-12.4 9.8-15.5 17.6-.1 1.3-.7 2.2-.2 3.6 1.5 7.2 8.9 11.4 13.2 15.1s9.5 7.9 13.9 10.8c3.9 2.6 7 7.3 10.2 11.5 2.8 1.9 6.6 4.2 8.8 7.3 3.5 4.6 6.2 9.3 5.6 14.5-.4 1.9-23.5.8-23.5.8-1.6-.9-2-1.9-2.1-4.4-.1-2.6 2.2-7.5-1.2-10-3.3-2.5-8.7-3.8-10.2-8.9-1.6-7-8.6-11.7-14.7-14.7-8.8-4.6-18.9-6.2-27.9-10.3-2.5-1.5-5-4-4.6-7.1 0-5.9 3.7-7.2 7-13.4 8.4-15.6 7.1-26 7.1-26s-8.3-.8-24.1-.2c-7.5 16.3-23.6 31.3-38.9 40.7-9.6 6.7-12.1 18.1-14.4 28.2-3.6 9.8-4.6 20.3-11.8 28.4-4.6 7.8-11.9 14.7-19.6 18.9-1.9.8-5.8 2.2-7.5.5-1.1-.9-.6-19-.6-19 .4-1.7 1.5-3 3.3-3.4 2.5-1 6.9 3.6 8-1.8 1.1-5.5 6.7-4.8 10.8-10.8 4.5-9.6 6-19.3 4.4-31.5s-4-21.4 3.4-25.5c19.5-10.7 20.5-21.9 20.3-47.3-.2-23.3 9.2-39.5 18.5-50.1.5-.3-8-7.2-22.4-5.1m-320.9 146.3c21.1 20.4 50.6 29.8 80.4 29.8 51.9 0 75.3-31.1 75.3-57.3 0-14.1-6.7-27.5-17.1-35.5-10.7-8.4-20.4-10-55.3-16.4-21.4-3.7-33.8-7-33.8-19.1 0-8.7 8.7-17.1 27.8-17.1 29.5 0 40.9 16.4 45.6 25.4l28.5-26.5c-3.4-4-8.7-9.7-17.1-15.1-11.4-8-29.8-16.1-55.3-16.1-45.9 0-71.7 26.1-71.7 54.6 0 15.1 7.4 38.2 47.2 47.5 6 1.7 33.5 6.7 39.2 8 5.4 1 17.4 3.7 17.4 14.4 0 8.4-10 19.8-33.2 19.8-23.1 0-38.2-9.1-48.2-21.4zm-8.5 24.8v-112.8c0-43.5-21.8-59.6-53.5-59.6-23.9 0-44.1 11.1-53.9 32.2h-.7v-27.1h-40.1v167.4h42.3v-100.5c0-24.5 13.5-41.5 35.1-41.5 21.3 0 29.2 15 29.2 34v107.9zm-206.9-105.1c-3.7-26.1-19.8-35.2-37.5-35.2-21.4 0-36.2 12.4-40.9 35.2zm45.6 67.6c-20.8 27.8-47.6 42.5-81.7 42.5-43.9 0-86.1-27.8-86.1-89.4 0-56.3 36.2-88.1 83.4-88.1 44.2 0 62.6 26.5 66 31.5 13.7 19.4 16.7 48.6 17.1 65.3h-124c4.7 26.5 21.1 41.5 47.6 41.5 27.5 0 38.5-16.1 43.5-23.1zm-169.8 10.7c-3.1.8-6.3 1.2-9.4 1.2-24 0-24-9.4-24-33.7v-79.4h33.5v-28.8h-33.5v-59.2h-43.5v59.3h-21.6v28.8h21.6v89.1c0 16.7 0 27.5 2.7 34.2 7.7 20.4 35.8 20.4 44.2 20.4 10.6 0 21.5-2.2 30.1-6.5zm-257.4 2c21.1 20.4 50.6 29.8 80.4 29.8 51.9 0 75.3-31.1 75.3-57.3 0-14.1-6.7-27.5-17.1-35.5-10.7-8.4-20.4-10-55.3-16.4-21.4-3.7-33.8-7-33.8-19.1 0-8.7 8.7-17.1 27.8-17.1 29.5 0 40.9 16.4 45.5 25.4l28.5-26.5c-3.3-4-8.7-9.7-17.1-15.1-11.4-8-29.8-16.1-55.3-16.1-45.9 0-71.7 26.1-71.7 54.6 0 15.1 7.4 38.2 47.2 47.5 6 1.7 33.5 6.7 39.2 8 5.4 1 17.4 3.7 17.4 14.4 0 8.4-10 19.8-33.1 19.8s-38.2-9.1-48.2-21.4zm-224.3-201.9v93.6h-97.2v-93.6h-46.1v226.7h46.1v-93.6h97.2v93.6h46.4v-226.7zm175.7 226.7c-3.8-8-5.9-17.5-5.2-26.6-10.5 20.6-29.9 31.6-53.6 31.6-35.3 0-56.5-19-56.5-51.9 0-80.4 110.6-30.1 110.6-72-.4-8.9-3.1-22.5-27.9-22.5-16.7 0-25.8 5.4-29.8 10.7-4.3 5.4-4 10-4 14.7l-41.2-2.3c.7-8.4 1.3-15.4 6.7-25.1 16.1-29.1 55.9-29.1 66.6-29.1 16.1 0 35.5 2 50.2 10.7 19.8 12.1 21 27.8 21 45.9v84.4c0 18.2 2.1 25.2 9.1 31.5zm-5.3-91.6h-.7c-14 27.3-65.4 9.1-65.4 44.1 0 18.9 11.5 24.5 28.3 24.5 41.7-.1 37.8-40.2 37.8-68.6m-45.1-98.1h-35.2v-37h35.2zm64.5 0h-35.2v-37h35.2zm242.3 334.2c-2.8 0-5.6-.5-7.8-1.2-1.7-.6-2-.6-2.5-.6-1.3 0-2.5.9-3.2 2.8h-1.7v-13.5h1.8c1.1 5.4 6.5 9.1 13 9.1 7.1 0 11.1-3.2 11.1-8.9 0-4.4-2.1-6.3-7.5-8.4l-6.1-2.4c-8.5-3.3-11.3-7.3-11.3-13.4 0-8.3 6.1-13.6 15.6-13.6 3.3 0 6.6 1 9.8 1.8.4.1.8.1 1.1.1 1.2 0 2-.8 2.5-1.9h1.7v12.1h-1.9c-2.3-5.9-6.3-8.8-12.2-8.8-5.6 0-9 2.9-9 7.9 0 3.9 1.9 6 7.5 8.2l7.3 2.8c7.2 2.8 10.5 6.9 10.5 13.2-.1 8.7-7.7 14.7-18.7 14.7m22.1-1.2v-2.4c6.5 0 9.2-1.1 9.2-8.1v-27.6c0-5.6-1.8-7.4-7.9-7.4h-1.3v-2.4h18.6v37.3c0 6.5 1.5 8.2 7.8 8.2v2.4zm13.7-57.8c-3 0-5.4-2.4-5.4-5.3 0 0 0 0 0-.1 0-3 2.4-5.4 5.3-5.4h.1c3 0 5.4 2.4 5.4 5.3v.1c0 2.9-2.4 5.4-5.4 5.4zm47.7 57.8v-2.4h.8c5.2 0 6.3-1.5 6.3-8.1v-21.5c0-7.9-3-11.8-9.4-11.8-3.9 0-6.6 1.7-12.3 6.2v26.9c0 6.5 1.6 8.3 7.3 8.3h.5v2.4h-24.5v-2.4h.6c5.7 0 7.1-1.8 7.1-8.6v-27.3c0-5.2-2.3-7.3-8-7.3h-.3v-2.4h17.2v6.7c7.5-5.5 12.2-7.8 17.4-7.8 8.6 0 13.5 6.7 13.5 18.4v20c0 6.3 1.7 8.2 7 8.2h.4v2.4zm48.8 1.2c-14.8 0-24.9-10.5-24.9-25.8 0-14.1 9.8-24.3 23.4-24.3 5.6 0 8.2.6 13.2 3.2.4.2.7.3 1 .3 1.1 0 2-1 2-2.6h2.3v13.6h-2.5c-.6-6.5-6.5-11.3-13.9-11.3-12.9 0-15.7 10.5-15.7 20.8 0 13.6 6.5 22.1 16.9 22.1 6.1 0 8.8-.9 14.7-5.3l2.1 2.2c-6.2 5-11.7 7.1-18.6 7.1m65.9-9.5-2.5-2.3c-4.9 4.8-10.1 7.2-16 7.2-12.1 0-16.5-12.3-16.5-22.3v-3.2h33.5c0-12.1-8.3-20-20.5-20-13.3 0-22.4 9.8-22.4 24.5 0 14.9 9.8 25.6 23.5 25.6 8.2 0 15.3-3.2 20.9-9.5m-11-24.1h-23.5c.3-7.9 5.1-12.9 12-12.9 6.6 0 11.3 5.2 11.5 12.9m39.5 32.4v-2.4l.4-.1c7.3-.3 8.5-1.6 8.5-8.4v-26.1c0-6.9-1.5-8.2-8.9-8.4v-2.5h18.1v37.2c0 6.8 1.2 8 8.2 8.3h.6v2.4zm65-15.1c0 7.2-5.2 12.2-13.7 12.2-8.9 0-14-6-14-15.1 0-6.8 2.5-12.9 9.3-15.4 14.1 6 18.4 10.7 18.4 18.3m8.4-3.3c0-8.1-5.3-14.3-15.3-18 8.6-3.2 12.8-7.7 12.8-15.9 0-10.3-7.7-17.5-19.2-17.5-11.7 0-20.2 7.4-20.2 17.1 0 7.6 2.4 12 11.9 17.4-8.4 2.7-14.4 8.1-14.4 17.6 0 10.9 9 18.6 21.9 18.6 12.4 0 22.5-8.6 22.5-19.3m-10.5-34.8c0 7.7-1.5 10.8-8.3 15.1-11.6-5-15.2-9.9-15.2-17.7 0-5.9 5.1-11 11.4-11 7 .1 12.1 6 12.1 13.6m32.9 10.8-6.2 23c1.1-.2 2.1-.3 3.2-.3 12.1 0 21.9 9.2 21.9 20.5 0 11.9-10.1 21.5-22.6 21.5-7.2 0-13.4-3-17.7-8.4l2.1-1.9c3.7 3 8.5 5.2 13.3 5.2 9.2 0 15.1-6.3 15.1-16.1 0-10.2-6.5-16.7-17-16.7-3.6 0-6.8.8-9.6 2.6l10.3-34.9h30.6v5.5zm65.3 42.4h-38.6v-.8c9.2-8.1 27.5-18.9 27.5-31 0-7.2-5-12.5-12.3-12.5-4.7 0-8.3 2.5-11.3 5.5l-2.9-1.6c3.2-5.2 10.2-9.5 18.7-9.5 11.1 0 19.2 7 19.2 16 0 9.6-16.3 22.9-25.3 28.5h14.7c5.7 0 8.2-1.2 10.8-6.3l3.4.5z" fill="#fff"/></svg>
