<?xml version="1.0" encoding="utf-8"?>
<!-- Generator: Adobe Illustrator 24.1.0, SVG Export Plug-In . SVG Version: 6.00 Build 0)  -->
<svg version="1.1" id="Layer_1" xmlns="http://www.w3.org/2000/svg" xmlns:xlink="http://www.w3.org/1999/xlink" x="0px" y="0px"
	 viewBox="1049.2601318359375 345.3299865722656 1005.0496826171875 140.44003295898438" xml:space="preserve">
<style type="text/css">
	.st0{fill:#D0B669;}
</style>
<g>
	<path class="st0" d="M1111.84,405.02c0,4.16,0.62,6.65,2.5,7.38c0.31,0.31,0.31,0.94-0.1,1.25c-1.25,0-3.12,0.42-5.09,0.94
		c-5.51,1.46-13,2.7-18.61,2.7c-12.37,0-23.71-3.43-31.71-11.54c-6.24-6.24-9.57-14.45-9.57-23.6c0-8.84,2.91-17.78,9.36-24.64
		c6.97-7.28,17.26-12.17,32.96-12.17c5.93,0,11.44,1.14,13.2,1.56c1.98,0.42,5.2,1.14,6.45,0.94c0,3.43,0.62,8.84,1.56,15.08
		c-0.31,0.83-2.18,0.94-2.81,0.31c-2.91-11.23-10.71-14.76-21.31-14.76c-20.17,0-29.01,14.35-29.01,29.94
		c0,19.96,10.29,35.66,31.19,35.66c6.45,0,10.29-1.35,11.44-3.12c0.52-0.73,1.04-2.6,1.04-5.93v-4.16c0-8.73-0.31-9.36-6.76-10.09
		l-4.58-0.52c-0.83-0.42-0.73-2.29,0-2.6c3.02,0.21,8.73,0.31,14.87,0.31c4.06,0,7.59-0.1,11.02-0.31c0.73,0.42,0.83,1.98,0.1,2.6
		l-1.66,0.21c-4.37,0.52-4.47,3.43-4.47,8.73V405.02z"/>
	<path class="st0" d="M1149,362.71c0-9.88-0.31-11.65-4.57-12.17l-3.33-0.42c-0.73-0.52-0.73-2.18,0.1-2.6
		c5.82-0.52,13-0.83,23.19-0.83c6.45,0,12.58,0.52,17.36,3.12c4.99,2.6,8.63,7.28,8.63,14.56c0,9.88-7.8,15.28-13,17.36
		c-0.52,0.62,0,1.66,0.52,2.5c8.32,13.41,13.83,21.73,20.9,27.66c1.77,1.56,4.37,2.7,7.17,2.91c0.52,0.21,0.62,1.04,0.1,1.46
		c-0.94,0.31-2.6,0.52-4.58,0.52c-8.84,0-14.14-2.6-21.52-13.1c-2.7-3.85-6.97-11.02-10.19-15.7c-1.56-2.29-3.22-3.33-7.38-3.33
		c-4.68,0-4.89,0.1-4.89,2.29v13.1c0,10.92,0.21,12.17,6.24,13l2.18,0.31c0.62,0.52,0.42,2.29-0.21,2.6
		c-4.68-0.21-8.21-0.31-12.37-0.31c-4.37,0-8.11,0.1-13,0.31c-0.62-0.31-0.83-1.87-0.21-2.6l2.6-0.31c6.03-0.73,6.24-2.08,6.24-13
		V362.71z M1157.52,377.57c0,1.87,0,3.02,0.31,3.43c0.31,0.31,1.87,0.52,7.17,0.52c3.74,0,7.69-0.42,10.71-2.7
		c2.81-2.18,5.2-5.82,5.2-12.89c0-8.21-5.09-16.01-16.64-16.01c-6.45,0-6.76,0.42-6.76,3.33V377.57z"/>
	<path class="st0" d="M1268.57,391.51c-0.73-2.29-1.14-2.6-4.26-2.6h-15.7c-2.6,0-3.22,0.31-3.95,2.5l-3.64,10.92
		c-1.56,4.68-2.29,7.49-2.29,8.63c0,1.25,0.52,1.87,3.02,2.08l3.43,0.31c0.73,0.52,0.73,2.18-0.21,2.6
		c-2.7-0.21-5.93-0.21-10.81-0.31c-3.43,0-7.17,0.21-9.98,0.31c-0.62-0.42-0.83-2.08-0.21-2.6l3.43-0.31
		c2.5-0.21,4.78-1.35,6.24-5.09c1.87-4.78,4.78-11.54,9.15-23.19l10.61-28.07c1.46-3.74,2.08-5.72,1.77-7.38
		c2.5-0.73,4.26-2.6,5.41-3.95c0.62,0,1.35,0.21,1.56,0.94c1.35,4.57,3.02,9.36,4.58,13.93l14.24,41.8
		c3.02,8.94,4.37,10.5,8.84,11.02l2.81,0.31c0.73,0.52,0.52,2.18,0,2.6c-4.26-0.21-7.9-0.31-12.58-0.31
		c-4.99,0-8.94,0.21-11.96,0.31c-0.83-0.42-0.94-2.08-0.21-2.6l3.02-0.31c2.18-0.21,3.64-0.83,3.64-1.87c0-1.14-0.52-3.02-1.35-5.51
		L1268.57,391.51z M1247.99,382.25c-0.83,2.39-0.73,2.5,2.18,2.5h12.79c3.02,0,3.22-0.42,2.29-3.22l-5.61-16.95
		c-0.83-2.5-1.77-5.3-2.39-6.55h-0.21c-0.31,0.52-1.35,3.02-2.5,6.13L1247.99,382.25z"/>
	<path class="st0" d="M1379.21,397.95c0,3.12,0,15.49,0.31,18.2c-0.21,0.62-0.83,1.14-1.98,1.14c-1.25-1.77-4.26-5.41-13.31-15.7
		l-24.12-27.45c-2.81-3.22-9.88-11.75-12.06-14.04h-0.21c-0.42,1.25-0.52,3.64-0.52,6.76v22.67c0,4.89,0.1,18.4,1.87,21.52
		c0.62,1.14,2.7,1.77,5.3,1.98l3.22,0.31c0.62,0.83,0.52,2.08-0.21,2.6c-4.68-0.21-8.32-0.31-12.16-0.31
		c-4.37,0-7.17,0.1-10.81,0.31c-0.73-0.52-0.83-1.98-0.21-2.6l2.81-0.31c2.39-0.31,4.05-0.94,4.57-2.08
		c1.46-3.74,1.35-16.43,1.35-21.42v-30.05c0-2.91-0.1-5.09-2.29-7.49c-1.46-1.46-3.95-2.18-6.45-2.5l-1.77-0.21
		c-0.62-0.62-0.62-2.18,0.21-2.6c4.37,0.31,9.88,0.31,11.75,0.31c1.66,0,3.43-0.1,4.78-0.31c2.08,5.3,14.35,19.03,17.78,22.87
		l10.09,11.33c7.17,8.01,12.27,13.83,17.16,18.82h0.21c0.42-0.52,0.42-2.18,0.42-4.37V373.1c0-4.89-0.1-18.4-2.08-21.52
		c-0.62-0.94-2.29-1.56-6.45-2.08l-1.77-0.21c-0.73-0.62-0.62-2.29,0.21-2.6c4.78,0.21,8.32,0.31,12.27,0.31
		c4.47,0,7.17-0.1,10.71-0.31c0.83,0.52,0.83,1.98,0.21,2.6l-1.46,0.21c-3.33,0.52-5.41,1.35-5.82,2.18
		c-1.77,3.74-1.56,16.64-1.56,21.42V397.95z"/>
	<path class="st0" d="M1420.06,360.52c0-7.28-0.52-9.46-4.89-10.09l-2.29-0.31c-0.83-0.52-0.94-2.18,0.1-2.6
		c8.84-0.52,17.26-0.83,26.1-0.83c8.73,0,16.12,0.62,22.87,3.12c14.04,5.09,21.11,16.95,21.11,30.67c0,13.2-6.34,24.54-18.2,30.98
		c-6.76,3.64-15.28,4.99-23.29,4.99c-6.65,0-13.31-0.83-16.95-0.83c-4.37,0-8.11,0.1-13,0.31c-0.62-0.31-0.83-1.98-0.21-2.6
		l2.39-0.31c6.03-0.83,6.24-2.08,6.24-13V360.52z M1428.59,397.64c0,5.51,0.31,8.84,2.08,11.33c2.29,3.22,6.24,4.26,12.79,4.26
		c20.17,0,29.22-13.2,29.22-32.54c0-11.44-5.51-30.78-32.75-30.78c-6.13,0-9.46,0.83-10.29,1.46c-0.83,0.62-1.04,3.22-1.04,7.9
		V397.64z"/>
	<path class="st0" d="M1553.25,358.03c-2.39-5.82-3.95-8.01-8.42-8.53l-1.87-0.21c-0.73-0.62-0.62-2.08,0.21-2.6
		c3.02,0.21,6.34,0.31,10.81,0.31c4.58,0,8.21-0.1,12.58-0.31c0.73,0.42,0.94,1.98,0.21,2.6l-1.56,0.21
		c-3.95,0.52-4.78,1.14-4.89,1.98c0.21,1.04,1.98,6.65,5.2,14.56c4.78,12.06,9.57,24.02,14.76,35.87
		c3.22-6.86,7.59-17.57,9.98-23.08c3.01-7.07,7.9-18.82,9.67-23.29c0.83-2.18,0.94-3.33,0.94-4.05c0-0.73-1.04-1.56-4.68-1.98
		l-1.87-0.21c-0.73-0.62-0.52-2.18,0.21-2.6c2.91,0.21,6.86,0.31,10.81,0.31c3.43,0,6.65-0.1,10.08-0.31
		c0.73,0.42,0.73,2.08,0.21,2.6l-3.12,0.21c-2.5,0.21-4.05,1.46-5.41,3.64c-2.91,4.89-6.97,13.31-11.65,23.91l-5.61,12.79
		c-4.16,9.57-9.05,21.63-10.81,27.14c-0.31,0.21-0.73,0.31-1.14,0.31c-0.52,0-1.04-0.1-1.56-0.31c-1.14-4.37-3.02-9.46-4.78-13.83
		L1553.25,358.03z"/>
	<path class="st0" d="M1645.83,362.81c0-11.02-0.21-12.79-6.34-13.31l-2.6-0.21c-0.62-0.42-0.42-2.29,0.21-2.6
		c5.2,0.21,8.73,0.31,13.1,0.31c4.16,0,7.69-0.1,12.89-0.31c0.62,0.31,0.83,2.18,0.21,2.6l-2.6,0.21
		c-6.13,0.52-6.34,2.29-6.34,13.31v37.01c0,11.02,0.21,12.48,6.34,13.2l2.6,0.31c0.62,0.42,0.42,2.29-0.21,2.6
		c-5.2-0.21-8.73-0.31-12.89-0.31c-4.37,0-7.9,0.1-13.1,0.31c-0.62-0.31-0.83-1.98-0.21-2.6l2.6-0.31c6.13-0.73,6.34-2.18,6.34-13.2
		V362.81z"/>
	<path class="st0" d="M1695.9,358.03c-2.39-5.82-3.95-8.01-8.42-8.53l-1.87-0.21c-0.73-0.62-0.62-2.08,0.21-2.6
		c3.02,0.21,6.34,0.31,10.81,0.31c4.58,0,8.21-0.1,12.58-0.31c0.73,0.42,0.94,1.98,0.21,2.6l-1.56,0.21
		c-3.95,0.52-4.78,1.14-4.89,1.98c0.21,1.04,1.98,6.65,5.2,14.56c4.78,12.06,9.57,24.02,14.76,35.87
		c3.22-6.86,7.59-17.57,9.98-23.08c3.01-7.07,7.9-18.82,9.67-23.29c0.83-2.18,0.94-3.33,0.94-4.05c0-0.73-1.04-1.56-4.68-1.98
		l-1.87-0.21c-0.73-0.62-0.52-2.18,0.21-2.6c2.91,0.21,6.86,0.31,10.81,0.31c3.43,0,6.65-0.1,10.08-0.31
		c0.73,0.42,0.73,2.08,0.21,2.6l-3.12,0.21c-2.5,0.21-4.05,1.46-5.41,3.64c-2.91,4.89-6.97,13.31-11.65,23.91l-5.61,12.79
		c-4.16,9.57-9.05,21.63-10.81,27.14c-0.31,0.21-0.73,0.31-1.14,0.31c-0.52,0-1.04-0.1-1.56-0.31c-1.14-4.37-3.02-9.46-4.78-13.83
		L1695.9,358.03z"/>
	<path class="st0" d="M1788.48,362.81c0-11.02-0.21-12.79-6.34-13.31l-2.6-0.21c-0.62-0.42-0.42-2.29,0.21-2.6
		c5.2,0.21,8.73,0.31,13.1,0.31c4.16,0,7.69-0.1,12.89-0.31c0.62,0.31,0.83,2.18,0.21,2.6l-2.6,0.21
		c-6.13,0.52-6.34,2.29-6.34,13.31v37.01c0,11.02,0.21,12.48,6.34,13.2l2.6,0.31c0.62,0.42,0.42,2.29-0.21,2.6
		c-5.2-0.21-8.73-0.31-12.89-0.31c-4.37,0-7.9,0.1-13.1,0.31c-0.62-0.31-0.83-1.98-0.21-2.6l2.6-0.31c6.13-0.73,6.34-2.18,6.34-13.2
		V362.81z"/>
	<path class="st0" d="M1838.9,360.52c0-7.28-0.52-9.46-4.89-10.09l-2.29-0.31c-0.83-0.52-0.94-2.18,0.1-2.6
		c8.84-0.52,17.26-0.83,26.1-0.83c8.73,0,16.12,0.62,22.87,3.12c14.04,5.09,21.11,16.95,21.11,30.67c0,13.2-6.34,24.54-18.2,30.98
		c-6.76,3.64-15.28,4.99-23.29,4.99c-6.65,0-13.31-0.83-16.95-0.83c-4.37,0-8.11,0.1-13,0.31c-0.62-0.31-0.83-1.98-0.21-2.6
		l2.39-0.31c6.03-0.83,6.24-2.08,6.24-13V360.52z M1847.42,397.64c0,5.51,0.31,8.84,2.08,11.33c2.29,3.22,6.24,4.26,12.79,4.26
		c20.17,0,29.22-13.2,29.22-32.54c0-11.44-5.51-30.78-32.75-30.78c-6.13,0-9.46,0.83-10.29,1.46c-0.83,0.62-1.04,3.22-1.04,7.9
		V397.64z"/>
	<path class="st0" d="M1981.1,373.1c0-6.45-0.21-18.4-1.98-21.52c-0.73-1.25-2.6-1.98-5.2-2.18l-2.6-0.21
		c-0.62-0.73-0.42-2.08,0.21-2.5c3.95,0.21,7.8,0.31,11.85,0.31c4.37,0,7.17-0.1,10.92-0.31c0.83,0.52,0.73,1.87,0.21,2.5l-2.5,0.21
		c-2.6,0.21-4.58,1.14-5.2,2.5c-1.46,3.43-1.46,15.39-1.46,21.21v11.75c0,9.05-1.46,18.61-7.28,24.85
		c-4.47,4.89-12.17,7.59-19.86,7.59c-7.17,0-14.35-1.35-19.44-5.72c-5.51-4.57-8.11-12.16-8.11-24.54V362.5
		c0-10.81-0.21-12.58-6.24-13.1l-2.6-0.21c-0.62-0.42-0.42-2.18,0.21-2.5c5.2,0.21,8.73,0.31,12.89,0.31c4.26,0,7.69-0.1,12.79-0.31
		c0.62,0.31,0.83,2.08,0.21,2.5l-2.5,0.21c-6.03,0.52-6.24,2.29-6.24,13.1v22.46c0,16.74,5.2,27.76,21.11,27.76
		c15.08,0,20.79-11.85,20.79-27.66V373.1z"/>
	<path class="st0" d="M2032.16,417.29c-8.73,0-14.24-2.7-16.22-3.85c-1.25-2.29-2.6-9.67-2.81-14.56c0.52-0.73,2.08-0.94,2.5-0.31
		c1.56,5.3,5.82,15.49,17.88,15.49c8.73,0,13-5.72,13-11.96c0-4.57-0.94-9.67-8.53-14.56l-9.88-6.45
		c-5.2-3.43-11.23-9.36-11.23-17.88c0-9.88,7.69-17.88,21.21-17.88c3.22,0,6.97,0.62,9.67,1.35c1.35,0.42,2.81,0.62,3.64,0.62
		c0.94,2.5,1.87,8.32,1.87,12.68c-0.42,0.62-2.08,0.94-2.6,0.31c-1.35-4.99-4.16-11.75-14.14-11.75c-10.19,0-12.37,6.76-12.37,11.54
		c0,6.03,4.99,10.4,8.84,12.79l8.32,5.2c6.55,4.05,13,10.08,13,19.96C2054.3,409.49,2045.67,417.29,2032.16,417.29z"/>
	<path class="st0" d="M1263.21,477.14c0,5.46,0.1,6.24,3.12,6.5l1.66,0.16c0.31,0.21,0.21,1.14-0.1,1.3
		c-2.96-0.1-4.73-0.16-6.81-0.16c-2.08,0-3.9,0.05-7.23,0.16c-0.31-0.16-0.42-1.04,0-1.3l1.87-0.16c2.96-0.26,3.22-1.04,3.22-6.5
		v-23.24c0-1.61,0-1.66-1.56-1.66h-2.86c-2.24,0-5.09,0.1-6.39,1.3c-1.25,1.14-1.77,2.29-2.34,3.59c-0.42,0.31-1.14,0.05-1.35-0.36
		c0.83-2.34,1.61-5.67,1.98-7.75c0.16-0.1,0.83-0.16,0.99,0c0.31,1.66,2.03,1.61,4.42,1.61h21.05c2.81,0,3.27-0.1,4.05-1.46
		c0.26-0.1,0.83-0.05,0.94,0.16c-0.57,2.13-0.94,6.34-0.78,7.9c-0.21,0.42-1.09,0.42-1.35,0.1c-0.16-1.3-0.52-3.22-1.3-3.79
		c-1.2-0.88-3.17-1.3-6.03-1.3h-3.69c-1.56,0-1.51,0.05-1.51,1.77V477.14z"/>
	<path class="st0" d="M1293.56,458.48c0-4.94-0.16-5.82-2.29-6.08l-1.66-0.21c-0.36-0.26-0.36-1.09,0.05-1.3
		c2.91-0.26,6.5-0.42,11.59-0.42c3.22,0,6.29,0.26,8.68,1.56c2.5,1.3,4.31,3.64,4.31,7.28c0,4.94-3.9,7.64-6.5,8.68
		c-0.26,0.31,0,0.83,0.26,1.25c4.16,6.71,6.91,10.87,10.45,13.83c0.88,0.78,2.18,1.35,3.59,1.46c0.26,0.1,0.31,0.52,0.05,0.73
		c-0.47,0.16-1.3,0.26-2.29,0.26c-4.42,0-7.07-1.3-10.76-6.55c-1.35-1.92-3.48-5.51-5.09-7.85c-0.78-1.14-1.61-1.66-3.69-1.66
		c-2.34,0-2.44,0.05-2.44,1.14v6.55c0,5.46,0.1,6.08,3.12,6.5l1.09,0.16c0.31,0.26,0.21,1.14-0.1,1.3c-2.34-0.1-4.11-0.16-6.19-0.16
		c-2.18,0-4.06,0.05-6.5,0.16c-0.31-0.16-0.42-0.94-0.1-1.3l1.3-0.16c3.02-0.36,3.12-1.04,3.12-6.5V458.48z M1297.82,465.91
		c0,0.94,0,1.51,0.16,1.72c0.16,0.16,0.94,0.26,3.59,0.26c1.87,0,3.85-0.21,5.35-1.35c1.4-1.09,2.6-2.91,2.6-6.45
		c0-4.11-2.55-8.01-8.32-8.01c-3.22,0-3.38,0.21-3.38,1.66V465.91z"/>
	<path class="st0" d="M1353.51,472.88c-0.36-1.14-0.57-1.3-2.13-1.3h-7.85c-1.3,0-1.61,0.16-1.98,1.25l-1.82,5.46
		c-0.78,2.34-1.14,3.74-1.14,4.31c0,0.62,0.26,0.94,1.51,1.04l1.72,0.16c0.36,0.26,0.36,1.09-0.1,1.3c-1.35-0.1-2.96-0.1-5.41-0.16
		c-1.72,0-3.59,0.1-4.99,0.16c-0.31-0.21-0.42-1.04-0.1-1.3l1.72-0.16c1.25-0.1,2.39-0.68,3.12-2.55c0.94-2.39,2.39-5.77,4.58-11.59
		l5.3-14.04c0.73-1.87,1.04-2.86,0.88-3.69c1.25-0.36,2.13-1.3,2.7-1.98c0.31,0,0.68,0.1,0.78,0.47c0.68,2.29,1.51,4.68,2.29,6.97
		l7.12,20.9c1.51,4.47,2.18,5.25,4.42,5.51l1.4,0.16c0.36,0.26,0.26,1.09,0,1.3c-2.13-0.1-3.95-0.16-6.29-0.16
		c-2.5,0-4.47,0.1-5.98,0.16c-0.42-0.21-0.47-1.04-0.1-1.3l1.51-0.16c1.09-0.1,1.82-0.42,1.82-0.94c0-0.57-0.26-1.51-0.68-2.76
		L1353.51,472.88z M1343.22,468.25c-0.42,1.2-0.36,1.25,1.09,1.25h6.39c1.51,0,1.61-0.21,1.14-1.61l-2.81-8.47
		c-0.42-1.25-0.88-2.65-1.2-3.28h-0.1c-0.16,0.26-0.68,1.51-1.25,3.07L1343.22,468.25z"/>
	<path class="st0" d="M1381.02,457.39c0-3.64-0.26-4.73-2.44-5.04l-1.14-0.16c-0.42-0.26-0.47-1.09,0.05-1.3
		c4.42-0.26,8.63-0.42,13.05-0.42c4.37,0,8.06,0.31,11.44,1.56c7.02,2.55,10.55,8.47,10.55,15.34c0,6.6-3.17,12.27-9.1,15.49
		c-3.38,1.82-7.64,2.5-11.65,2.5c-3.33,0-6.65-0.42-8.47-0.42c-2.18,0-4.06,0.05-6.5,0.16c-0.31-0.16-0.42-0.99-0.1-1.3l1.2-0.16
		c3.02-0.42,3.12-1.04,3.12-6.5V457.39z M1385.28,475.95c0,2.76,0.16,4.42,1.04,5.67c1.14,1.61,3.12,2.13,6.39,2.13
		c10.09,0,14.61-6.6,14.61-16.27c0-5.72-2.76-15.39-16.38-15.39c-3.07,0-4.73,0.42-5.15,0.73c-0.42,0.31-0.52,1.61-0.52,3.95V475.95
		z"/>
	<path class="st0" d="M1427.9,458.53c0-5.51-0.1-6.39-3.17-6.65l-1.3-0.1c-0.31-0.21-0.21-1.14,0.1-1.3c2.6,0.1,4.37,0.16,6.55,0.16
		c2.08,0,3.85-0.05,6.45-0.16c0.31,0.16,0.42,1.09,0.1,1.3l-1.3,0.1c-3.07,0.26-3.17,1.14-3.17,6.65v18.51c0,5.51,0.1,6.24,3.17,6.6
		l1.3,0.16c0.31,0.21,0.21,1.14-0.1,1.3c-2.6-0.1-4.37-0.16-6.45-0.16c-2.18,0-3.95,0.05-6.55,0.16c-0.31-0.16-0.42-0.99-0.1-1.3
		l1.3-0.16c3.07-0.36,3.17-1.09,3.17-6.6V458.53z"/>
	<path class="st0" d="M1466.15,477.14c0,5.46,0.1,6.24,3.12,6.5l1.66,0.16c0.31,0.21,0.21,1.14-0.1,1.3
		c-2.96-0.1-4.73-0.16-6.81-0.16c-2.08,0-3.9,0.05-7.23,0.16c-0.31-0.16-0.42-1.04,0-1.3l1.87-0.16c2.96-0.26,3.22-1.04,3.22-6.5
		v-23.24c0-1.61,0-1.66-1.56-1.66h-2.86c-2.24,0-5.09,0.1-6.39,1.3c-1.25,1.14-1.77,2.29-2.34,3.59c-0.42,0.31-1.14,0.05-1.35-0.36
		c0.83-2.34,1.61-5.67,1.98-7.75c0.16-0.1,0.83-0.16,0.99,0c0.31,1.66,2.03,1.61,4.42,1.61h21.05c2.81,0,3.27-0.1,4.05-1.46
		c0.26-0.1,0.83-0.05,0.94,0.16c-0.57,2.13-0.94,6.34-0.78,7.9c-0.21,0.42-1.09,0.42-1.35,0.1c-0.16-1.3-0.52-3.22-1.3-3.79
		c-1.2-0.88-3.17-1.3-6.03-1.3h-3.69c-1.56,0-1.51,0.05-1.51,1.77V477.14z"/>
	<path class="st0" d="M1496.74,458.53c0-5.51-0.1-6.39-3.17-6.65l-1.3-0.1c-0.31-0.21-0.21-1.14,0.1-1.3
		c2.6,0.1,4.37,0.16,6.55,0.16c2.08,0,3.85-0.05,6.45-0.16c0.31,0.16,0.42,1.09,0.1,1.3l-1.3,0.1c-3.07,0.26-3.17,1.14-3.17,6.65
		v18.51c0,5.51,0.1,6.24,3.17,6.6l1.3,0.16c0.31,0.21,0.21,1.14-0.1,1.3c-2.6-0.1-4.37-0.16-6.45-0.16c-2.18,0-3.95,0.05-6.55,0.16
		c-0.31-0.16-0.42-0.99-0.1-1.3l1.3-0.16c3.07-0.36,3.17-1.09,3.17-6.6V458.53z"/>
	<path class="st0" d="M1516.5,468.15c0-10.4,7.8-18.35,18.51-18.35c12.01,0,18.04,8.68,18.04,17.83c0,10.5-8.01,18.14-18.04,18.14
		C1523.47,485.77,1516.5,477.51,1516.5,468.15z M1547.85,469.24c0-8.58-3.79-17.83-13.72-17.83c-5.41,0-12.42,3.69-12.42,15.08
		c0,7.69,3.74,17.68,13.98,17.68C1541.92,484.16,1547.85,479.48,1547.85,469.24z"/>
	<path class="st0" d="M1596.65,476.1c0,1.56,0,7.75,0.16,9.1c-0.1,0.31-0.42,0.57-0.99,0.57c-0.62-0.88-2.13-2.7-6.65-7.85
		l-12.06-13.72c-1.4-1.61-4.94-5.87-6.03-7.02h-0.1c-0.21,0.62-0.26,1.82-0.26,3.38v11.33c0,2.44,0.05,9.2,0.94,10.76
		c0.31,0.57,1.35,0.88,2.65,0.99l1.61,0.16c0.31,0.42,0.26,1.04-0.1,1.3c-2.34-0.1-4.16-0.16-6.08-0.16c-2.18,0-3.59,0.05-5.41,0.16
		c-0.36-0.26-0.42-0.99-0.1-1.3l1.4-0.16c1.2-0.16,2.03-0.47,2.29-1.04c0.73-1.87,0.68-8.21,0.68-10.71v-15.02
		c0-1.46-0.05-2.55-1.14-3.74c-0.73-0.73-1.98-1.09-3.22-1.25l-0.88-0.1c-0.31-0.31-0.31-1.09,0.1-1.3
		c2.18,0.16,4.94,0.16,5.88,0.16c0.83,0,1.72-0.05,2.39-0.16c1.04,2.65,7.17,9.51,8.89,11.44l5.04,5.67c3.59,4,6.13,6.91,8.58,9.41
		h0.1c0.21-0.26,0.21-1.09,0.21-2.18v-11.13c0-2.44-0.05-9.2-1.04-10.76c-0.31-0.47-1.14-0.78-3.22-1.04l-0.88-0.1
		c-0.36-0.31-0.31-1.14,0.1-1.3c2.39,0.1,4.16,0.16,6.13,0.16c2.24,0,3.59-0.05,5.36-0.16c0.42,0.26,0.42,0.99,0.1,1.3l-0.73,0.1
		c-1.66,0.26-2.7,0.68-2.91,1.09c-0.88,1.87-0.78,8.32-0.78,10.71V476.1z"/>
	<path class="st0" d="M1631.65,472.88c-0.36-1.14-0.57-1.3-2.13-1.3h-7.85c-1.3,0-1.61,0.16-1.98,1.25l-1.82,5.46
		c-0.78,2.34-1.14,3.74-1.14,4.31c0,0.62,0.26,0.94,1.51,1.04l1.72,0.16c0.36,0.26,0.36,1.09-0.1,1.3c-1.35-0.1-2.96-0.1-5.41-0.16
		c-1.72,0-3.59,0.1-4.99,0.16c-0.31-0.21-0.42-1.04-0.1-1.3l1.72-0.16c1.25-0.1,2.39-0.68,3.12-2.55c0.94-2.39,2.39-5.77,4.57-11.59
		l5.3-14.04c0.73-1.87,1.04-2.86,0.88-3.69c1.25-0.36,2.13-1.3,2.7-1.98c0.31,0,0.68,0.1,0.78,0.47c0.68,2.29,1.51,4.68,2.29,6.97
		l7.12,20.9c1.51,4.47,2.18,5.25,4.42,5.51l1.4,0.16c0.36,0.26,0.26,1.09,0,1.3c-2.13-0.1-3.95-0.16-6.29-0.16
		c-2.5,0-4.47,0.1-5.98,0.16c-0.42-0.21-0.47-1.04-0.1-1.3l1.51-0.16c1.09-0.1,1.82-0.42,1.82-0.94c0-0.57-0.26-1.51-0.68-2.76
		L1631.65,472.88z M1621.36,468.25c-0.42,1.2-0.36,1.25,1.09,1.25h6.39c1.51,0,1.61-0.21,1.14-1.61l-2.81-8.47
		c-0.42-1.25-0.88-2.65-1.2-3.28h-0.1c-0.16,0.26-0.68,1.51-1.25,3.07L1621.36,468.25z"/>
	<path class="st0" d="M1659.35,458.43c0-5.46-0.1-6.29-3.38-6.55l-1.3-0.1c-0.31-0.21-0.21-1.14,0.1-1.3
		c2.91,0.1,4.68,0.16,6.76,0.16c2.03,0,3.79-0.05,6.39-0.16c0.31,0.16,0.42,1.09,0.1,1.3l-1.25,0.1c-3.07,0.26-3.17,1.09-3.17,6.55
		v18.09c0,3.28,0.16,4.63,1.09,5.61c0.57,0.57,1.56,1.2,5.67,1.2c4.42,0,5.51-0.21,6.34-0.68c1.04-0.62,2.39-2.5,3.43-5.15
		c0.31-0.26,1.3-0.05,1.3,0.31c0,0.57-1.46,5.87-2.18,7.28c-2.65-0.1-7.59-0.16-12.95-0.16h-4.78c-2.18,0-3.85,0.05-6.76,0.16
		c-0.31-0.16-0.42-0.99-0.1-1.3l1.56-0.16c3.02-0.31,3.12-1.04,3.12-6.5V458.43z"/>
	<path class="st0" d="M1715.6,457.39c0-3.85-0.21-4.83-2.55-5.04l-1.66-0.16c-0.42-0.31-0.36-1.09,0.05-1.3
		c2.81-0.26,6.34-0.42,11.18-0.42c3.27,0,6.39,0.26,8.73,1.46c2.24,1.09,3.95,3.17,3.95,6.5c0,3.74-2.18,5.67-5.3,7.12
		c0,0.52,0.42,0.68,0.99,0.78c2.81,0.52,6.97,3.12,6.97,8.68c0,6.03-4.47,10.09-13.83,10.09c-1.51,0-4.05-0.16-6.24-0.16
		c-2.29,0-4.05,0.1-5.98,0.16c-0.31-0.16-0.42-0.99-0.1-1.3l0.94-0.16c2.76-0.47,2.86-1.04,2.86-6.5V457.39z M1719.86,464.3
		c0,1.46,0.05,1.56,2.7,1.46c5.3-0.21,8.16-1.77,8.16-6.65c0-5.09-3.79-7.02-7.75-7.02c-1.14,0-1.92,0.1-2.39,0.31
		c-0.52,0.16-0.73,0.42-0.73,1.35V464.3z M1719.86,476.36c0,1.87,0.1,4.52,1.09,5.67c0.99,1.2,2.55,1.46,4.11,1.46
		c4.63,0,8.16-2.08,8.16-7.28c0-4.11-2.08-8.89-10.34-8.89c-2.81,0-3.02,0.31-3.02,1.35V476.36z"/>
	<path class="st0" d="M1753.61,458.43c0-5.46-0.1-6.29-3.38-6.55l-1.3-0.1c-0.31-0.21-0.21-1.14,0.1-1.3
		c2.91,0.1,4.68,0.16,6.76,0.16c2.03,0,3.79-0.05,6.39-0.16c0.31,0.16,0.42,1.09,0.1,1.3l-1.25,0.1c-3.07,0.26-3.17,1.09-3.17,6.55
		v18.09c0,3.28,0.16,4.63,1.09,5.61c0.57,0.57,1.56,1.2,5.67,1.2c4.42,0,5.51-0.21,6.34-0.68c1.04-0.62,2.39-2.5,3.43-5.15
		c0.31-0.26,1.3-0.05,1.3,0.31c0,0.57-1.46,5.87-2.18,7.28c-2.65-0.1-7.59-0.16-12.95-0.16h-4.78c-2.18,0-3.85,0.05-6.76,0.16
		c-0.31-0.16-0.42-0.99-0.1-1.3l1.56-0.16c3.02-0.31,3.12-1.04,3.12-6.5V458.43z"/>
	<path class="st0" d="M1813.7,463.68c0-3.22-0.1-9.2-0.99-10.76c-0.36-0.62-1.3-0.99-2.6-1.09l-1.3-0.1
		c-0.31-0.36-0.21-1.04,0.1-1.25c1.98,0.1,3.9,0.16,5.93,0.16c2.18,0,3.59-0.05,5.46-0.16c0.42,0.26,0.36,0.94,0.1,1.25l-1.25,0.1
		c-1.3,0.1-2.29,0.57-2.6,1.25c-0.73,1.72-0.73,7.69-0.73,10.6v5.87c0,4.52-0.73,9.31-3.64,12.42c-2.24,2.44-6.08,3.8-9.93,3.8
		c-3.59,0-7.17-0.68-9.72-2.86c-2.75-2.29-4.05-6.08-4.05-12.27v-12.27c0-5.41-0.1-6.29-3.12-6.55l-1.3-0.1
		c-0.31-0.21-0.21-1.09,0.1-1.25c2.6,0.1,4.37,0.16,6.45,0.16c2.13,0,3.85-0.05,6.39-0.16c0.31,0.16,0.42,1.04,0.1,1.25l-1.25,0.1
		c-3.01,0.26-3.12,1.14-3.12,6.55v11.23c0,8.37,2.6,13.88,10.55,13.88c7.54,0,10.4-5.93,10.4-13.83V463.68z"/>
	<path class="st0" d="M1836.39,458.43c0-5.41-0.1-6.19-3.17-6.55l-0.83-0.1c-0.31-0.21-0.21-1.14,0.1-1.3c2.24,0.1,4,0.16,6.13,0.16
		h9.77c3.33,0,6.39,0,7.02-0.16c0.31,0.88,0.62,4.63,0.83,6.91c-0.21,0.31-1.04,0.42-1.3,0.1c-0.78-2.44-1.25-4.26-3.95-4.94
		c-1.09-0.26-2.76-0.31-5.04-0.31h-3.74c-1.56,0-1.56,0.1-1.56,2.08v10.4c0,1.46,0.16,1.46,1.72,1.46h3.02
		c2.18,0,3.79-0.1,4.42-0.31c0.62-0.21,0.99-0.52,1.25-1.82l0.42-2.13c0.26-0.31,1.14-0.31,1.35,0.05c0,1.25-0.21,3.27-0.21,5.25
		c0,1.87,0.21,3.85,0.21,4.99c-0.21,0.36-1.09,0.36-1.35,0.05l-0.47-2.03c-0.21-0.94-0.57-1.72-1.61-1.98
		c-0.73-0.21-1.98-0.26-4-0.26h-3.02c-1.56,0-1.72,0.05-1.72,1.4v7.33c0,2.76,0.16,4.52,0.99,5.41c0.62,0.62,1.71,1.2,6.29,1.2
		c4,0,5.51-0.21,6.65-0.78c0.94-0.52,2.34-2.34,3.69-5.04c0.36-0.26,1.09-0.1,1.3,0.36c-0.36,1.82-1.66,5.82-2.34,7.23
		c-4.68-0.1-9.31-0.16-13.93-0.16h-4.68c-2.24,0-4,0.05-7.07,0.16c-0.31-0.16-0.42-0.99-0.1-1.3l1.71-0.16
		c2.96-0.26,3.22-1.04,3.22-6.5V458.43z"/>
</g>
</svg>
