<?xml version="1.0" encoding="utf-8"?>
<!-- Generator: Adobe Illustrator 24.1.0, SVG Export Plug-In . SVG Version: 6.00 Build 0)  -->
<svg version="1.1" id="Layer_1" xmlns="http://www.w3.org/2000/svg" xmlns:xlink="http://www.w3.org/1999/xlink" x="0px" y="0px"
	 viewBox="942.8099975585938 347.3799743652344 1005.0398559570312 140.45993041992188" xml:space="preserve">
<style type="text/css">
	.st0{fill:#D0B669;}
</style>
<g>
	<path class="st0" d="M1005.39,407.07c0,4.16,0.62,6.65,2.5,7.38c0.31,0.31,0.31,0.94-0.1,1.25c-1.25,0-3.12,0.42-5.09,0.94
		c-5.51,1.46-13,2.7-18.61,2.7c-12.37,0-23.71-3.43-31.71-11.54c-6.24-6.24-9.57-14.45-9.57-23.6c0-8.84,2.91-17.78,9.36-24.64
		c6.97-7.28,17.26-12.17,32.96-12.17c5.93,0,11.44,1.14,13.2,1.56c1.98,0.42,5.2,1.14,6.45,0.94c0,3.43,0.62,8.84,1.56,15.08
		c-0.31,0.83-2.18,0.94-2.81,0.31c-2.91-11.23-10.71-14.76-21.31-14.76c-20.17,0-29.01,14.35-29.01,29.94
		c0,19.96,10.29,35.66,31.19,35.66c6.45,0,10.29-1.35,11.44-3.12c0.52-0.73,1.04-2.6,1.04-5.93v-4.16c0-8.73-0.31-9.36-6.76-10.09
		l-4.58-0.52c-0.83-0.42-0.73-2.29,0-2.6c3.02,0.21,8.73,0.31,14.87,0.31c4.06,0,7.59-0.1,11.02-0.31c0.73,0.42,0.83,1.98,0.1,2.6
		l-1.66,0.21c-4.37,0.52-4.47,3.43-4.47,8.73V407.07z"/>
	<path class="st0" d="M1042.54,364.75c0-9.88-0.31-11.65-4.57-12.17l-3.33-0.42c-0.73-0.52-0.73-2.18,0.1-2.6
		c5.82-0.52,13-0.83,23.19-0.83c6.45,0,12.58,0.52,17.36,3.12c4.99,2.6,8.63,7.28,8.63,14.56c0,9.88-7.8,15.28-13,17.36
		c-0.52,0.62,0,1.66,0.52,2.5c8.32,13.41,13.83,21.73,20.9,27.66c1.77,1.56,4.37,2.7,7.17,2.91c0.52,0.21,0.62,1.04,0.1,1.46
		c-0.94,0.31-2.6,0.52-4.58,0.52c-8.84,0-14.14-2.6-21.52-13.1c-2.7-3.85-6.97-11.02-10.19-15.7c-1.56-2.29-3.22-3.33-7.38-3.33
		c-4.68,0-4.89,0.1-4.89,2.29v13.1c0,10.92,0.21,12.17,6.24,13l2.18,0.31c0.62,0.52,0.42,2.29-0.21,2.6
		c-4.68-0.21-8.21-0.31-12.37-0.31c-4.37,0-8.11,0.1-13,0.31c-0.62-0.31-0.83-1.87-0.21-2.6l2.6-0.31c6.03-0.73,6.24-2.08,6.24-13
		V364.75z M1051.07,379.62c0,1.87,0,3.02,0.31,3.43c0.31,0.31,1.87,0.52,7.17,0.52c3.74,0,7.69-0.42,10.71-2.7
		c2.81-2.18,5.2-5.82,5.2-12.89c0-8.21-5.09-16.01-16.64-16.01c-6.45,0-6.76,0.42-6.76,3.33V379.62z"/>
	<path class="st0" d="M1162.12,393.55c-0.73-2.29-1.14-2.6-4.26-2.6h-15.7c-2.6,0-3.22,0.31-3.95,2.5l-3.64,10.92
		c-1.56,4.68-2.29,7.49-2.29,8.63c0,1.25,0.52,1.87,3.02,2.08l3.43,0.31c0.73,0.52,0.73,2.18-0.21,2.6
		c-2.7-0.21-5.93-0.21-10.81-0.31c-3.43,0-7.17,0.21-9.98,0.31c-0.62-0.42-0.83-2.08-0.21-2.6l3.43-0.31
		c2.5-0.21,4.78-1.35,6.24-5.09c1.87-4.78,4.78-11.54,9.15-23.19l10.61-28.07c1.46-3.74,2.08-5.72,1.77-7.38
		c2.5-0.73,4.26-2.6,5.41-3.95c0.62,0,1.35,0.21,1.56,0.94c1.35,4.57,3.02,9.36,4.58,13.93l14.24,41.8
		c3.02,8.94,4.37,10.5,8.84,11.02l2.81,0.31c0.73,0.52,0.52,2.18,0,2.6c-4.26-0.21-7.9-0.31-12.58-0.31
		c-4.99,0-8.94,0.21-11.96,0.31c-0.83-0.42-0.94-2.08-0.21-2.6l3.02-0.31c2.18-0.21,3.64-0.83,3.64-1.87c0-1.14-0.52-3.02-1.35-5.51
		L1162.12,393.55z M1141.53,384.3c-0.83,2.39-0.73,2.5,2.18,2.5h12.79c3.02,0,3.22-0.42,2.29-3.22l-5.61-16.95
		c-0.83-2.5-1.77-5.3-2.39-6.55h-0.21c-0.31,0.52-1.35,3.02-2.5,6.13L1141.53,384.3z"/>
	<path class="st0" d="M1272.75,400c0,3.12,0,15.49,0.31,18.2c-0.21,0.62-0.83,1.14-1.98,1.14c-1.25-1.77-4.26-5.41-13.31-15.7
		l-24.12-27.45c-2.81-3.22-9.88-11.75-12.06-14.04h-0.21c-0.42,1.25-0.52,3.64-0.52,6.76v22.67c0,4.89,0.1,18.4,1.87,21.52
		c0.62,1.14,2.7,1.77,5.3,1.98l3.22,0.31c0.62,0.83,0.52,2.08-0.21,2.6c-4.68-0.21-8.32-0.31-12.16-0.31
		c-4.37,0-7.17,0.1-10.81,0.31c-0.73-0.52-0.83-1.98-0.21-2.6l2.81-0.31c2.39-0.31,4.05-0.94,4.57-2.08
		c1.46-3.74,1.35-16.43,1.35-21.42v-30.05c0-2.91-0.1-5.09-2.29-7.49c-1.46-1.46-3.95-2.18-6.45-2.5l-1.77-0.21
		c-0.62-0.62-0.62-2.18,0.21-2.6c4.37,0.31,9.88,0.31,11.75,0.31c1.66,0,3.43-0.1,4.78-0.31c2.08,5.3,14.35,19.03,17.78,22.87
		l10.09,11.33c7.17,8.01,12.27,13.83,17.16,18.82h0.21c0.42-0.52,0.42-2.18,0.42-4.37v-22.25c0-4.89-0.1-18.4-2.08-21.52
		c-0.62-0.94-2.29-1.56-6.45-2.08l-1.77-0.21c-0.73-0.62-0.62-2.29,0.21-2.6c4.78,0.21,8.32,0.31,12.27,0.31
		c4.47,0,7.17-0.1,10.71-0.31c0.83,0.52,0.83,1.98,0.21,2.6l-1.46,0.21c-3.33,0.52-5.41,1.35-5.82,2.18
		c-1.77,3.74-1.56,16.64-1.56,21.42V400z"/>
	<path class="st0" d="M1313.61,362.57c0-7.28-0.52-9.46-4.89-10.09l-2.29-0.31c-0.83-0.52-0.94-2.18,0.1-2.6
		c8.84-0.52,17.26-0.83,26.1-0.83c8.73,0,16.12,0.62,22.87,3.12c14.04,5.09,21.11,16.95,21.11,30.67c0,13.2-6.34,24.54-18.2,30.98
		c-6.76,3.64-15.28,4.99-23.29,4.99c-6.65,0-13.31-0.83-16.95-0.83c-4.37,0-8.11,0.1-13,0.31c-0.62-0.31-0.83-1.98-0.21-2.6
		l2.39-0.31c6.03-0.83,6.24-2.08,6.24-13V362.57z M1322.13,399.69c0,5.51,0.31,8.84,2.08,11.33c2.29,3.22,6.24,4.26,12.79,4.26
		c20.17,0,29.22-13.2,29.22-32.54c0-11.44-5.51-30.78-32.75-30.78c-6.13,0-9.46,0.83-10.29,1.46c-0.83,0.62-1.04,3.22-1.04,7.9
		V399.69z"/>
	<path class="st0" d="M1446.79,360.08c-2.39-5.82-3.95-8.01-8.42-8.53l-1.87-0.21c-0.73-0.62-0.62-2.08,0.21-2.6
		c3.02,0.21,6.34,0.31,10.81,0.31c4.58,0,8.21-0.1,12.58-0.31c0.73,0.42,0.94,1.98,0.21,2.6l-1.56,0.21
		c-3.95,0.52-4.78,1.14-4.89,1.98c0.21,1.04,1.98,6.65,5.2,14.56c4.78,12.06,9.57,24.02,14.76,35.87
		c3.22-6.86,7.59-17.57,9.98-23.08c3.02-7.07,7.9-18.82,9.67-23.29c0.83-2.18,0.94-3.33,0.94-4.05c0-0.73-1.04-1.56-4.68-1.98
		l-1.87-0.21c-0.73-0.62-0.52-2.18,0.21-2.6c2.91,0.21,6.86,0.31,10.81,0.31c3.43,0,6.65-0.1,10.09-0.31
		c0.73,0.42,0.73,2.08,0.21,2.6l-3.12,0.21c-2.5,0.21-4.06,1.46-5.41,3.64c-2.91,4.89-6.97,13.31-11.65,23.91l-5.61,12.79
		c-4.16,9.57-9.05,21.63-10.81,27.14c-0.31,0.21-0.73,0.31-1.14,0.31c-0.52,0-1.04-0.1-1.56-0.31c-1.14-4.37-3.02-9.46-4.78-13.83
		L1446.79,360.08z"/>
	<path class="st0" d="M1539.38,364.86c0-11.02-0.21-12.79-6.34-13.31l-2.6-0.21c-0.62-0.42-0.42-2.29,0.21-2.6
		c5.2,0.21,8.73,0.31,13.1,0.31c4.16,0,7.69-0.1,12.89-0.31c0.62,0.31,0.83,2.18,0.21,2.6l-2.6,0.21
		c-6.13,0.52-6.34,2.29-6.34,13.31v37.01c0,11.02,0.21,12.48,6.34,13.21l2.6,0.31c0.62,0.42,0.42,2.29-0.21,2.6
		c-5.2-0.21-8.73-0.31-12.89-0.31c-4.37,0-7.9,0.1-13.1,0.31c-0.62-0.31-0.83-1.98-0.21-2.6l2.6-0.31
		c6.13-0.73,6.34-2.18,6.34-13.21V364.86z"/>
	<path class="st0" d="M1589.45,360.08c-2.39-5.82-3.95-8.01-8.42-8.53l-1.87-0.21c-0.73-0.62-0.62-2.08,0.21-2.6
		c3.02,0.21,6.34,0.31,10.81,0.31c4.58,0,8.21-0.1,12.58-0.31c0.73,0.42,0.94,1.98,0.21,2.6l-1.56,0.21
		c-3.95,0.52-4.78,1.14-4.89,1.98c0.21,1.04,1.98,6.65,5.2,14.56c4.78,12.06,9.57,24.02,14.76,35.87
		c3.22-6.86,7.59-17.57,9.98-23.08c3.01-7.07,7.9-18.82,9.67-23.29c0.83-2.18,0.94-3.33,0.94-4.05c0-0.73-1.04-1.56-4.68-1.98
		l-1.87-0.21c-0.73-0.62-0.52-2.18,0.21-2.6c2.91,0.21,6.86,0.31,10.81,0.31c3.43,0,6.65-0.1,10.08-0.31
		c0.73,0.42,0.73,2.08,0.21,2.6l-3.12,0.21c-2.5,0.21-4.05,1.46-5.41,3.64c-2.91,4.89-6.97,13.31-11.65,23.91l-5.61,12.79
		c-4.16,9.57-9.05,21.63-10.81,27.14c-0.31,0.21-0.73,0.31-1.14,0.31c-0.52,0-1.04-0.1-1.56-0.31c-1.14-4.37-3.02-9.46-4.78-13.83
		L1589.45,360.08z"/>
	<path class="st0" d="M1682.03,364.86c0-11.02-0.21-12.79-6.34-13.31l-2.6-0.21c-0.62-0.42-0.42-2.29,0.21-2.6
		c5.2,0.21,8.73,0.31,13.1,0.31c4.16,0,7.69-0.1,12.89-0.31c0.62,0.31,0.83,2.18,0.21,2.6l-2.6,0.21
		c-6.13,0.52-6.34,2.29-6.34,13.31v37.01c0,11.02,0.21,12.48,6.34,13.21l2.6,0.31c0.62,0.42,0.42,2.29-0.21,2.6
		c-5.2-0.21-8.73-0.31-12.89-0.31c-4.37,0-7.9,0.1-13.1,0.31c-0.62-0.31-0.83-1.98-0.21-2.6l2.6-0.31
		c6.13-0.73,6.34-2.18,6.34-13.21V364.86z"/>
	<path class="st0" d="M1732.44,362.57c0-7.28-0.52-9.46-4.89-10.09l-2.29-0.31c-0.83-0.52-0.94-2.18,0.1-2.6
		c8.84-0.52,17.26-0.83,26.1-0.83c8.73,0,16.12,0.62,22.87,3.12c14.04,5.09,21.11,16.95,21.11,30.67c0,13.2-6.34,24.54-18.2,30.98
		c-6.76,3.64-15.28,4.99-23.29,4.99c-6.65,0-13.31-0.83-16.95-0.83c-4.37,0-8.11,0.1-13,0.31c-0.62-0.31-0.83-1.98-0.21-2.6
		l2.39-0.31c6.03-0.83,6.24-2.08,6.24-13V362.57z M1740.97,399.69c0,5.51,0.31,8.84,2.08,11.33c2.29,3.22,6.24,4.26,12.79,4.26
		c20.17,0,29.22-13.2,29.22-32.54c0-11.44-5.51-30.78-32.75-30.78c-6.13,0-9.46,0.83-10.29,1.46c-0.83,0.62-1.04,3.22-1.04,7.9
		V399.69z"/>
	<path class="st0" d="M1874.64,375.15c0-6.45-0.21-18.4-1.98-21.52c-0.73-1.25-2.6-1.98-5.2-2.18l-2.6-0.21
		c-0.62-0.73-0.42-2.08,0.21-2.5c3.95,0.21,7.8,0.31,11.85,0.31c4.37,0,7.17-0.1,10.92-0.31c0.83,0.52,0.73,1.87,0.21,2.5l-2.5,0.21
		c-2.6,0.21-4.58,1.14-5.2,2.5c-1.46,3.43-1.46,15.39-1.46,21.21v11.75c0,9.05-1.46,18.61-7.28,24.85
		c-4.47,4.89-12.17,7.59-19.86,7.59c-7.17,0-14.35-1.35-19.44-5.72c-5.51-4.57-8.11-12.16-8.11-24.54v-24.54
		c0-10.81-0.21-12.58-6.24-13.1l-2.6-0.21c-0.62-0.42-0.42-2.18,0.21-2.5c5.2,0.21,8.73,0.31,12.89,0.31c4.26,0,7.69-0.1,12.79-0.31
		c0.62,0.31,0.83,2.08,0.21,2.5l-2.5,0.21c-6.03,0.52-6.24,2.29-6.24,13.1V387c0,16.74,5.2,27.76,21.11,27.76
		c15.08,0,20.79-11.85,20.79-27.66V375.15z"/>
	<path class="st0" d="M1925.7,419.34c-8.73,0-14.24-2.7-16.22-3.85c-1.25-2.29-2.6-9.67-2.81-14.56c0.52-0.73,2.08-0.94,2.5-0.31
		c1.56,5.3,5.82,15.49,17.88,15.49c8.73,0,13-5.72,13-11.96c0-4.57-0.94-9.67-8.53-14.56l-9.88-6.45
		c-5.2-3.43-11.23-9.36-11.23-17.88c0-9.88,7.69-17.88,21.21-17.88c3.22,0,6.97,0.62,9.67,1.35c1.35,0.42,2.81,0.62,3.64,0.62
		c0.94,2.5,1.87,8.32,1.87,12.68c-0.42,0.62-2.08,0.94-2.6,0.31c-1.35-4.99-4.16-11.75-14.14-11.75c-10.19,0-12.37,6.76-12.37,11.54
		c0,6.03,4.99,10.4,8.84,12.79l8.32,5.2c6.55,4.05,13,10.09,13,19.96C1947.85,411.54,1939.22,419.34,1925.7,419.34z"/>
	<path class="st0" d="M1206.06,459.44c0-3.85-0.21-4.83-2.55-5.04l-1.66-0.16c-0.42-0.31-0.36-1.09,0.05-1.3
		c2.81-0.26,6.34-0.42,11.18-0.42c3.28,0,6.39,0.26,8.73,1.46c2.24,1.09,3.95,3.17,3.95,6.5c0,3.74-2.18,5.67-5.3,7.12
		c0,0.52,0.42,0.68,0.99,0.78c2.81,0.52,6.97,3.12,6.97,8.68c0,6.03-4.47,10.09-13.83,10.09c-1.51,0-4.06-0.16-6.24-0.16
		c-2.29,0-4.06,0.1-5.98,0.16c-0.31-0.16-0.42-0.99-0.1-1.3l0.94-0.16c2.76-0.47,2.86-1.04,2.86-6.5V459.44z M1210.32,466.35
		c0,1.46,0.05,1.56,2.7,1.46c5.3-0.21,8.16-1.77,8.16-6.65c0-5.09-3.79-7.02-7.75-7.02c-1.14,0-1.92,0.1-2.39,0.31
		c-0.52,0.16-0.73,0.42-0.73,1.35V466.35z M1210.32,478.41c0,1.87,0.1,4.52,1.09,5.67c0.99,1.2,2.55,1.46,4.11,1.46
		c4.63,0,8.16-2.08,8.16-7.28c0-4.11-2.08-8.89-10.35-8.89c-2.81,0-3.02,0.31-3.02,1.35V478.41z"/>
	<path class="st0" d="M1244.07,460.48c0-5.46-0.1-6.29-3.38-6.55l-1.3-0.1c-0.31-0.21-0.21-1.14,0.1-1.3
		c2.91,0.1,4.68,0.16,6.76,0.16c2.03,0,3.79-0.05,6.39-0.16c0.31,0.16,0.42,1.09,0.1,1.3l-1.25,0.1c-3.07,0.26-3.17,1.09-3.17,6.55
		v18.09c0,3.28,0.16,4.63,1.09,5.61c0.57,0.57,1.56,1.2,5.67,1.2c4.42,0,5.51-0.21,6.34-0.68c1.04-0.62,2.39-2.5,3.43-5.15
		c0.31-0.26,1.3-0.05,1.3,0.31c0,0.57-1.46,5.87-2.18,7.28c-2.65-0.1-7.59-0.16-12.94-0.16h-4.78c-2.18,0-3.85,0.05-6.76,0.16
		c-0.31-0.16-0.42-0.99-0.1-1.3l1.56-0.16c3.02-0.31,3.12-1.04,3.12-6.5V460.48z"/>
	<path class="st0" d="M1297.44,474.93c-0.36-1.14-0.57-1.3-2.13-1.3h-7.85c-1.3,0-1.61,0.16-1.98,1.25l-1.82,5.46
		c-0.78,2.34-1.14,3.74-1.14,4.31c0,0.62,0.26,0.94,1.51,1.04l1.72,0.16c0.36,0.26,0.36,1.09-0.1,1.3c-1.35-0.1-2.96-0.1-5.41-0.16
		c-1.72,0-3.59,0.1-4.99,0.16c-0.31-0.21-0.42-1.04-0.1-1.3l1.72-0.16c1.25-0.1,2.39-0.68,3.12-2.55c0.94-2.39,2.39-5.77,4.58-11.59
		l5.3-14.04c0.73-1.87,1.04-2.86,0.88-3.69c1.25-0.36,2.13-1.3,2.7-1.98c0.31,0,0.68,0.1,0.78,0.47c0.68,2.29,1.51,4.68,2.29,6.97
		l7.12,20.9c1.51,4.47,2.18,5.25,4.42,5.51l1.4,0.16c0.36,0.26,0.26,1.09,0,1.3c-2.13-0.1-3.95-0.16-6.29-0.16
		c-2.5,0-4.47,0.1-5.98,0.16c-0.42-0.21-0.47-1.04-0.1-1.3l1.51-0.16c1.09-0.1,1.82-0.42,1.82-0.94c0-0.57-0.26-1.51-0.68-2.76
		L1297.44,474.93z M1287.15,470.3c-0.42,1.2-0.36,1.25,1.09,1.25h6.39c1.51,0,1.61-0.21,1.14-1.61l-2.81-8.47
		c-0.42-1.25-0.88-2.65-1.2-3.28h-0.1c-0.16,0.26-0.68,1.51-1.25,3.07L1287.15,470.3z"/>
	<path class="st0" d="M1323.14,456.26c3.79-2.96,8.63-4.42,14.04-4.42c2.81,0,6.76,0.57,9.2,1.25c0.62,0.16,0.99,0.26,1.46,0.21
		c0.05,1.2,0.31,4.47,0.73,7.64c-0.26,0.36-1.04,0.42-1.4,0.1c-0.78-3.54-3.12-7.59-10.66-7.59c-7.95,0-14.71,5.04-14.71,15.8
		c0,10.92,6.91,16.95,15.44,16.95c6.71,0,9.67-4.37,10.87-7.43c0.36-0.26,1.14-0.16,1.35,0.21c-0.36,2.7-1.72,6.13-2.5,7.12
		c-0.62,0.1-1.25,0.31-1.82,0.52c-1.14,0.42-4.89,1.2-8.21,1.2c-4.68,0-9.15-0.94-12.94-3.48c-4.16-2.86-7.38-7.59-7.38-14.3
		C1316.59,464.27,1319.19,459.33,1323.14,456.26z"/>
	<path class="st0" d="M1364.88,460.48c0-5.46-0.1-6.29-3.12-6.55l-1.3-0.1c-0.31-0.21-0.21-1.14,0.1-1.3
		c2.55,0.1,4.21,0.16,6.55,0.16c2.03,0,3.79-0.05,6.03-0.16c0.31,0.16,0.42,1.09,0.1,1.3l-0.99,0.1c-3.02,0.31-3.12,1.09-3.12,6.55
		v5.98c0,0.99,0.1,1.98,0.68,1.98c0.47,0,1.09-0.31,1.46-0.57c0.73-0.62,2.08-1.98,2.65-2.5l5.61-5.56
		c0.99-0.94,3.54-3.59,4.06-4.31c0.26-0.36,0.36-0.62,0.36-0.83c0-0.21-0.21-0.36-0.88-0.52l-1.4-0.31c-0.36-0.36-0.31-1.04,0.1-1.3
		c1.82,0.1,3.9,0.16,5.72,0.16c1.82,0,3.59-0.05,5.15-0.16c0.36,0.26,0.42,0.99,0.1,1.3c-1.35,0.1-3.38,0.62-4.83,1.46
		c-1.46,0.83-4.37,3.28-7.28,6.03l-4.68,4.42c-0.73,0.73-1.2,1.2-1.2,1.61c0,0.36,0.31,0.78,0.99,1.61
		c4.94,5.67,8.94,10.35,13,14.61c1.25,1.25,2.39,1.92,4.16,2.13l1.4,0.16c0.36,0.26,0.26,1.14-0.1,1.3
		c-1.35-0.1-3.38-0.16-5.82-0.16c-2.13,0-3.95,0.05-6.34,0.16c-0.36-0.1-0.52-0.99-0.21-1.3l1.2-0.21c0.73-0.1,1.25-0.26,1.25-0.52
		c0-0.31-0.36-0.73-0.73-1.2c-0.99-1.25-2.34-2.65-4.31-4.89l-4.16-4.68c-2.96-3.33-3.79-4.37-5.04-4.37c-0.78,0-0.88,0.68-0.88,2.5
		v6.71c0,5.46,0.1,6.19,3.02,6.5l1.4,0.16c0.31,0.21,0.21,1.14-0.1,1.3c-2.55-0.1-4.31-0.16-6.34-0.16c-2.13,0-3.9,0.05-6.03,0.16
		c-0.31-0.16-0.42-0.94-0.1-1.3l1.04-0.16c2.76-0.42,2.86-1.04,2.86-6.5V460.48z"/>
	<path class="st0" d="M1432.45,487.82c-4.37,0-7.12-1.35-8.11-1.92c-0.62-1.14-1.3-4.83-1.4-7.28c0.26-0.36,1.04-0.47,1.25-0.16
		c0.78,2.65,2.91,7.75,8.94,7.75c4.37,0,6.5-2.86,6.5-5.98c0-2.29-0.47-4.83-4.26-7.28l-4.94-3.22c-2.6-1.72-5.61-4.68-5.61-8.94
		c0-4.94,3.85-8.94,10.61-8.94c1.61,0,3.48,0.31,4.83,0.68c0.68,0.21,1.4,0.31,1.82,0.31c0.47,1.25,0.94,4.16,0.94,6.34
		c-0.21,0.31-1.04,0.47-1.3,0.16c-0.68-2.5-2.08-5.87-7.07-5.87c-5.09,0-6.19,3.38-6.19,5.77c0,3.02,2.5,5.2,4.42,6.39l4.16,2.6
		c3.28,2.03,6.5,5.04,6.5,9.98C1443.53,483.92,1439.21,487.82,1432.45,487.82z"/>
	<path class="st0" d="M1466.85,470.2c-2.5,0-2.6,0.1-2.6,1.66v7.33c0,5.46,0.26,6.19,3.17,6.5l1.51,0.16
		c0.31,0.21,0.21,1.14-0.1,1.3c-2.81-0.1-4.58-0.16-6.6-0.16c-2.24,0-4,0.1-6.03,0.16c-0.31-0.16-0.42-0.99-0.1-1.3l0.88-0.16
		c2.91-0.52,3.02-1.04,3.02-6.5v-18.72c0-5.46-0.36-6.34-3.07-6.55l-1.35-0.1c-0.31-0.21-0.21-1.14,0.1-1.3
		c2.55,0.05,4.31,0.16,6.55,0.16c2.03,0,3.79-0.05,6.03-0.16c0.31,0.16,0.42,1.09,0.1,1.3l-0.99,0.1c-3.02,0.31-3.12,1.09-3.12,6.55
		v5.98c0,1.61,0.1,1.66,2.6,1.66h14.87c2.5,0,2.6-0.05,2.6-1.66v-5.98c0-5.46-0.1-6.24-3.17-6.55l-0.99-0.1
		c-0.31-0.21-0.21-1.14,0.1-1.3c2.39,0.1,4.16,0.16,6.29,0.16c2.03,0,3.79-0.05,6.13-0.16c0.31,0.16,0.42,1.09,0.1,1.3l-1.09,0.1
		c-3.02,0.31-3.12,1.09-3.12,6.55v18.72c0,5.46,0.1,6.13,3.12,6.5l1.25,0.16c0.31,0.21,0.21,1.14-0.1,1.3
		c-2.5-0.1-4.26-0.16-6.29-0.16c-2.13,0-4,0.05-6.29,0.16c-0.31-0.16-0.42-0.99-0.1-1.3l0.99-0.16c3.17-0.52,3.17-1.04,3.17-6.5
		v-7.33c0-1.56-0.1-1.66-2.6-1.66H1466.85z"/>
	<path class="st0" d="M1526.23,474.93c-0.36-1.14-0.57-1.3-2.13-1.3h-7.85c-1.3,0-1.61,0.16-1.98,1.25l-1.82,5.46
		c-0.78,2.34-1.14,3.74-1.14,4.31c0,0.62,0.26,0.94,1.51,1.04l1.72,0.16c0.36,0.26,0.36,1.09-0.1,1.3c-1.35-0.1-2.96-0.1-5.41-0.16
		c-1.72,0-3.59,0.1-4.99,0.16c-0.31-0.21-0.42-1.04-0.1-1.3l1.72-0.16c1.25-0.1,2.39-0.68,3.12-2.55c0.94-2.39,2.39-5.77,4.57-11.59
		l5.3-14.04c0.73-1.87,1.04-2.86,0.88-3.69c1.25-0.36,2.13-1.3,2.7-1.98c0.31,0,0.68,0.1,0.78,0.47c0.68,2.29,1.51,4.68,2.29,6.97
		l7.12,20.9c1.51,4.47,2.18,5.25,4.42,5.51l1.4,0.16c0.36,0.26,0.26,1.09,0,1.3c-2.13-0.1-3.95-0.16-6.29-0.16
		c-2.5,0-4.47,0.1-5.98,0.16c-0.42-0.21-0.47-1.04-0.1-1.3l1.51-0.16c1.09-0.1,1.82-0.42,1.82-0.94c0-0.57-0.26-1.51-0.68-2.76
		L1526.23,474.93z M1515.94,470.3c-0.42,1.2-0.36,1.25,1.09,1.25h6.39c1.51,0,1.61-0.21,1.14-1.61l-2.81-8.47
		c-0.42-1.25-0.88-2.65-1.2-3.28h-0.1c-0.16,0.26-0.68,1.51-1.25,3.07L1515.94,470.3z"/>
	<path class="st0" d="M1553.73,459.44c0-3.64-0.26-4.73-2.44-5.04l-1.14-0.16c-0.42-0.26-0.47-1.09,0.05-1.3
		c4.42-0.26,8.63-0.42,13.05-0.42c4.37,0,8.06,0.31,11.44,1.56c7.02,2.55,10.55,8.47,10.55,15.34c0,6.6-3.17,12.27-9.1,15.49
		c-3.38,1.82-7.64,2.5-11.64,2.5c-3.33,0-6.65-0.42-8.47-0.42c-2.18,0-4.05,0.05-6.5,0.16c-0.31-0.16-0.42-0.99-0.1-1.3l1.2-0.16
		c3.02-0.42,3.12-1.04,3.12-6.5V459.44z M1558,478c0,2.76,0.16,4.42,1.04,5.67c1.14,1.61,3.12,2.13,6.39,2.13
		c10.08,0,14.61-6.6,14.61-16.27c0-5.72-2.76-15.39-16.38-15.39c-3.07,0-4.73,0.42-5.15,0.73c-0.42,0.31-0.52,1.61-0.52,3.95V478z"
		/>
	<path class="st0" d="M1597.7,470.2c0-10.4,7.8-18.35,18.51-18.35c12.01,0,18.04,8.68,18.04,17.83c0,10.5-8.01,18.14-18.04,18.14
		C1604.66,487.82,1597.7,479.55,1597.7,470.2z M1629.04,471.29c0-8.58-3.79-17.83-13.72-17.83c-5.41,0-12.42,3.69-12.42,15.08
		c0,7.69,3.74,17.68,13.98,17.68C1623.12,486.21,1629.04,481.53,1629.04,471.29z"/>
	<path class="st0" d="M1641.8,453.77c-0.31-0.31-0.26-1.04,0.16-1.25c1.4,0.1,3.74,0.16,5.35,0.16c1.46,0,4.11-0.05,5.93-0.16
		c0.47,0.16,0.42,0.88,0.1,1.25l-1.2,0.1c-1.09,0.1-1.72,0.42-1.72,0.88c0,0.62,1.09,3.28,2.7,6.97c2.91,6.5,5.98,13,8.99,19.39
		c1.25-2.6,2.65-5.51,4-8.42c0.47-0.99,0.83-1.87,0.83-2.13s-0.16-0.73-0.42-1.35c-1.82-4.16-3.74-8.32-5.72-12.48
		c-0.78-1.61-1.56-2.7-3.33-2.86l-1.25-0.1c-0.36-0.42-0.31-1.04,0.1-1.25c1.51,0.1,3.48,0.16,5.56,0.16c2.6,0,4.52-0.05,5.72-0.16
		c0.36,0.16,0.42,0.83,0.1,1.25l-1.35,0.1c-2.03,0.16-2.08,0.52-1.09,2.86c1.09,2.55,2.55,5.82,4,9.05c0.99-2.03,1.92-4,3.07-6.81
		c1.87-4.42,1.61-4.99-0.05-5.09l-1.56-0.1c-0.36-0.52-0.26-1.09,0.1-1.25c1.4,0.1,2.96,0.16,4.89,0.16c1.72,0,3.79-0.05,4.99-0.16
		c0.36,0.16,0.42,0.83,0.1,1.25l-1.51,0.1c-2.18,0.16-3.12,2.5-4.26,4.63c-1.09,1.92-3.27,6.45-4.05,8.27
		c-0.26,0.52-0.47,1.04-0.47,1.25s0.1,0.62,0.36,1.25c1.77,4,3.59,7.9,5.3,11.85c1.61-3.64,3.17-7.28,4.68-10.97
		c1.04-2.5,3.79-9.41,4.16-10.35c0.68-1.87,1.56-4.11,1.56-4.73c0-0.73-0.62-1.14-1.71-1.2l-1.51-0.1
		c-0.42-0.47-0.36-1.04,0.05-1.25c1.98,0.1,3.38,0.16,4.99,0.16c1.97,0,3.48-0.05,4.83-0.16c0.42,0.16,0.47,0.83,0.1,1.25l-0.99,0.1
		c-2.6,0.26-3.07,1.82-6.19,9.05l-3.79,8.79c-2.29,5.3-4.37,10.4-6.5,15.96c-0.16,0.1-0.36,0.16-0.62,0.16s-0.52-0.05-0.73-0.16
		c-1.66-4.63-4.68-11.12-6.29-14.76c-1.87,3.79-4.99,10.45-6.5,14.76c-0.16,0.1-0.36,0.16-0.62,0.16c-0.26,0-0.52-0.05-0.78-0.16
		c-0.88-2.18-2.91-6.86-3.59-8.37c-3.33-7.23-6.55-14.45-9.93-21.68c-0.99-2.13-1.61-3.54-3.79-3.74L1641.8,453.77z"/>
</g>
</svg>
