<svg
   xmlns:dc="http://purl.org/dc/elements/1.1/"
   xmlns:cc="http://creativecommons.org/ns#"
   xmlns:rdf="http://www.w3.org/1999/02/22-rdf-syntax-ns#"
   xmlns:svg="http://www.w3.org/2000/svg"
   xmlns="http://www.w3.org/2000/svg"
   viewBox="0 0 321.26001 321.26001"
   height="321.26001"
   width="321.26001"
   xml:space="preserve"
   id="svg2"
   version="1.1"><metadata
     id="metadata8"><rdf:RDF><cc:Work
         rdf:about=""><dc:format>image/svg+xml</dc:format><dc:type
           rdf:resource="http://purl.org/dc/dcmitype/StillImage" /></cc:Work></rdf:RDF></metadata><defs
     id="defs6"><clipPath
       id="clipPath18"
       clipPathUnits="userSpaceOnUse"><path
         id="path16"
         d="M 0,240.945 H 240.945 V 0 H 0 Z" /></clipPath></defs><g
     transform="matrix(1.3333333,0,0,-1.3333333,0,321.26)"
     id="g10"><g
       id="g12"><g
         clip-path="url(#clipPath18)"
         id="g14"><g
           transform="translate(129.4889,168.2362)"
           id="g20"><path
             id="path22"
             style="fill:#ffffff;fill-opacity:1;fill-rule:nonzero;stroke:none"
             d="m 0,0 c 0.27,-0.432 0.551,-0.769 0.83,-1.108 0.236,-0.286 0.458,-0.582 0.687,-0.874 0.545,-0.695 1.094,-1.386 1.633,-2.085 0.355,-0.462 0.695,-0.936 1.041,-1.404 0.168,-0.226 0.339,-0.45 0.507,-0.676 0.074,-0.099 0.144,-0.201 0.217,-0.301 0.49,-0.67 0.982,-1.338 1.47,-2.01 0.363,-0.5 0.719,-1.006 1.082,-1.506 0.384,-0.529 0.773,-1.054 1.161,-1.58 0.376,-0.513 0.749,-1.027 1.128,-1.538 0.253,-0.34 0.514,-0.674 0.769,-1.012 0.372,-0.494 0.741,-0.989 1.114,-1.483 0.159,-0.211 0.323,-0.419 0.487,-0.626 0.396,-0.498 0.779,-1.006 1.193,-1.489 0.886,-1.032 1.741,-2.095 2.755,-3.007 0.367,-0.33 0.765,-0.627 1.136,-0.953 0.602,-0.529 1.283,-0.937 1.974,-1.33 0.659,-0.375 1.317,-0.751 2.037,-1.006 0.548,-0.196 1.082,-0.428 1.633,-0.609 1.141,-0.376 2.301,-0.671 3.5,-0.805 0.333,-0.038 0.663,-0.095 1,-0.089 0.122,0.002 0.245,-0.032 0.366,-0.053 0.131,-0.022 0.23,-0.081 0.263,-0.223 0.036,-0.15 0.009,-0.286 -0.106,-0.388 -0.064,-0.056 -0.145,-0.109 -0.226,-0.126 -0.188,-0.042 -0.38,-0.087 -0.571,-0.086 -2.722,0.003 -5.444,0.004 -8.165,0.027 -0.936,0.007 -1.875,0.036 -2.807,0.123 -0.963,0.09 -1.934,0.16 -2.879,0.394 -0.701,0.174 -1.415,0.314 -2.064,0.652 -0.328,0.171 -0.656,0.344 -0.971,0.538 -0.966,0.598 -1.819,1.342 -2.619,2.143 -0.587,0.588 -1.136,1.213 -1.698,1.824 -0.669,0.729 -1.257,1.525 -1.871,2.299 -0.67,0.842 -1.282,1.729 -1.921,2.596 -0.64,0.867 -1.306,1.715 -1.913,2.604 -0.508,0.742 -1.053,1.461 -1.498,2.246 -0.2,0.352 -0.446,0.677 -0.663,1.021 -0.461,0.731 -0.917,1.466 -1.375,2.199 -0.664,1.063 -1.301,2.144 -2.004,3.18 -0.359,0.528 -0.69,1.066 -0.99,1.625 -0.294,0.546 -0.505,1.123 -0.61,1.739 -0.043,0.251 -0.023,0.49 0.035,0.734 0.074,0.301 0.265,0.498 0.547,0.599 0.165,0.059 0.341,0.102 0.515,0.119 0.913,0.089 1.724,0.422 2.514,0.891 0.936,0.556 1.648,1.331 2.327,2.143 0.417,0.498 0.764,1.061 1.032,1.66 0.194,0.433 0.418,0.851 0.591,1.298 0.423,1.094 0.696,2.224 0.877,3.374 0.269,1.716 0.297,3.447 0.173,5.18 -0.095,1.326 -0.327,2.63 -0.727,3.891 -0.423,1.333 -1.028,2.583 -1.855,3.731 -0.555,0.769 -1.219,1.421 -1.904,2.055 -0.386,0.357 -0.842,0.643 -1.287,0.928 -0.974,0.625 -2.042,1.046 -3.154,1.342 -0.836,0.223 -1.687,0.386 -2.562,0.37 -0.565,-0.011 -1.132,-0.006 -1.697,-0.001 -0.799,0.008 -1.587,-0.09 -2.37,-0.23 -0.222,-0.04 -0.447,-0.116 -0.645,-0.224 -0.331,-0.181 -0.517,-0.472 -0.512,-0.864 0.004,-0.301 0.003,-0.602 0.003,-0.902 0,-11.533 -0.003,-23.066 0.004,-34.599 0.001,-1.218 0.054,-2.438 0.08,-3.657 0.009,-0.424 0.005,-0.848 0.019,-1.272 0.019,-0.565 0.05,-1.129 0.077,-1.694 0.008,-0.176 0.031,-0.353 0.029,-0.529 -0.017,-1.205 0.141,-2.399 0.235,-3.596 0.072,-0.91 0.242,-1.812 0.509,-2.691 0.056,-0.185 0.124,-0.367 0.189,-0.55 0.307,-0.87 0.988,-1.31 1.827,-1.528 0.441,-0.113 0.91,-0.113 1.356,-0.211 0.644,-0.142 1.303,-0.085 1.95,-0.181 0.329,-0.05 0.67,-0.015 1.006,-0.023 0.141,-0.003 0.285,-0.002 0.422,-0.031 0.228,-0.048 0.333,-0.296 0.221,-0.499 -0.07,-0.128 -0.168,-0.235 -0.319,-0.255 -0.262,-0.036 -0.525,-0.082 -0.787,-0.081 -1.325,0.009 -2.649,0.029 -3.973,0.05 -0.742,0.013 -1.485,0.034 -2.227,0.055 -1.413,0.039 -2.825,0.09 -4.238,0.118 -0.814,0.016 -1.627,-0.004 -2.441,-0.008 -0.442,-0.002 -0.885,0.008 -1.326,-0.011 -2.774,-0.122 -5.549,-0.093 -8.324,-0.123 -0.284,-0.003 -0.567,0 -0.849,0.009 -0.215,0.008 -0.422,0.059 -0.595,0.196 -0.117,0.091 -0.193,0.21 -0.161,0.367 0.029,0.141 0.134,0.202 0.266,0.221 0.174,0.026 0.348,0.058 0.523,0.065 0.353,0.015 0.707,0.017 1.061,0.02 1.116,0.006 2.216,0.178 3.318,0.323 0.511,0.067 0.985,0.272 1.409,0.575 0.418,0.298 0.669,0.727 0.888,1.171 0.265,0.541 0.416,1.125 0.494,1.722 0.121,0.926 0.252,1.854 0.324,2.784 0.076,0.986 0.119,1.976 0.124,2.964 0.018,3.36 0.013,6.72 0.018,10.08 10e-4,0.601 0.015,1.202 0.014,1.803 0,0.194 -0.024,0.387 -0.043,0.579 -0.027,0.268 -0.196,0.412 -0.441,0.462 -0.172,0.035 -0.351,0.05 -0.527,0.049 -2.068,-0.014 -4.136,-0.029 -6.205,-0.054 -1.183,-0.014 -2.368,-0.019 -3.549,-0.082 -0.807,-0.044 -1.62,-0.06 -2.415,-0.277 -0.963,-0.264 -1.813,-0.707 -2.459,-1.47 -0.399,-0.47 -0.703,-1.003 -0.869,-1.616 -0.182,-0.669 -0.293,-1.343 -0.318,-2.033 -0.006,-0.177 -0.012,-0.355 -0.042,-0.528 -0.04,-0.222 -0.168,-0.335 -0.345,-0.341 -0.225,-0.008 -0.41,0.138 -0.447,0.366 -0.018,0.104 -0.01,0.211 -0.014,0.317 -0.032,1.007 -0.051,2.014 -0.1,3.02 -0.037,0.741 -0.112,1.479 -0.171,2.218 -0.039,0.493 -0.059,0.989 -0.121,1.479 -0.123,0.98 -0.268,1.956 -0.406,2.934 -0.052,0.367 -0.115,0.731 -0.164,1.098 -0.022,0.162 -0.005,0.324 0.164,0.413 0.14,0.073 0.299,0.02 0.461,-0.163 0.177,-0.198 0.337,-0.409 0.511,-0.609 0.126,-0.145 0.261,-0.284 0.395,-0.421 0.425,-0.436 0.975,-0.626 1.545,-0.762 0.636,-0.152 1.285,-0.212 1.939,-0.219 1.078,-0.012 2.156,-0.03 3.235,-0.04 2.387,-0.024 4.773,-0.045 7.16,-0.066 0.778,-0.006 1.556,-0.008 2.335,-0.013 0.088,0 0.176,-0.002 0.265,0.001 0.279,0.01 0.469,0.159 0.557,0.413 0.05,0.146 0.065,0.31 0.065,0.466 -0.001,7.994 -0.006,15.988 -0.011,23.983 0,0.318 0.001,0.637 -0.026,0.953 -0.031,0.345 -0.385,0.693 -0.725,0.744 -0.069,0.011 -0.141,0.01 -0.212,0.008 -0.936,-0.025 -1.872,-0.054 -2.808,-0.077 -0.742,-0.019 -1.484,-0.034 -2.226,-0.047 -1.785,-0.031 -3.569,-0.063 -5.354,-0.089 -0.865,-0.013 -1.731,-0.005 -2.597,-0.023 -0.992,-0.02 -1.966,-0.164 -2.909,-0.489 -0.786,-0.271 -1.462,-0.707 -2.021,-1.32 -0.288,-0.317 -0.507,-0.673 -0.59,-1.105 -0.077,-0.398 -0.199,-0.789 -0.252,-1.189 -0.048,-0.366 -0.024,-0.74 -0.041,-1.11 -0.012,-0.264 -0.028,-0.53 -0.067,-0.79 -0.023,-0.16 -0.109,-0.308 -0.282,-0.355 -0.194,-0.053 -0.413,-0.049 -0.529,0.217 -0.122,0.279 -0.148,0.578 -0.182,0.873 -0.044,0.385 -0.064,0.773 -0.094,1.16 -0.006,0.07 -0.012,0.141 -0.015,0.211 -0.053,1.271 -0.105,2.542 -0.158,3.812 -0.047,1.115 -0.255,2.204 -0.538,3.281 -0.045,0.17 -0.108,0.337 -0.138,0.511 -0.024,0.136 -0.03,0.283 -0.007,0.419 0.03,0.182 0.217,0.298 0.398,0.258 0.119,-0.027 0.236,-0.074 0.341,-0.134 0.68,-0.381 1.413,-0.535 2.185,-0.534 0.053,0 0.107,0.007 0.159,-0.003 0.842,-0.155 1.693,-0.089 2.541,-0.105 1.588,-0.03 3.178,-0.069 4.767,-0.078 2.033,-0.013 4.066,0 6.099,10e-4 0.989,0.001 1.979,-0.003 2.968,0.003 4.452,0.024 8.903,0.045 13.355,0.08 1.573,0.013 3.145,0.068 4.717,0.09 0.423,0.007 0.847,-0.035 1.27,-0.056 0.212,-0.011 0.424,-0.039 0.636,-0.034 1.011,0.024 2.014,-0.079 3.011,-0.212 1.644,-0.218 3.272,-0.529 4.834,-1.112 0.777,-0.291 1.529,-0.638 2.262,-1.033 0.782,-0.422 1.506,-0.917 2.182,-1.488 0.149,-0.126 0.289,-0.261 0.422,-0.403 0.664,-0.712 1.275,-1.469 1.774,-2.305 0.876,-1.466 1.486,-3.04 1.755,-4.731 0.085,-0.539 0.106,-1.089 0.138,-1.636 C 10.138,16.304 10.051,15.422 9.955,14.545 9.838,13.455 9.553,12.398 9.202,11.361 8.788,10.134 8.221,8.976 7.523,7.889 7.028,7.117 6.499,6.36 5.915,5.654 4.971,4.511 3.995,3.39 2.886,2.398 2.162,1.751 1.421,1.122 0.681,0.493 0.481,0.323 0.257,0.184 0,0" /></g><g
           transform="translate(92.883,129.4471)"
           id="g24"><path
             id="path26"
             style="fill:#ffffff;fill-opacity:1;fill-rule:nonzero;stroke:none"
             d="M 0,0 C 0.478,-0.054 0.949,-0.017 1.42,0.015 1.722,0.036 1.95,0.182 2.139,0.407 2.548,0.896 2.354,1.463 1.729,1.598 1.244,1.703 0.751,1.699 0.258,1.69 0,1.685 -0.076,1.607 -0.084,1.33 -0.095,0.978 -0.09,0.626 -0.081,0.274 -0.079,0.192 -0.034,0.111 0,0 M 1.959,-0.256 C 2.048,-0.324 2.096,-0.375 2.155,-0.403 2.357,-0.497 2.489,-0.66 2.605,-0.839 2.682,-0.958 2.757,-1.078 2.829,-1.2 3.027,-1.534 3.282,-1.785 3.699,-1.812 3.746,-1.815 3.791,-1.857 3.835,-1.885 3.884,-1.915 3.878,-2.045 3.83,-2.069 3.814,-2.077 3.801,-2.092 3.785,-2.096 3.208,-2.241 2.528,-1.99 2.208,-1.508 2.11,-1.362 2.013,-1.212 1.941,-1.052 1.772,-0.68 1.479,-0.477 1.088,-0.424 0.792,-0.385 0.489,-0.38 0.189,-0.375 c -0.157,0.004 -0.261,-0.103 -0.27,-0.268 -0.012,-0.229 -0.008,-0.459 -0.005,-0.689 0.003,-0.261 0.12,-0.434 0.387,-0.493 0.063,-0.014 0.121,-0.052 0.17,-0.074 0.018,-0.14 -0.056,-0.204 -0.143,-0.205 -0.494,-0.008 -0.989,-0.008 -1.483,10e-4 -0.099,0.002 -0.148,0.083 -0.113,0.193 0.009,0.01 0.018,0.029 0.032,0.035 0.537,0.25 0.476,0.183 0.484,0.741 0.01,0.796 0.003,1.591 0.001,2.386 0,0.141 -0.018,0.281 -0.024,0.374 -0.116,0.243 -0.45,0.136 -0.494,0.445 0.054,0.022 0.112,0.065 0.17,0.065 C -0.357,2.139 0.386,2.146 1.127,2.13 1.55,2.122 1.968,2.088 2.376,1.934 2.783,1.78 3.019,1.526 3.083,1.096 3.147,0.661 2.966,0.336 2.64,0.083 2.519,-0.011 2.36,-0.058 2.219,-0.127 2.145,-0.163 2.072,-0.2 1.959,-0.256" /></g><g
           transform="translate(123.2057,129.4456)"
           id="g28"><path
             id="path30"
             style="fill:#ffffff;fill-opacity:1;fill-rule:nonzero;stroke:none"
             d="M 0,0 C 0.586,-0.021 1.13,-0.044 1.664,0.062 1.955,0.119 2.151,0.347 2.296,0.59 2.52,0.968 2.324,1.444 1.908,1.568 1.343,1.736 0.76,1.695 0.181,1.684 0.06,1.681 -0.023,1.592 -0.032,1.484 -0.068,1.014 -0.093,0.542 0,0 m 0.627,-1.958 c -0.176,-0.084 -0.25,-0.148 -0.324,-0.15 -0.459,-0.008 -0.919,-0.003 -1.378,10e-4 -0.128,0.001 -0.191,0.066 -0.169,0.197 0.523,0.269 0.524,0.269 0.526,0.888 0.002,0.725 0.002,1.449 0,2.174 -0.001,0.175 -0.014,0.35 -0.019,0.455 -0.117,0.27 -0.513,0.148 -0.483,0.508 0.095,0.01 0.18,0.026 0.264,0.026 0.619,0 1.237,0 1.855,-0.008 C 1.182,2.13 1.467,2.128 1.745,2.088 1.987,2.055 2.227,1.983 2.458,1.903 3.002,1.716 3.17,1.37 3.108,0.777 3.063,0.342 2.751,0.064 2.352,-0.103 2.245,-0.148 2.137,-0.191 2.006,-0.244 2.068,-0.311 2.097,-0.365 2.139,-0.381 2.387,-0.476 2.53,-0.672 2.665,-0.884 2.77,-1.047 2.889,-1.202 2.986,-1.37 3.131,-1.618 3.337,-1.759 3.622,-1.791 3.69,-1.798 3.765,-1.814 3.823,-1.848 3.862,-1.871 3.901,-1.933 3.899,-1.976 3.897,-2.016 3.847,-2.083 3.81,-2.088 3.401,-2.151 2.996,-2.145 2.63,-1.922 c -0.115,0.071 -0.221,0.176 -0.3,0.288 -0.134,0.185 -0.261,0.38 -0.357,0.586 -0.175,0.37 -0.466,0.574 -0.855,0.627 -0.297,0.041 -0.599,0.043 -0.899,0.048 -0.156,0.003 -0.261,-0.106 -0.269,-0.27 -0.01,-0.229 -0.004,-0.459 0,-0.689 0.004,-0.26 0.116,-0.437 0.387,-0.493 0.062,-0.013 0.119,-0.053 0.29,-0.133" /></g><g
           transform="translate(84.2829,129.4505)"
           id="g32"><path
             id="path34"
             style="fill:#ffffff;fill-opacity:1;fill-rule:nonzero;stroke:none"
             d="M 0,0 C 0.515,-0.065 1.022,-0.026 1.526,0.033 1.676,0.051 1.826,0.134 1.96,0.214 2.261,0.393 2.403,0.716 2.319,1.079 2.249,1.379 2.029,1.534 1.725,1.6 1.238,1.706 0.746,1.69 0.254,1.686 0.022,1.684 -0.072,1.598 -0.079,1.37 -0.09,0.983 -0.083,0.596 -0.076,0.209 -0.075,0.145 -0.031,0.081 0,0 M 1.94,-0.254 C 2.438,-0.623 2.767,-1.004 3.004,-1.464 3.081,-1.612 3.215,-1.7 3.375,-1.742 3.511,-1.778 3.651,-1.798 3.785,-1.841 3.821,-1.853 3.862,-1.923 3.86,-1.965 3.858,-2.007 3.81,-2.052 3.773,-2.086 3.75,-2.109 3.709,-2.127 3.678,-2.125 3.433,-2.109 3.184,-2.107 2.944,-2.063 2.573,-1.995 2.309,-1.778 2.158,-1.423 2.104,-1.295 2.025,-1.175 1.95,-1.057 1.65,-0.588 1.239,-0.336 0.663,-0.393 0.488,-0.41 0.311,-0.39 0.136,-0.398 0.015,-0.405 -0.063,-0.489 -0.07,-0.604 c -0.015,-0.228 -0.017,-0.458 -0.011,-0.687 0.006,-0.265 0.084,-0.484 0.387,-0.553 0.043,-0.01 0.081,-0.1 0.091,-0.159 0.005,-0.023 -0.071,-0.088 -0.111,-0.089 -0.475,-0.004 -0.95,-0.002 -1.425,0.007 -0.041,10e-4 -0.081,0.06 -0.126,0.097 0.059,0.234 0.335,0.179 0.478,0.414 0.008,0.061 0.038,0.198 0.039,0.335 0.004,0.848 0.002,1.696 0.002,2.543 0,0.053 -0.002,0.106 -0.002,0.159 0,0.182 -0.091,0.296 -0.26,0.355 -0.082,0.028 -0.173,0.05 -0.237,0.103 -0.025,0.021 -0.009,0.143 0.027,0.174 0.046,0.038 0.131,0.042 0.198,0.042 0.707,10e-4 1.413,0.009 2.119,-0.01 C 1.432,2.118 1.763,2.053 2.095,2.022 2.337,2 2.523,1.869 2.708,1.73 3.241,1.331 3.288,0.31 2.499,-0.016 2.339,-0.082 2.18,-0.151 1.94,-0.254" /></g><g
           transform="translate(153.0319,131.139)"
           id="g36"><path
             id="path38"
             style="fill:#ffffff;fill-opacity:1;fill-rule:nonzero;stroke:none"
             d="m 0,0 c -0.138,0.198 -0.416,0.143 -0.472,0.406 0.05,0.029 0.105,0.09 0.161,0.092 0.457,0.008 0.915,0.005 1.373,0.004 0.034,0 0.074,-0.006 0.1,-0.026 C 1.201,0.447 1.254,0.406 1.259,0.366 1.263,0.327 1.222,0.26 1.184,0.244 1.059,0.19 0.925,0.153 0.793,0.109 0.778,-0.026 0.757,-0.13 0.756,-0.234 c -0.003,-0.706 -0.005,-1.412 0,-2.119 0.001,-0.138 0.021,-0.281 0.058,-0.415 0.077,-0.272 0.243,-0.448 0.532,-0.531 0.557,-0.159 1.12,-0.149 1.675,-0.048 0.438,0.079 0.719,0.45 0.73,0.913 0.018,0.705 0.002,1.411 0.014,2.116 C 3.77,-0.029 3.667,0.155 3.373,0.215 3.324,0.225 3.281,0.262 3.243,0.282 3.188,0.404 3.262,0.455 3.347,0.487 3.394,0.506 3.45,0.507 3.503,0.507 3.907,0.508 4.312,0.511 4.716,0.505 4.801,0.503 4.889,0.474 4.965,0.437 4.997,0.421 5.003,0.352 5.019,0.312 4.998,0.288 4.989,0.268 4.976,0.263 4.466,0.06 4.465,0.06 4.463,-0.501 4.461,-1.137 4.46,-1.772 4.463,-2.408 4.464,-2.782 4.362,-3.119 4.054,-3.341 3.842,-3.493 3.603,-3.641 3.354,-3.702 2.59,-3.89 1.813,-3.888 1.049,-3.694 0.833,-3.639 0.633,-3.506 0.437,-3.388 0.264,-3.284 0.169,-3.104 0.129,-2.911 0.078,-2.671 0.034,-2.425 0.028,-2.181 0.014,-1.633 0.025,-1.085 0.022,-0.538 0.021,-0.345 0.007,-0.152 0,0" /></g><g
           transform="translate(106.7043,127.7215)"
           id="g40"><path
             id="path42"
             style="fill:#ffffff;fill-opacity:1;fill-rule:nonzero;stroke:none"
             d="m 0,0 c -0.15,-0.075 -0.267,-0.185 -0.358,-0.167 -0.187,0.034 -0.116,0.226 -0.129,0.356 -0.026,0.246 -0.046,0.492 -0.052,0.739 -0.001,0.053 0.057,0.142 0.103,0.154 0.05,0.012 0.119,-0.045 0.177,-0.076 C -0.246,0.999 -0.24,0.977 -0.23,0.962 0.291,0.149 1.076,-0.073 1.973,0.024 2.204,0.049 2.442,0.19 2.633,0.336 3,0.617 2.911,1.146 2.475,1.312 2.213,1.412 1.93,1.455 1.656,1.523 1.247,1.625 0.835,1.718 0.429,1.831 0.279,1.872 0.133,1.945 0,2.028 -0.636,2.423 -0.645,3.185 -0.014,3.579 0.551,3.931 1.166,4.038 1.818,3.894 2.007,3.852 2.208,3.815 2.372,3.722 2.593,3.596 2.768,3.632 2.955,3.764 2.977,3.78 3.021,3.763 3.093,3.759 3.204,3.362 3.189,2.955 3.155,2.549 2.987,2.513 2.956,2.628 2.901,2.709 2.652,3.073 2.308,3.297 1.896,3.448 1.531,3.583 1.167,3.533 0.799,3.511 0.749,3.508 0.697,3.48 0.653,3.454 0.197,3.179 0.151,2.85 0.592,2.564 0.708,2.489 0.843,2.433 0.977,2.4 1.456,2.28 1.937,2.168 2.42,2.065 2.755,1.993 3.06,1.863 3.316,1.637 3.643,1.35 3.725,0.853 3.482,0.487 3.144,-0.02 2.677,-0.344 2.055,-0.408 1.333,-0.482 0.646,-0.377 0,0" /></g><g
           transform="translate(79.5129,130.4798)"
           id="g44"><path
             id="path46"
             style="fill:#ffffff;fill-opacity:1;fill-rule:nonzero;stroke:none"
             d="m 0,0 c -0.125,0.111 -0.207,0.173 -0.277,0.247 -0.233,0.242 -0.53,0.36 -0.852,0.378 -0.51,0.03 -1.023,0.027 -1.535,0.028 -0.163,0 -0.271,-0.097 -0.278,-0.261 -0.022,-0.455 -0.043,-0.912 0.022,-1.374 0.427,-0.147 0.824,-0.042 1.211,-0.037 0.115,0.153 0.214,0.286 0.322,0.43 0.143,-0.132 0.149,-0.266 0.15,-0.409 0.004,-0.526 0.007,-0.526 -0.136,-0.841 -0.111,0.124 -0.211,0.235 -0.339,0.378 -0.178,0.009 -0.388,0.029 -0.599,0.028 -0.189,0 -0.387,0.06 -0.583,-0.056 -0.112,-0.319 -0.072,-0.652 -0.031,-0.981 0.008,-0.062 0.109,-0.141 0.179,-0.159 0.118,-0.03 0.246,-0.021 0.369,-0.02 0.37,0.004 0.741,0.019 1.111,0.018 0.404,0 0.769,0.08 1.05,0.401 0.042,0.048 0.116,0.069 0.177,0.098 0.012,0.006 0.032,-0.007 0.083,-0.02 0.015,-0.246 -0.1,-0.455 -0.214,-0.67 -0.122,-0.226 -0.285,-0.331 -0.549,-0.328 -1.076,0.01 -2.153,0.005 -3.229,0.007 -0.052,0 -0.103,0.018 -0.15,0.028 -0.075,0.091 -0.054,0.172 0.034,0.221 0.122,0.069 0.252,0.121 0.407,0.193 0.013,0.173 0.036,0.346 0.037,0.518 0.003,0.813 0,1.625 -10e-4,2.437 0,0.071 -0.005,0.142 -0.006,0.212 -0.001,0.186 -0.086,0.292 -0.275,0.327 -0.08,0.015 -0.166,0.055 -0.225,0.11 -0.023,0.021 10e-4,0.14 0.039,0.169 0.048,0.036 0.132,0.036 0.201,0.036 1.006,0 2.012,-0.003 3.018,-0.005 0.124,0 0.249,0.004 0.371,-0.011 C -0.433,1.084 -0.347,1.057 -0.314,1.008 -0.15,0.761 0.039,0.522 0.081,0.214 0.086,0.17 0.047,0.12 0,0" /></g><g
           transform="translate(147.3542,130.7767)"
           id="g48"><path
             id="path50"
             style="fill:#ffffff;fill-opacity:1;fill-rule:nonzero;stroke:none"
             d="m 0,0 c -0.404,-0.509 -0.852,-1.389 -0.899,-1.753 0.013,-0.012 0.026,-0.032 0.04,-0.032 0.507,-0.01 1.014,-0.023 1.522,-0.023 0.139,0 0.195,0.133 0.13,0.275 C 0.652,-1.231 0.51,-0.93 0.361,-0.631 0.255,-0.417 0.152,-0.199 0,0 m 1.193,-3.342 c 0.006,0.033 0,0.076 0.019,0.096 0.07,0.076 0.198,0.136 0.212,0.216 0.017,0.108 -0.046,0.232 -0.086,0.345 -0.029,0.083 -0.075,0.16 -0.116,0.238 -0.062,0.121 -0.165,0.179 -0.299,0.184 -0.07,0.003 -0.141,-10e-4 -0.211,-10e-4 -0.529,-0.002 -1.059,-0.003 -1.589,-0.007 -0.122,-10e-4 -0.244,-0.016 -0.394,-0.025 -0.104,-0.22 -0.208,-0.44 -0.322,-0.679 0.099,-0.116 0.196,-0.232 0.318,-0.377 -0.086,-0.037 -0.143,-0.081 -0.201,-0.083 -0.335,-0.009 -0.67,-0.01 -1.005,-0.01 -0.093,0 -0.187,0.036 -0.186,0.141 0,0.051 0.061,0.133 0.11,0.149 0.258,0.08 0.409,0.26 0.525,0.49 0.308,0.614 0.622,1.225 0.938,1.835 0.243,0.469 0.484,0.94 0.743,1.4 C -0.162,0.904 0.271,0.901 0.462,0.565 0.652,0.229 0.812,-0.126 0.989,-0.47 1.353,-1.173 1.718,-1.875 2.084,-2.576 2.225,-2.845 2.376,-3.103 2.699,-3.193 2.736,-3.204 2.776,-3.275 2.776,-3.318 2.775,-3.354 2.72,-3.419 2.687,-3.421 2.197,-3.439 1.707,-3.469 1.221,-3.386 1.21,-3.384 1.203,-3.357 1.193,-3.342" /></g><g
           transform="translate(132.7682,130.8192)"
           id="g52"><path
             id="path54"
             style="fill:#ffffff;fill-opacity:1;fill-rule:nonzero;stroke:none"
             d="m 0,0 c -0.28,-0.367 -0.799,-1.378 -0.922,-1.773 0.041,-0.026 0.084,-0.078 0.127,-0.078 0.491,-0.006 0.983,-0.008 1.475,-0.002 0.054,10e-4 0.109,0.064 0.195,0.117 C 0.537,-1.185 0.393,-0.563 0,0 M 2.9,-3.437 C 2.283,-3.529 1.792,-3.444 1.304,-3.478 1.261,-3.481 1.214,-3.437 1.171,-3.41 c -0.013,0.008 -0.018,0.029 -0.043,0.074 0.115,0.085 0.234,0.172 0.362,0.267 -0.066,0.286 -0.229,0.493 -0.386,0.741 -0.762,0.048 -1.535,-0.019 -2.292,0.022 -0.203,-0.229 -0.286,-0.477 -0.399,-0.732 0.113,-0.114 0.219,-0.22 0.36,-0.363 -0.105,-0.038 -0.163,-0.077 -0.22,-0.078 -0.335,-0.009 -0.671,-0.011 -1.006,-0.009 -0.067,10e-4 -0.135,0.028 -0.197,0.053 -0.03,0.012 -0.069,0.053 -0.067,0.076 0.006,0.047 0.025,0.105 0.06,0.134 0.036,0.032 0.095,0.038 0.146,0.05 0.227,0.054 0.363,0.214 0.462,0.406 0.484,0.939 0.964,1.88 1.444,2.822 0.071,0.14 0.13,0.287 0.193,0.433 0.079,0.183 0.22,0.262 0.415,0.272 C 0.197,0.768 0.346,0.716 0.436,0.529 0.535,0.323 0.645,0.122 0.751,-0.081 1.112,-0.766 1.474,-1.45 1.836,-2.135 1.95,-2.353 2.072,-2.567 2.179,-2.788 2.275,-2.989 2.41,-3.134 2.629,-3.206 2.699,-3.229 2.751,-3.307 2.9,-3.437" /></g><g
           transform="translate(141.2145,128.598)"
           id="g56"><path
             id="path58"
             style="fill:#ffffff;fill-opacity:1;fill-rule:nonzero;stroke:none"
             d="M 0,0 C -0.113,0.145 -0.216,0.277 -0.335,0.428 -0.641,0.442 -0.957,0.46 -1.273,0.469 -1.341,0.471 -1.408,0.441 -1.498,0.421 -1.573,0.047 -1.533,-0.32 -1.507,-0.686 c 0.009,-0.137 0.09,-0.22 0.215,-0.274 0.091,-0.04 0.173,-0.099 0.259,-0.15 -0.035,-0.057 -0.052,-0.109 -0.071,-0.11 -0.475,-0.019 -0.951,-0.035 -1.426,-0.043 -0.079,-0.001 -0.159,0.039 -0.254,0.064 0.069,0.294 0.381,0.215 0.519,0.463 0.009,0.23 0.029,0.528 0.031,0.825 0.004,0.687 -10e-4,1.373 -0.003,2.06 0,0.053 -0.005,0.106 -0.008,0.159 -0.015,0.259 -0.036,0.288 -0.284,0.375 -0.082,0.028 -0.164,0.053 -0.232,0.074 -0.045,0.128 -0.004,0.196 0.097,0.219 0.067,0.016 0.14,0.013 0.21,0.013 0.99,-10e-4 1.98,-0.002 2.971,-0.005 C 0.691,2.983 0.866,2.974 1.057,2.967 1.199,2.686 1.336,2.421 1.463,2.151 1.479,2.119 1.448,2.042 1.415,2.016 1.382,1.99 1.309,1.979 1.272,1.999 1.196,2.039 1.128,2.099 1.064,2.159 0.864,2.348 0.622,2.466 0.356,2.494 -0.239,2.557 -0.838,2.544 -1.432,2.533 -1.6,2.237 -1.521,1.95 -1.532,1.675 -1.544,1.413 -1.535,1.15 -1.535,0.903 c 0.31,-0.119 0.469,-0.12 1.238,-0.014 0.078,0.12 0.16,0.25 0.27,0.42 C 0.039,1.233 0.112,1.189 0.114,1.143 0.126,0.809 0.127,0.474 0.122,0.14 0.121,0.102 0.059,0.065 0,0" /></g><g
           transform="translate(70.4665,129.8392)"
           id="g60"><path
             id="path62"
             style="fill:#ffffff;fill-opacity:1;fill-rule:nonzero;stroke:none"
             d="m 0,0 c 0.144,-0.065 0.16,-0.169 0.167,-0.275 0.032,-0.487 0.012,-0.678 -0.099,-0.921 -0.047,0.023 -0.115,0.033 -0.134,0.07 -0.153,0.304 -0.423,0.34 -0.718,0.336 -0.176,-0.002 -0.353,0.018 -0.529,0.016 -0.121,-0.001 -0.217,-0.082 -0.218,-0.193 -0.001,-0.334 0.014,-0.669 0.044,-1.001 0.006,-0.072 0.091,-0.151 0.159,-0.197 0.083,-0.056 0.188,-0.082 0.272,-0.116 0.035,-0.127 -0.021,-0.211 -0.114,-0.212 -0.511,-0.008 -1.022,-0.005 -1.534,0.002 -0.043,10e-4 -0.086,0.055 -0.112,0.074 0.057,0.218 0.226,0.191 0.35,0.24 0.146,0.057 0.232,0.156 0.233,0.318 10e-4,0.088 0.003,0.177 0.003,0.265 0,0.867 -0.003,1.733 10e-4,2.6 0.002,0.237 -0.036,0.414 -0.328,0.439 -0.125,0.011 -0.232,0.1 -0.144,0.279 0.059,0.008 0.128,0.026 0.197,0.026 0.989,0 1.98,-0.002 2.969,-0.007 C 1.108,1.739 1.027,1.821 1.376,1.156 1.446,1.022 1.551,0.878 1.416,0.682 1.32,0.753 1.213,0.811 1.134,0.894 0.915,1.127 0.63,1.246 0.332,1.26 -0.248,1.288 -0.83,1.269 -1.427,1.269 -1.458,1.206 -1.514,1.146 -1.516,1.084 -1.531,0.661 -1.542,0.238 -1.539,-0.186 c 10e-4,-0.14 0.103,-0.232 0.243,-0.231 0.282,0 0.566,0.005 0.846,0.036 0.091,0.01 0.179,0.097 0.256,0.163 C -0.119,-0.153 -0.06,-0.069 0,0" /></g><g
           transform="translate(161.8551,131.2044)"
           id="g64"><path
             id="path66"
             style="fill:#ffffff;fill-opacity:1;fill-rule:nonzero;stroke:none"
             d="M 0,0 C -0.148,0.047 -0.27,0.073 -0.378,0.127 -0.426,0.15 -0.46,0.227 -0.471,0.286 -0.476,0.309 -0.402,0.375 -0.364,0.375 0.145,0.373 0.654,0.364 1.163,0.351 1.185,0.351 1.204,0.301 1.246,0.247 1.189,0.195 1.139,0.117 1.069,0.092 0.873,0.02 0.811,-0.133 0.783,-0.316 0.777,-0.351 0.776,-0.386 0.776,-0.421 c 0,-0.9 -0.002,-1.8 0.004,-2.7 0,-0.101 0.046,-0.2 0.074,-0.313 0.117,-0.014 0.22,-0.037 0.323,-0.037 0.387,0 0.776,0.012 1.164,0.01 0.418,-0.002 0.804,0.082 1.135,0.355 0.037,0.03 0.093,0.038 0.131,0.052 C 3.751,-3.114 3.753,-3.226 3.701,-3.32 3.616,-3.472 3.515,-3.618 3.404,-3.752 3.308,-3.87 3.162,-3.878 3.016,-3.876 c -0.37,0.004 -0.741,0.002 -1.112,0.002 -0.722,10e-4 -1.445,0 -2.168,10e-4 -0.132,0 -0.255,0.014 -0.224,0.199 0.536,0.218 0.536,0.218 0.539,0.799 0.003,0.753 0.009,1.507 0.004,2.26 C 0.054,-0.408 0.019,-0.2 0,0" /></g><g
           transform="translate(100.2101,127.4549)"
           id="g68"><path
             id="path70"
             style="fill:#ffffff;fill-opacity:1;fill-rule:nonzero;stroke:none"
             d="M 0,0 C 0.064,0.242 0.342,0.175 0.486,0.395 0.493,0.488 0.513,0.644 0.513,0.799 0.517,1.609 0.517,2.42 0.517,3.23 0.517,3.318 0.511,3.407 0.51,3.495 0.508,3.655 0.43,3.758 0.279,3.81 0.197,3.837 0.105,3.853 0.041,3.903 0.002,3.933 0.008,4.02 -0.015,4.115 H 1.784 C 1.756,4.021 1.757,3.936 1.718,3.908 1.65,3.86 1.559,3.844 1.475,3.82 1.321,3.777 1.234,3.681 1.226,3.52 1.22,3.397 1.214,3.274 1.213,3.151 1.211,2.397 1.209,1.644 1.208,0.89 c 0,-0.071 0.001,-0.141 0,-0.211 C 1.207,0.447 1.282,0.271 1.522,0.187 1.612,0.156 1.686,0.08 1.765,0.024 1.729,-0.033 1.711,-0.086 1.692,-0.086 1.167,-0.093 0.641,-0.098 0.115,-0.094 0.077,-0.094 0.039,-0.033 0,0" /></g><g
           transform="translate(170.4811,127.4984)"
           id="g72"><path
             id="path74"
             style="fill:#ffffff;fill-opacity:1;fill-rule:nonzero;stroke:none"
             d="m 0,0 c -0.076,-0.068 -0.123,-0.147 -0.171,-0.148 -0.494,-0.011 -0.988,-0.01 -1.482,-0.004 -0.039,0 -0.099,0.055 -0.111,0.095 -0.008,0.035 0.031,0.117 0.062,0.124 0.464,0.112 0.515,0.443 0.503,0.851 -0.022,0.742 -0.006,1.484 -0.007,2.227 0,0.123 0,0.247 -0.009,0.371 -0.009,0.116 -0.08,0.192 -0.187,0.231 -0.049,0.018 -0.114,0.007 -0.154,0.035 -0.067,0.047 -0.139,0.104 -0.175,0.174 -0.034,0.066 0.088,0.139 0.24,0.139 0.424,-10e-4 0.847,-0.002 1.271,-0.007 0.051,-0.001 0.1,-0.027 0.155,-0.042 0,-0.055 0.02,-0.129 -0.004,-0.15 C -0.134,3.841 -0.216,3.804 -0.295,3.768 -0.423,3.71 -0.478,3.608 -0.482,3.474 -0.486,3.351 -0.489,3.227 -0.489,3.104 -0.488,2.275 -0.48,1.446 -0.49,0.618 -0.493,0.35 -0.412,0.175 -0.139,0.113 -0.108,0.106 -0.085,0.071 0,0" /></g><g
           transform="translate(115.2409,108.6664)"
           id="g76"><path
             id="path78"
             style="fill:#ffffff;fill-opacity:1;fill-rule:nonzero;stroke:none"
             d="M 0,0 2.479,0.043 5.13,-3 7.866,0 h 2.479 L 6.498,-4.025 10.772,-8.557 H 8.293 L 5.102,-5.279 2.023,-8.557 h -2.365 l 4.303,4.3 z" /></g><g
           transform="translate(203.9059,90.4769)"
           id="g80"><path
             id="path82"
             style="fill:#ffffff;fill-opacity:1;fill-rule:nonzero;stroke:none"
             d="m 0,0 c -0.748,1.171 -0.991,1.301 -1.643,1.229 -0.948,-0.102 -0.535,-1.342 -0.24,-1.796 0.297,-0.454 1.305,-0.93 1.9,-1.908 0.596,-0.978 1.213,-2.043 1.684,-2.913 0.204,-0.378 0.671,-0.111 0.21,0.966 C 1.625,-3.756 1.392,-3.289 1.103,-2.721 0.838,-2.2 0.438,-1.45 0.426,-1.003 0.419,-0.808 0.297,-0.465 0,0 m -2.265,-20.07 c -0.457,-0.201 -0.628,-0.286 -0.628,-0.286 0,0 0.654,-0.372 1.42,-0.886 0.914,-0.613 1.842,-1.31 1.842,-1.31 0,0 0.441,0.131 0.792,0.235 1.148,0.339 0.795,0.538 -1.373,1.728 -1.227,0.675 -1.326,0.838 -2.053,0.519 m -21.343,9.159 c -1.093,-0.153 -2.354,-0.703 -3.394,-1.318 -1.661,-0.982 -2.609,-0.63 -2.609,-0.63 0,0 0.561,0.149 1.024,0.567 0.594,0.535 0.387,0.847 -0.198,0.851 -0.701,0.003 -0.81,-0.583 -1.768,-1.434 -0.693,-0.616 -1.43,-0.975 -2.225,-1.072 -1.082,-0.131 -1.785,0.315 -1.785,0.315 0,0 0.574,-0.098 1.289,0.158 1.189,0.425 0.294,0.993 -1.622,0.488 -1.601,-0.421 -2.899,0.609 -3.436,1.233 -1.022,1.188 -0.593,3.078 -0.593,3.078 0,0 0.627,-1.67 3.038,-1.954 1.036,-0.121 1.817,0.284 1.817,0.284 0,0 -0.797,0.035 -1.287,0.378 -0.859,0.598 -0.431,1.607 -0.431,1.607 0,0 1.75,-1.67 5.434,-0.851 3.563,0.793 6.118,0.393 7.778,-0.057 1.659,-0.449 2.743,-1.136 2.743,-1.136 0.375,0.151 0.772,0.4 1.191,0.433 0.885,0.118 1.747,0.086 2.61,-0.033 1.418,-0.237 2.722,-0.746 4.242,-0.616 0.713,0.076 1.405,0.649 1.779,1.243 0,0 -0.572,-0.241 -1.452,-0.123 -1.356,0.181 -1.668,1.091 -1.668,1.091 0,0 2.179,-0.305 2.882,0.888 0,0 -0.61,-0.144 -1.47,0.202 -0.913,0.367 -0.739,0.929 -1.563,1.282 -0.581,0.249 -1.242,0.123 -1.242,0.123 0,0 0.983,1.377 2.701,1.03 2.504,-0.506 2.519,0.587 2.519,0.587 0,0 -0.499,-0.091 -0.999,0.082 -1.48,0.512 -1.273,1.083 -3.132,0.953 0,0 0.938,1.384 2.581,1.26 1.91,-0.145 2.554,0.631 2.554,0.631 0,0 -1.342,-0.09 -2.283,1.347 0,0 1.865,-0.489 3.705,0.698 1.286,0.829 2.404,0.945 2.404,0.945 -0.318,0.953 0.245,2.206 0.533,2.575 0.284,0.368 0.47,0.533 0.743,0.651 0,0 0.333,-1.776 0.73,-2.198 0.069,0.086 0.156,0.318 0.397,0.698 0.322,0.507 1.027,1.252 1.51,1.252 0,0 0.012,-0.651 -0.012,-1.407 -0.025,-0.755 -0.102,-1.139 -0.102,-1.139 0,0 0.33,-0.402 0.597,-0.798 C 0.189,0.856 0.957,-0.135 0.957,-0.956 1.496,-2.363 2.672,-4.407 2.624,-5.21 2.606,-5.508 2.536,-6.108 2.081,-6.541 1.877,-6.733 1.445,-6.897 1.071,-6.845 c -0.749,0.077 -0.875,0.9 -1.373,1.256 -0.658,0.292 -1.383,0.509 -1.837,1.158 -0.113,0.022 -0.056,-0.097 -0.056,-0.097 0,0 0.619,-2.514 0.73,-3.673 0.09,-0.92 0.225,-2.856 0.269,-3.306 0.041,-0.451 0.582,-1.866 0.633,-2.252 0.077,-0.574 0.151,-1.932 0.148,-2.651 0.677,-0.686 3.852,-3.837 4.423,-4.36 0.571,-0.523 1.933,-1.893 1.241,-2.366 -0.557,-0.53 -1.376,-0.571 -2.342,-0.736 -0.452,-0.078 -1.188,-0.236 -1.188,-0.236 0,0 0.618,-0.748 1.747,-2.313 1.007,-1.399 2.299,-2.195 2.719,-2.908 0.363,-0.614 1.613,-2.308 1.658,-2.499 0.043,-0.194 0.079,-0.239 0,-0.337 -0.414,-0.234 -1.111,-0.182 -1.747,-0.161 -0.636,0.021 -0.896,0.056 -0.996,0.246 -0.169,0.312 -0.196,0.9 -0.501,1.159 -0.783,0.596 -0.908,1.462 -1.078,2.296 -0.193,0.605 -0.873,1.173 -1.293,1.461 -1.958,1.334 -3.483,2.465 -3.483,2.465 0,0 -0.652,-0.181 -1.462,-0.403 -0.472,-0.128 -0.866,-0.306 -1.627,-0.462 -0.568,-0.121 -0.767,-0.318 -1.517,-0.388 -1.017,-0.095 -2.341,0.701 -2.412,0.875 -0.137,0.331 0.235,0.495 0.235,0.495 0,0 1.684,0.805 1.94,0.523 0.181,-0.198 0.371,-0.342 0.65,-0.262 0.284,0.083 0.082,0.443 0.469,0.626 0.101,0.048 0.536,0.136 0.767,0.114 0.331,-0.031 0.902,0.072 0.902,0.072 -1.011,0.482 -2.525,1.159 -3.66,2.22 0,0 -0.558,-0.101 -2.123,0.174 -0.738,0.129 -1.363,0.312 -1.965,0.512 0,0 -0.084,-0.44 -0.207,-0.557 -0.579,-0.801 -1.454,-1.099 -1.817,-1.976 -0.011,-0.151 -0.08,-0.249 -0.022,-0.4 0.181,-0.812 1.044,-1.284 1.553,-1.699 0.509,-0.415 1.122,-0.891 1.633,-1.212 0.462,-0.291 0.827,-0.823 1.202,-1.287 0.33,-0.217 0.78,-0.477 1.03,-0.824 0.41,-0.519 0.732,-1.04 0.657,-1.629 -0.049,-0.214 -2.762,-0.096 -2.762,-0.096 -0.186,0.106 -0.231,0.209 -0.247,0.497 -0.016,0.287 0.257,0.842 -0.137,1.122 -0.392,0.281 -1.024,0.421 -1.205,0.994 -0.183,0.789 -1.011,1.31 -1.724,1.654 -1.033,0.521 -2.224,0.694 -3.278,1.16 -0.295,0.172 -0.59,0.454 -0.545,0.799 0,0.661 0.437,0.807 0.828,1.505 0.986,1.756 0.837,2.913 0.837,2.913 0,0 -0.973,0.087 -2.835,0.027 -0.883,-1.829 -2.778,-3.506 -4.569,-4.567 -1.123,-0.747 -1.42,-2.034 -1.691,-3.159 -0.419,-1.104 -0.543,-2.273 -1.384,-3.182 -0.543,-0.876 -1.405,-1.652 -2.302,-2.116 -0.228,-0.087 -0.686,-0.244 -0.88,-0.059 -0.124,0.097 -0.074,2.127 -0.074,2.127 0.047,0.194 0.171,0.34 0.387,0.384 0.295,0.108 0.815,-0.409 0.939,0.206 0.124,0.616 0.792,0.544 1.272,1.212 0.534,1.081 0.707,2.166 0.522,3.537 -0.185,1.372 -0.474,2.403 0.397,2.857 2.291,1.197 2.411,2.459 2.382,5.304 -0.026,2.615 1.082,4.427 2.173,5.622 0,0 -0.999,0.771 -2.683,0.535" /></g><g
           transform="translate(142.5612,63.1517)"
           id="g84"><path
             id="path86"
             style="fill:#ffffff;fill-opacity:1;fill-rule:nonzero;stroke:none"
             d="m 0,0 c 2.482,-2.292 5.947,-3.344 9.452,-3.344 6.105,0 8.86,3.494 8.86,6.425 0,1.578 -0.788,3.081 -2.008,3.982 C 15.045,8.004 13.902,8.19 9.807,8.905 7.286,9.317 5.83,9.693 5.83,11.046 c 0,0.977 1.024,1.916 3.268,1.916 3.465,0 4.804,-1.841 5.356,-2.856 l 3.348,2.969 c -0.395,0.451 -1.026,1.09 -2.01,1.691 -1.338,0.901 -3.505,1.803 -6.497,1.803 -5.396,0 -8.428,-2.93 -8.428,-6.124 0,-1.691 0.866,-4.283 5.552,-5.335 0.71,-0.187 3.938,-0.751 4.608,-0.902 0.63,-0.112 2.047,-0.412 2.047,-1.615 0,-0.94 -1.181,-2.218 -3.898,-2.218 -2.717,0 -4.489,1.016 -5.671,2.405 z" /></g><g
           transform="translate(141.5592,60.3714)"
           id="g88"><path
             id="path90"
             style="fill:#ffffff;fill-opacity:1;fill-rule:nonzero;stroke:none"
             d="m 0,0 v 12.661 c 0,4.885 -2.569,6.689 -6.294,6.689 -2.814,0 -5.19,-1.241 -6.34,-3.608 h -0.08 v 3.043 h -4.719 V 0 h 4.974 v 11.265 c 0,2.747 1.583,4.651 4.129,4.651 2.51,0 3.435,-1.686 3.435,-3.81 V 0 Z" /></g><g
           transform="translate(117.2272,72.1693)"
           id="g92"><path
             id="path94"
             style="fill:#ffffff;fill-opacity:1;fill-rule:nonzero;stroke:none"
             d="M 0,0 C -0.433,2.93 -2.324,3.944 -4.411,3.944 -6.931,3.944 -8.664,2.555 -9.215,0 Z m 5.355,-7.589 c -2.441,-3.12 -5.591,-4.772 -9.608,-4.772 -5.159,0 -10.121,3.118 -10.121,10.031 0,6.312 4.253,9.882 9.806,9.882 C 0.63,7.552 2.795,4.583 3.189,4.02 4.806,1.842 5.158,-1.428 5.2,-3.306 H -9.373 c 0.552,-2.968 2.482,-4.659 5.593,-4.659 3.228,0 4.529,1.804 5.119,2.592 z" /></g><g
           transform="translate(102.6232,63.3783)"
           id="g96"><path
             id="path98"
             style="fill:#ffffff;fill-opacity:1;fill-rule:nonzero;stroke:none"
             d="m 0,0 c -0.347,-0.088 -0.716,-0.137 -1.111,-0.137 -2.824,0 -2.824,1.058 -2.824,3.781 v 8.905 H 0 v 3.23 h -3.935 v 6.649 h -5.116 v -6.649 h -2.541 v -3.23 h 2.541 V 2.554 c 0,-1.879 0,-3.081 0.315,-3.832 0.905,-2.292 4.214,-2.292 5.199,-2.292 1.251,0 2.527,0.247 3.537,0.727 z" /></g><g
           transform="translate(72.3537,63.1517)"
           id="g100"><path
             id="path102"
             style="fill:#ffffff;fill-opacity:1;fill-rule:nonzero;stroke:none"
             d="m 0,0 c 2.481,-2.292 5.946,-3.344 9.452,-3.344 6.104,0 8.86,3.494 8.86,6.425 0,1.578 -0.788,3.081 -2.008,3.982 -1.261,0.941 -2.403,1.127 -6.498,1.842 -2.52,0.412 -3.977,0.788 -3.977,2.141 0,0.977 1.023,1.916 3.268,1.916 3.465,0 4.804,-1.841 5.356,-2.856 l 3.346,2.969 c -0.393,0.451 -1.023,1.09 -2.007,1.691 -1.339,0.901 -3.505,1.803 -6.499,1.803 -5.394,0 -8.426,-2.93 -8.426,-6.124 0,-1.691 0.866,-4.283 5.552,-5.335 0.708,-0.187 3.938,-0.751 4.608,-0.902 0.629,-0.112 2.047,-0.412 2.047,-1.615 0,-0.94 -1.181,-2.218 -3.898,-2.218 -2.718,0 -4.49,1.016 -5.671,2.405 z" /></g><g
           transform="translate(45.967,85.806)"
           id="g104"><path
             id="path106"
             style="fill:#ffffff;fill-opacity:1;fill-rule:nonzero;stroke:none"
             d="M 0,0 V -10.5 H -11.428 V 0 h -5.422 v -25.435 h 5.422 v 10.501 H 0 V -25.435 H 5.461 V 0 Z" /></g><g
           transform="translate(66.6301,60.3714)"
           id="g108"><path
             id="path110"
             style="fill:#ffffff;fill-opacity:1;fill-rule:nonzero;stroke:none"
             d="m 0,0 c -0.452,0.902 -0.699,1.961 -0.616,2.98 -1.233,-2.313 -3.515,-3.546 -6.309,-3.546 -4.153,0 -6.639,2.135 -6.639,5.821 0,9.02 13.006,3.374 13.006,8.079 -0.046,0.996 -0.362,2.52 -3.28,2.52 -1.969,0 -3.032,-0.601 -3.505,-1.202 -0.511,-0.6 -0.471,-1.127 -0.471,-1.652 l -4.845,0.263 c 0.079,0.939 0.158,1.728 0.787,2.817 1.891,3.27 6.578,3.27 7.837,3.27 1.891,0 4.174,-0.227 5.907,-1.203 C 4.196,16.794 4.347,15.028 4.347,13 V 3.529 C 4.347,1.49 4.593,0.706 5.416,0 Z M -0.616,10.275 H -0.698 C -2.342,7.217 -8.385,9.256 -8.385,5.333 c 0,-2.117 1.357,-2.745 3.33,-2.745 4.891,0 4.439,4.51 4.439,7.687" /></g><path
           id="path112"
           style="fill:#ffffff;fill-opacity:1;fill-rule:nonzero;stroke:none"
           d="m 60.707,81.655 h -4.138 v 4.157 h 4.138 z" /><path
           id="path114"
           style="fill:#ffffff;fill-opacity:1;fill-rule:nonzero;stroke:none"
           d="m 68.289,81.655 h -4.138 v 4.158 h 4.138 z" /><g
           transform="translate(96.7902,44.1634)"
           id="g116"><path
             id="path118"
             style="fill:#ffffff;fill-opacity:1;fill-rule:nonzero;stroke:none"
             d="M 0,0 C -0.329,0 -0.658,0.058 -0.915,0.14 -1.11,0.209 -1.146,0.209 -1.207,0.209 -1.366,0.209 -1.5,0.104 -1.585,-0.104 H -1.78 v 1.511 h 0.207 c 0.134,-0.604 0.768,-1.023 1.524,-1.023 0.829,0 1.304,0.36 1.304,1 0,0.489 -0.243,0.71 -0.877,0.942 l -0.719,0.268 c -1.001,0.373 -1.33,0.814 -1.33,1.501 0,0.93 0.72,1.523 1.83,1.523 0.39,0 0.779,-0.116 1.157,-0.197 0.049,-0.012 0.099,-0.012 0.135,-0.012 0.146,0 0.232,0.093 0.293,0.209 H 1.938 V 4.258 H 1.719 C 1.451,4.921 0.975,5.246 0.28,5.246 c -0.658,0 -1.061,-0.325 -1.061,-0.884 0,-0.442 0.22,-0.674 0.878,-0.919 L 0.951,3.13 C 1.792,2.815 2.182,2.35 2.182,1.651 2.182,0.675 1.292,0 0,0" /></g><g
           transform="translate(99.3874,44.2914)"
           id="g120"><path
             id="path122"
             style="fill:#ffffff;fill-opacity:1;fill-rule:nonzero;stroke:none"
             d="m 0,0 v 0.268 c 0.768,0 1.084,0.128 1.084,0.907 v 3.106 c 0,0.628 -0.207,0.826 -0.926,0.826 H 0 V 5.374 H 2.182 V 1.187 c 0,-0.733 0.171,-0.919 0.915,-0.919 V 0 Z m 1.609,6.491 c -0.354,0 -0.634,0.268 -0.634,0.605 0,0.338 0.28,0.605 0.634,0.605 0.353,0 0.634,-0.267 0.634,-0.605 0,-0.337 -0.281,-0.605 -0.634,-0.605" /></g><g
           transform="translate(106.6047,44.2914)"
           id="g124"><path
             id="path126"
             style="fill:#ffffff;fill-opacity:1;fill-rule:nonzero;stroke:none"
             d="m 0,0 v 0.268 h 0.098 c 0.61,0 0.744,0.163 0.744,0.907 v 2.408 c 0,0.884 -0.354,1.326 -1.11,1.326 -0.463,0 -0.78,-0.186 -1.451,-0.698 V 1.198 c 0,-0.732 0.183,-0.93 0.854,-0.93 h 0.06 V 0 h -2.877 v 0.268 h 0.074 c 0.67,0 0.829,0.198 0.829,0.965 v 3.06 c 0,0.581 -0.269,0.814 -0.939,0.814 H -3.755 V 5.374 H -1.73 V 4.618 c 0.876,0.616 1.438,0.872 2.047,0.872 1.012,0 1.586,-0.756 1.586,-2.058 V 1.187 c 0,-0.71 0.195,-0.919 0.828,-0.919 H 2.78 L 2.78,0 Z" /></g><g
           transform="translate(112.3478,44.1634)"
           id="g128"><path
             id="path130"
             style="fill:#ffffff;fill-opacity:1;fill-rule:nonzero;stroke:none"
             d="m 0,0 c -1.744,0 -2.926,1.175 -2.926,2.896 0,1.583 1.158,2.722 2.755,2.722 0.659,0 0.963,-0.069 1.548,-0.36 0.05,-0.024 0.086,-0.034 0.123,-0.034 0.134,0 0.231,0.116 0.231,0.29 H 2 V 3.99 H 1.707 C 1.634,4.723 0.939,5.258 0.073,5.258 -1.438,5.258 -1.768,4.083 -1.768,2.92 -1.768,1.396 -1,0.442 0.22,0.442 c 0.719,0 1.036,0.105 1.731,0.593 L 2.195,0.791 C 1.451,0.232 0.805,0 0,0" /></g><g
           transform="translate(120.09,45.222)"
           id="g132"><path
             id="path134"
             style="fill:#ffffff;fill-opacity:1;fill-rule:nonzero;stroke:none"
             d="m 0,0 -0.292,0.256 c -0.574,-0.535 -1.183,-0.803 -1.878,-0.803 -1.427,0 -1.939,1.385 -1.939,2.501 v 0.361 h 3.939 c 0,1.361 -0.976,2.245 -2.415,2.245 -1.561,0 -2.634,-1.105 -2.634,-2.746 0,-1.674 1.158,-2.873 2.768,-2.873 0.964,0 1.793,0.361 2.451,1.059 m -1.292,2.711 h -2.769 c 0.037,0.884 0.598,1.442 1.415,1.442 0.781,0 1.33,-0.582 1.354,-1.442" /></g><g
           transform="translate(123.4431,44.2914)"
           id="g136"><path
             id="path138"
             style="fill:#ffffff;fill-opacity:1;fill-rule:nonzero;stroke:none"
             d="M 0,0 V 0.268 L 0.049,0.279 C 0.902,0.314 1.048,0.454 1.048,1.222 V 4.153 C 1.048,4.933 0.878,5.072 0,5.096 V 5.374 H 2.134 V 1.198 c 0,-0.767 0.146,-0.895 0.963,-0.93 H 3.17 V 0 Z" /></g><g
           transform="translate(131.0876,45.9896)"
           id="g140"><path
             id="path142"
             style="fill:#ffffff;fill-opacity:1;fill-rule:nonzero;stroke:none"
             d="m 0,0 c 0,-0.803 -0.609,-1.372 -1.609,-1.372 -1.048,0 -1.647,0.674 -1.647,1.698 0,0.768 0.293,1.443 1.098,1.734 C -0.499,1.385 0,0.85 0,0 m 0.987,0.372 c 0,0.907 -0.621,1.606 -1.803,2.024 1.011,0.361 1.5,0.862 1.5,1.781 0,1.151 -0.903,1.966 -2.256,1.966 -1.378,0 -2.378,-0.827 -2.378,-1.92 0,-0.849 0.28,-1.35 1.402,-1.954 -0.987,-0.303 -1.695,-0.908 -1.695,-1.978 0,-1.222 1.061,-2.083 2.573,-2.083 1.475,0 2.657,0.967 2.657,2.164 m -1.23,3.898 c 0,-0.861 -0.171,-1.21 -0.976,-1.699 -1.366,0.558 -1.792,1.105 -1.792,1.99 0,0.662 0.597,1.232 1.341,1.232 0.829,0 1.427,-0.663 1.427,-1.523" /></g><g
           transform="translate(134.7087,49.0492)"
           id="g144"><path
             id="path146"
             style="fill:#ffffff;fill-opacity:1;fill-rule:nonzero;stroke:none"
             d="m 0,0 -0.731,-2.582 c 0.133,0.022 0.256,0.034 0.377,0.034 1.427,0 2.574,-1.035 2.574,-2.304 0,-1.336 -1.183,-2.407 -2.658,-2.407 -0.841,0 -1.574,0.337 -2.085,0.943 l 0.244,0.209 c 0.438,-0.337 1,-0.581 1.56,-0.581 1.085,0 1.781,0.709 1.781,1.802 0,1.14 -0.769,1.873 -2,1.873 -0.427,0 -0.805,-0.092 -1.134,-0.291 l 1.207,3.92 H 2.731 V 0 Z" /></g><g
           transform="translate(142.3903,44.2914)"
           id="g148"><path
             id="path150"
             style="fill:#ffffff;fill-opacity:1;fill-rule:nonzero;stroke:none"
             d="M 0,0 H -4.536 V 0.093 C -3.45,1 -1.305,2.21 -1.305,3.571 c 0,0.803 -0.585,1.408 -1.45,1.408 -0.549,0 -0.975,-0.28 -1.329,-0.617 l -0.342,0.175 c 0.378,0.581 1.195,1.07 2.196,1.07 1.304,0 2.255,-0.791 2.255,-1.792 0,-1.082 -1.915,-2.571 -2.975,-3.199 h 1.731 c 0.671,0 0.963,0.14 1.268,0.71 L 0.451,1.268 Z" /></g><g
           transform="translate(209.6208,77.596)"
           id="g152"><path
             id="path154"
             style="fill:#ffffff;fill-opacity:1;fill-rule:nonzero;stroke:none"
             d="M 0,0 C 0.318,0 0.498,0.158 0.498,0.39 0.498,0.646 0.307,0.768 0,0.768 H -0.6 V 0 Z m -0.958,1.072 h 0.996 c 0.46,0 0.83,-0.23 0.83,-0.658 0,-0.352 -0.242,-0.56 -0.55,-0.644 L 0.944,-1.06 H 0.498 l -0.561,0.781 H -0.6 V -1.06 h -0.358 z m 2.83,-1.108 v 0.013 c 0,1.039 -0.857,1.894 -2,1.894 -1.129,0 -1.999,-0.868 -1.999,-1.907 v -0.013 c 0,-1.04 0.857,-1.895 1.999,-1.895 1.129,0 2,0.868 2,1.908 M -2.35,-0.049 v 0.013 c 0,1.15 0.983,2.119 2.222,2.119 1.251,0 2.222,-0.957 2.222,-2.106 v -0.013 c 0,-1.151 -0.983,-2.12 -2.222,-2.12 -1.251,0 -2.222,0.957 -2.222,2.107" /></g><g
           transform="translate(175.443,129.0492)"
           id="g156"><path
             id="path158"
             style="fill:#ffffff;fill-opacity:1;fill-rule:nonzero;stroke:none"
             d="M 0,0 C 0.241,0 0.438,0.196 0.438,0.436 0.438,0.675 0.241,0.871 0,0.871 -0.239,0.871 -0.429,0.675 -0.429,0.436 -0.429,0.196 -0.239,0 0,0" /></g><g
           transform="translate(63.1325,129.0809)"
           id="g160"><path
             id="path162"
             style="fill:#ffffff;fill-opacity:1;fill-rule:nonzero;stroke:none"
             d="M 0,0 C 0.242,0 0.439,0.196 0.439,0.436 0.439,0.674 0.242,0.87 0,0.87 -0.238,0.87 -0.429,0.674 -0.429,0.436 -0.429,0.196 -0.238,0 0,0" /></g><g
           transform="translate(116.0349,128.9813)"
           id="g164"><path
             id="path166"
             style="fill:#ffffff;fill-opacity:1;fill-rule:nonzero;stroke:none"
             d="M 0,0 C 0.241,0 0.438,0.196 0.438,0.436 0.438,0.675 0.241,0.871 0,0.871 -0.239,0.871 -0.429,0.675 -0.429,0.436 -0.429,0.196 -0.239,0 0,0" /></g></g></g></g></svg>