<svg xmlns="http://www.w3.org/2000/svg" viewBox="0 0 406.54666 76.519997" height="76.52" width="406.547" xml:space="preserve" id="svg2" version="1.1"><g transform="matrix(1.33333 0 0 -1.33333 0 76.52)" id="g10"><g transform="scale(.1)" id="g12" fill="#fff" fill-opacity="1" fill-rule="nonzero" stroke="none"><path id="path14" d="M189.66 410.734c0 16.071.32 24.887 13.551 26.461l5.035.629c2.203 1.891 1.895 6.621-.316 7.879-10.391-.629-21.11-.941-33.387-.941-18.594 0-35.926.312-45.066.941-2.196-.941-2.516-6.617 0-7.879l13.875-1.57c19.531-2.207 20.476-4.098 20.476-30.559v-12.601c0-10.078-1.574-15.762-3.148-17.961-3.473-5.36-15.133-9.449-34.66-9.449-63.329 0-94.52 47.57-94.52 108.058 0 47.262 26.781 90.742 87.898 90.742 32.141 0 55.774-10.722 64.59-44.742 1.891-1.89 7.563-1.582 8.512.942-2.84 18.906-4.73 35.289-4.73 45.691-3.782-.633-13.551 1.566-19.532 2.824-5.355 1.262-22.054 4.735-40.019 4.735-47.57 0-78.762-14.813-99.867-36.864C8.82 516.27 0 489.18 0 462.402c0-27.726 10.078-52.621 28.98-71.519 24.258-24.567 58.598-34.969 96.09-34.969 17.02 0 39.7 3.781 56.399 8.188 5.984 1.582 11.664 2.843 15.441 2.843 1.262.938 1.262 2.828.313 3.782-5.672 2.195-7.563 9.757-7.563 22.367zm121.918-2.519c0-33.082-.629-37.184-18.898-39.379l-7.879-.953c-1.891-2.199-1.262-6.93.629-7.871 14.808.629 26.148.941 39.39.941 12.598 0 23.313-.312 37.489-.941 1.89.941 2.519 6.304.632 7.871l-6.621.953c-18.273 2.519-18.902 6.297-18.902 39.379v39.695c0 6.613.629 6.93 14.812 6.93 12.598 0 17.637-3.149 22.36-10.078 9.769-14.18 22.691-35.918 30.879-47.578 22.371-31.821 38.441-39.692 65.219-39.692 5.984 0 11.023.629 13.863 1.571 1.566 1.261 1.262 3.781-.321 4.41-8.503.629-16.378 4.101-21.73 8.82-21.43 17.957-38.129 43.168-63.328 83.812-1.582 2.52-3.152 5.668-1.582 7.559 15.762 6.301 39.387 22.68 39.387 52.606 0 22.062-11.028 36.23-26.145 44.113-14.504 7.879-33.082 9.449-52.621 9.449-30.871 0-52.609-.937-70.25-2.519-2.531-1.262-2.531-6.301-.32-7.868l10.078-1.261c12.922-1.582 13.859-6.942 13.859-36.868zm25.84 141.765c0 8.836.941 10.094 20.484 10.094 34.969 0 50.411-23.633 50.411-48.519 0-21.43-7.254-32.453-15.762-39.075-9.133-6.925-21.11-8.187-32.453-8.187-16.071 0-20.785.633-21.739 1.566-.941 1.262-.941 4.735-.941 10.403zm329.543-158.777c2.516-7.558 4.098-13.242 4.098-16.699 0-3.149-4.407-5.039-11.028-5.668l-9.14-.953c-2.2-1.567-1.891-6.613.629-7.871 9.14.312 21.109.941 36.238.941 14.172 0 25.203-.312 38.121-.941 1.574 1.258 2.203 6.304 0 7.871l-8.512.953c-13.547 1.566-17.637 6.297-26.773 33.387l-43.16 126.66c-4.735 13.859-9.774 28.351-13.864 42.207-.629 2.211-2.843 2.844-4.73 2.844-3.469-4.102-8.82-9.774-16.379-11.969.937-5.043-.949-11.031-5.359-22.375l-32.129-85.067c-13.243-35.277-22.063-55.761-27.731-70.25-4.414-11.351-11.344-14.808-18.902-15.437l-10.399-.953c-1.89-1.567-1.261-6.613.629-7.871 8.512.312 19.848.941 30.25.941 14.797-.312 24.571-.312 32.758-.941 2.844 1.258 2.844 6.304.629 7.871l-10.387.953c-7.57.629-9.14 2.519-9.14 6.297 0 3.457 2.199 11.969 6.929 26.148l11.032 33.082c2.199 6.621 4.089 7.559 11.968 7.559h47.571c9.449 0 10.711-.938 12.922-7.875zM610.57 516.902c3.457 9.453 6.61 17.02 7.563 18.594h.629c1.886-3.785 4.718-12.293 7.242-19.855l17.016-51.348c2.832-8.512 2.199-9.77-6.93-9.77h-38.762c-8.816 0-9.129.317-6.609 7.559zm370.809-27.089c0 14.492-.633 53.558 4.73 64.902 1.258 2.519 7.559 5.039 17.641 6.621l4.41.629c1.89 1.89 1.89 6.297-.63 7.867-10.71-.633-18.901-.937-32.452-.937-11.969 0-22.68.304-37.176.937-2.519-.937-2.832-5.977-.632-7.867l5.359-.629c12.601-1.582 17.641-3.473 19.531-6.316 5.988-9.446 6.297-50.399 6.297-65.207v-67.418c0-6.622 0-11.661-1.258-13.243h-.633c-14.796 15.133-30.238 32.77-51.976 57.032l-30.563 34.339c-10.398 11.661-47.566 53.239-53.867 69.309-4.101-.633-9.461-.937-14.5-.937-5.668 0-22.367 0-35.601.937-2.52-1.262-2.52-5.977-.629-7.867l5.363-.629c7.555-.953 15.113-3.152 19.527-7.574 6.618-7.239 6.93-13.86 6.93-22.68v-91.051c0-15.117.316-53.558-4.09-64.898-1.578-3.473-6.621-5.36-13.867-6.297l-8.5-.953c-1.891-1.891-1.582-6.297.629-7.871 11.019.629 19.531.941 32.758.941 11.66 0 22.691-.312 36.859-.941 2.215 1.574 2.531 5.351.633 7.871l-9.762.953c-7.883.629-14.18 2.519-16.07 5.977-5.363 9.46-5.668 50.41-5.668 65.218v68.68c0 9.449.305 16.699 1.566 20.48h.629c6.621-6.929 28.043-32.769 36.555-42.531l73.09-83.176c27.406-31.191 36.547-42.214 40.328-47.57 3.469 0 5.359 1.578 5.988 3.469-.949 8.191-.949 45.683-.949 55.133zm127.601-81.598c0-33.082-.64-36.86-18.91-39.379l-7.24-.953c-1.89-1.891-1.26-6.93.63-7.871 14.8.629 26.15.941 39.38.941 11.02 0 31.19-2.519 51.35-2.519 24.26 0 50.09 4.097 70.57 15.117 35.92 19.543 55.14 53.883 55.14 93.89 0 41.594-21.43 77.5-63.96 92.942-20.48 7.558-42.85 9.449-69.31 9.449-26.78 0-52.3-.937-79.08-2.519-3.15-1.262-2.83-6.301-.31-7.868l6.93-.953c13.23-1.89 14.81-8.512 14.81-30.562zm25.83 123.496c0 14.184.63 22.051 3.15 23.941 2.52 1.899 12.6 4.422 31.19 4.422 82.54 0 99.24-58.601 99.24-93.261 0-58.598-27.41-98.61-88.53-98.61-19.85 0-31.82 3.152-38.75 12.91-5.36 7.571-6.3 17.649-6.3 34.348zm441.39-132.949c5.36-13.227 11.03-28.668 14.49-41.899 1.58-.633 3.15-.949 4.73-.949 1.26 0 2.52.316 3.46.949 5.36 16.688 20.17 53.242 32.77 82.223l17.01 38.758c14.18 32.129 26.47 57.652 35.29 72.461 4.09 6.617 8.82 10.398 16.38 11.031l9.45.629c1.58 1.566 1.58 6.605-.63 7.867a492.366 492.366 0 0 0-30.56-.937c-11.97 0-23.94.304-32.76.937-2.21-1.262-2.84-5.977-.63-7.867l5.67-.629c11.03-1.262 14.18-3.785 14.18-5.992 0-2.211-.32-5.668-2.84-12.289-5.36-13.543-20.16-49.153-29.3-70.575-7.25-16.699-20.48-49.148-30.25-69.941-15.75 35.914-30.24 72.156-44.73 108.691-9.77 23.954-15.13 40.965-15.76 44.114.32 2.519 2.84 4.41 14.81 5.992l4.73.629c2.2 1.89 1.57 6.605-.63 7.867-13.23-.633-24.26-.937-38.12-.937-13.55 0-23.63.304-32.77.937-2.52-1.57-2.83-5.977-.63-7.867l5.67-.629c13.55-1.582 18.27-8.203 25.52-25.84zm216.76 10.082c0-33.403-.63-37.813-19.22-40.008l-7.88-.953c-1.89-1.891-1.26-6.93.63-7.871 15.75.629 26.47.941 39.7.941 12.6 0 23.31-.312 39.06-.941 1.9.941 2.53 6.609.64 7.871l-7.88.953c-18.59 2.195-19.22 6.605-19.22 40.008v112.16c0 33.387.63 38.75 19.22 40.332l7.88.629c1.89 1.258 1.26 6.93-.64 7.867-15.75-.633-26.46-.937-39.06-.937-13.23 0-23.95.304-39.7.937-1.89-.937-2.52-6.609-.63-7.867l7.88-.629c18.59-1.582 19.22-6.945 19.22-40.332zm203.52-10.082c5.36-13.227 11.03-28.668 14.49-41.899 1.58-.633 3.15-.949 4.73-.949 1.26 0 2.52.316 3.46.949 5.36 16.688 20.17 53.242 32.77 82.223l17.01 38.758c14.18 32.129 26.47 57.652 35.29 72.461 4.09 6.617 8.82 10.398 16.38 11.031l9.45.629c1.58 1.566 1.58 6.605-.63 7.867a492.366 492.366 0 0 0-30.56-.937c-11.97 0-23.94.304-32.76.937-2.21-1.262-2.84-5.977-.63-7.867l5.67-.629c11.02-1.262 14.18-3.785 14.18-5.992 0-2.211-.32-5.668-2.84-12.289-5.36-13.543-20.16-49.153-29.3-70.575-7.25-16.699-20.48-49.148-30.25-69.941-15.75 35.914-30.24 72.156-44.73 108.691-9.77 23.954-15.13 40.965-15.76 44.114.32 2.519 2.84 4.41 14.81 5.992l4.73.629c2.2 1.89 1.57 6.605-.63 7.867-13.23-.633-24.26-.937-38.12-.937-13.55 0-23.63.304-32.77.937-2.52-1.57-2.83-5.977-.63-7.867l5.67-.629c13.55-1.582 18.27-8.203 25.52-25.84zm216.76 10.082c0-33.403-.63-37.813-19.22-40.008l-7.88-.953c-1.89-1.891-1.26-6.93.63-7.871 15.75.629 26.47.941 39.7.941 12.6 0 23.31-.312 39.06-.941 1.9.941 2.53 6.609.63 7.871l-7.87.953c-18.59 2.195-19.22 6.605-19.22 40.008v112.16c0 33.387.63 38.75 19.22 40.332l7.87.629c1.9 1.258 1.27 6.93-.63 7.867-15.75-.633-26.46-.937-39.06-.937-13.23 0-23.95.304-39.7.937-1.89-.937-2.52-6.609-.63-7.867l7.88-.629c18.59-1.582 19.22-6.945 19.22-40.332zm156.89-.629c0-33.082-.63-36.86-18.9-39.379l-7.25-.953c-1.89-1.891-1.26-6.93.63-7.871 14.81.629 26.15.941 39.38.941 11.03 0 31.19-2.519 51.36-2.519 24.26 0 50.09 4.097 70.57 15.117 35.92 19.543 55.13 53.883 55.13 93.89 0 41.594-21.42 77.5-63.95 92.942-20.48 7.558-42.85 9.449-69.31 9.449-26.78 0-52.3-.937-79.08-2.519-3.15-1.262-2.84-6.301-.32-7.868l6.93-.953c13.24-1.89 14.81-8.512 14.81-30.562zm25.84 123.496c0 14.184.63 22.051 3.15 23.941 2.52 1.899 12.6 4.422 31.19 4.422 82.54 0 99.24-58.601 99.24-93.261 0-58.598-27.41-98.61-88.53-98.61-19.85 0-31.82 3.152-38.75 12.91-5.36 7.571-6.3 17.649-6.3 34.348zm420.59-78.129c0-47.887-17.32-83.809-63.01-83.809-48.2 0-63.95 33.399-63.95 84.122v68.05c0 32.77.63 38.129 18.9 39.696l7.56.632c1.88 1.258 1.26 6.622-.63 7.559-15.44-.633-25.83-.937-38.75-.937-12.6 0-23.32.304-39.07.937-1.89-.937-2.52-6.301-.63-7.559l7.88-.632c18.27-1.567 18.9-6.926 18.9-39.696v-74.351c0-37.489 7.88-60.492 24.58-74.352 15.43-13.23 37.17-17.328 58.91-17.328 23.32 0 46.63 8.188 60.18 23 17.64 18.899 22.05 47.891 22.05 75.297v35.602c0 17.64 0 53.871 4.41 64.269 1.89 4.102 7.88 6.93 15.75 7.559l7.57.632c1.57 1.887 1.89 5.989-.63 7.559-11.35-.633-19.85-.937-33.09-.937-12.28 0-23.94.304-35.91.937-1.89-1.262-2.52-5.348-.63-7.559l7.87-.632c7.88-.629 13.54-2.825 15.76-6.621 5.35-9.446 5.98-45.676 5.98-65.207zm232.51-39.383c0 29.934-19.53 48.203-39.38 60.496l-25.21 15.746c-11.65 7.243-26.78 20.485-26.78 38.75 0 14.493 6.62 34.969 37.49 34.969 30.25 0 38.76-20.476 42.85-35.597 1.57-1.891 6.62-.938 7.88.949 0 13.23-2.84 30.871-5.67 38.429-2.52 0-6.93.629-11.03 1.891-8.19 2.211-19.53 4.102-29.3 4.102-40.96 0-64.27-24.258-64.27-54.192 0-25.84 18.27-43.789 34.03-54.187l29.93-19.532c22.99-14.808 25.83-30.25 25.83-44.113 0-18.894-12.92-36.226-39.38-36.226-36.55 0-49.47 30.871-54.19 46.941-1.26 1.891-5.99 1.258-7.56-.941.63-14.813 4.72-37.18 8.5-44.11 5.99-3.472 22.69-11.66 49.15-11.66 40.96 0 67.11 23.629 67.11 58.285"/><path id="path16" d="M700.219 43.414h-5.996c-9.828-24.227-23.985-30.223-49.403-30.223h-12.949c-10.312 0-16.547 1.434-16.547 9.598 0 4.797 1.196 9.582 2.16 14.14l19.43 99.766c2.879 15.118 4.547 22.551 20.137 22.551l1.195 5.508h-56.355l-1.196-5.508c11.024 0 17.02-1.437 17.02-9.113 0-2.403-.469-4.793-.953-6.953L594.941 30.934c-2.164-11.27-3.843-20.38-17.031-20.625l-.957-5.508h110.078zm91.14 107.688c0 6.941-5.523 12.461-12.476 12.461-6.953 0-12.477-5.52-12.477-12.461 0-6.965 5.524-12.481 12.477-12.481s12.476 5.516 12.476 12.481m-3.843-35.5h-39.571l-1.195-5.528c13.188 0 15.586-2.39 15.586-10.3 0-3.126-.484-5.997-.957-8.88l-12.715-65.468c-2.398-11.758-6.242-15.117-16.309-15.117l-.957-5.508h51.555l1.203 5.508h-1.203c-9.344 0-13.672.968-13.672 8.632 0 3.36.731 6.965 1.442 10.325zm125.191 50.363c11.262 0 14.867-7.188 14.867-21.106v-2.168h5.281l5.516 30.469h-5.047c-.949-2.879-2.875-3.601-5.511-3.601-.954 0-1.918 0-2.633.242-5.996 2.16-9.84 3.359-14.399 3.359-21.336 0-37.41-13.914-41.726-36.465l-4.078-21.093h-19.668l-1.911-9.598h19.661L848.188 29.5c-3.118-15.344-5.997-19.191-15.34-19.191h-2.164l-.957-5.508h61.156l1.199 5.508h-4.801c-13.429 0-18.703 2.882-18.703 11.757 0 2.16.477 4.551.957 7.434l14.871 76.504h26.375l1.926 9.598h-26.383l4.801 24.941c3.594 18.234 10.07 25.422 21.582 25.422M1053.72 94.5c0 16.543-17.26 23.496-31.42 23.496-39.808 0-71.952-33.574-71.952-68.828 0-24.7 12.718-47.246 40.535-47.246 22.067 0 36.217 10.555 47.967 25.418l-5.51 4.316c-10.08-12.226-20.62-20.379-34.781-20.379-18.704 0-25.664 18.946-25.664 35.008 0 4.805.484 7.434.722 9.121 19.43 2.149 80.103 12.473 80.103 39.094m-22.3.71c0-22.773-39.338-29.5-56.119-30.937 3.832 17.512 22.058 45.801 41.249 45.801 10.31 0 14.87-4.07 14.87-14.863m368.61 69.543h-39.58l-.96-5.508h.96c9.35 0 12.95-1.203 12.95-5.273 0-2.403-3.36-8.399-4.8-11.282l-52.28-104.793-20.62 109.356c-.25 1.199-.48 2.402-.48 3.601 0 6.954 6.48 8.391 15.83 8.391l.96 5.508h-55.64l-.96-5.508c13.91 0 17.98-1.926 20.86-15.832l3.12-15.828-40.29-88.488-21.11 108.632c-.24 1.204-.47 2.637-.47 3.84 0 6.239 5.27 7.676 14.15 7.676l.95 5.508h-49.4l-1.2-5.508c12.23 0 14.64-3.117 17.03-15.109l28.06-144.14h4.56l50.84 111.769 21.35-111.77h4.79l75.55 151.328c2.39 4.805 6.23 7.922 14.62 7.922zM1508.19 94.5c0 16.543-17.27 23.496-31.42 23.496-39.82 0-71.95-33.574-71.95-68.828 0-24.7 12.71-47.246 40.54-47.246 22.06 0 36.2 10.555 47.95 25.418l-5.51 4.316c-10.07-12.226-20.63-20.379-34.77-20.379-18.71 0-25.66 18.946-25.66 35.008 0 4.805.47 7.434.71 9.121 19.43 2.149 80.11 12.473 80.11 39.094m-22.31.71c0-22.773-39.33-29.5-56.12-30.937 3.84 17.512 22.06 45.801 41.25 45.801 10.32 0 14.87-4.07 14.87-14.863m117.28 77.949h-39.58l-1.19-5.515c9.6 0 15.11-2.403 15.11-12.961 0-3.114-.48-5.996-.96-8.868l-23.51-120.39c-2.39-11.758-5.03-15.117-15.1-15.117l-.96-5.508h51.56l1.2 5.508h-1.2c-9.35 0-14.86.968-14.86 8.632 0 3.36.71 6.965 1.43 10.325zm94.97 0h-39.58l-1.19-5.515c9.59 0 15.11-2.403 15.11-12.961 0-3.114-.49-5.996-.96-8.868l-23.52-120.39c-2.39-11.758-5.03-15.117-15.09-15.117l-.97-5.508h51.57l1.2 5.508h-1.2c-9.35 0-14.87.968-14.87 8.632 0 3.36.72 6.965 1.44 10.325zm234.79-129.746h-6c-9.84-24.227-23.98-30.223-49.4-30.223h-12.95c-10.32 0-16.56 1.434-16.56 9.598 0 4.797 1.2 9.582 2.16 14.14l19.43 99.766c2.88 15.118 4.56 22.551 20.15 22.551l1.19 5.508h-56.35l-1.2-5.508c11.03 0 17.03-1.437 17.03-9.113 0-2.403-.48-4.793-.96-6.953l-21.83-112.246c-2.16-11.27-3.84-20.38-17.03-20.625l-.96-5.508h110.08zm91.12 107.688c0 6.941-5.51 12.461-12.46 12.461-6.96 0-12.48-5.52-12.48-12.461 0-6.965 5.52-12.481 12.48-12.481 6.95 0 12.46 5.516 12.46 12.481m-3.83-35.5h-39.57l-1.21-5.528c13.2 0 15.6-2.39 15.6-10.3 0-3.126-.48-5.997-.96-8.88l-12.72-65.468c-2.39-11.758-6.23-15.117-16.31-15.117l-.95-5.508h51.56l1.2 5.508h-1.2c-9.36 0-13.67.968-13.67 8.632 0 3.36.72 6.965 1.43 10.325zm159.48 0h-38.84l-1.21-5.528c4.56 0 13.91-.711 13.91-7.429 0-2.637-1.91-6.243-3.12-8.391l-32.85-63.32-17.75 65.246c-.48 1.433-.48 3.105-.48 4.539 0 7.207 5.52 9.355 11.99 9.355l1.44 5.528h-46.77l-1.19-5.528c8.15 0 13.43-3.359 15.82-11.504l27.1-97.84h4.07l48.22 93.524c5.03 9.836 5.99 15.82 18.47 15.82zM2309.44 94.5c0 16.543-17.28 23.496-31.42 23.496-39.81 0-71.95-33.574-71.95-68.828 0-24.7 12.71-47.246 40.54-47.246 22.06 0 36.2 10.555 47.97 25.418l-5.53 4.316c-10.07-12.226-20.63-20.379-34.77-20.379-18.71 0-25.66 18.946-25.66 35.008 0 4.805.48 7.434.71 9.121 19.43 2.149 80.11 12.473 80.11 39.094m-22.31.71c0-22.773-39.33-29.5-56.12-30.937 3.85 17.512 22.06 45.801 41.26 45.801 10.31 0 14.86-4.07 14.86-14.863m147.49 14.863l-14.39-73.855c-6.71-11.035-18.22-22.785-29.74-22.785-9.11 0-20.13 5.507-20.13 32.14 0 34.766 29.26 64.5 64.26 64.5m33.58 63.086h-39.57l-1.2-5.515c9.6 0 15.1-2.403 15.1-12.961 0-3.114-.47-5.996-.94-8.868l-5.53-27.82c-45.32-.48-88.25-29.492-88.25-76.262 0-21.355 12.47-38.613 34.3-38.613 16.55 0 29.5 11.035 36.21 21.106L2415.19 4.8h36.47l1.19 5.508h-1.19c-9.13 0-12.95 1.68-12.95 8.632 0 3.36.71 6.72 1.19 9.844l28.3 144.375"/></g></g></svg>