<?xml version="1.0" encoding="utf-8"?>
<!-- Generator: Adobe Illustrator 24.1.0, SVG Export Plug-In . SVG Version: 6.00 Build 0)  -->
<svg version="1.1" id="Layer_1" xmlns="http://www.w3.org/2000/svg" xmlns:xlink="http://www.w3.org/1999/xlink" x="0px" y="0px"
	 viewBox="1114.7701416015625 398.5599670410156 1005.0496826171875 71.97006225585938" xml:space="preserve">
<style type="text/css">
	.st0{fill:#D0B669;}
</style>
<g>
	<path class="st0" d="M1177.35,458.25c0,4.16,0.62,6.65,2.5,7.38c0.31,0.31,0.31,0.94-0.1,1.25c-1.25,0-3.12,0.42-5.09,0.94
		c-5.51,1.46-13,2.7-18.61,2.7c-12.37,0-23.71-3.43-31.71-11.54c-6.24-6.24-9.57-14.45-9.57-23.6c0-8.84,2.91-17.78,9.36-24.64
		c6.97-7.28,17.26-12.17,32.96-12.17c5.93,0,11.44,1.14,13.2,1.56c1.98,0.42,5.2,1.14,6.45,0.94c0,3.43,0.62,8.84,1.56,15.08
		c-0.31,0.83-2.18,0.94-2.81,0.31c-2.91-11.23-10.71-14.76-21.31-14.76c-20.17,0-29.01,14.35-29.01,29.94
		c0,19.96,10.29,35.66,31.19,35.66c6.45,0,10.29-1.35,11.44-3.12c0.52-0.73,1.04-2.6,1.04-5.93v-4.16c0-8.73-0.31-9.36-6.76-10.09
		l-4.58-0.52c-0.83-0.42-0.73-2.29,0-2.6c3.02,0.21,8.73,0.31,14.87,0.31c4.06,0,7.59-0.1,11.02-0.31c0.73,0.42,0.83,1.98,0.1,2.6
		l-1.66,0.21c-4.37,0.52-4.47,3.43-4.47,8.73V458.25z"/>
	<path class="st0" d="M1214.51,415.93c0-9.88-0.31-11.65-4.57-12.17l-3.33-0.42c-0.73-0.52-0.73-2.18,0.1-2.6
		c5.82-0.52,13-0.83,23.19-0.83c6.45,0,12.58,0.52,17.36,3.12c4.99,2.6,8.63,7.28,8.63,14.56c0,9.88-7.8,15.28-13,17.36
		c-0.52,0.62,0,1.66,0.52,2.5c8.32,13.41,13.83,21.73,20.9,27.66c1.77,1.56,4.37,2.7,7.17,2.91c0.52,0.21,0.62,1.04,0.1,1.46
		c-0.94,0.31-2.6,0.52-4.58,0.52c-8.84,0-14.14-2.6-21.52-13.1c-2.7-3.85-6.97-11.02-10.19-15.7c-1.56-2.29-3.22-3.33-7.38-3.33
		c-4.68,0-4.89,0.1-4.89,2.29v13.1c0,10.92,0.21,12.17,6.24,13l2.18,0.31c0.62,0.52,0.42,2.29-0.21,2.6
		c-4.68-0.21-8.21-0.31-12.37-0.31c-4.37,0-8.11,0.1-13,0.31c-0.62-0.31-0.83-1.87-0.21-2.6l2.6-0.31c6.03-0.73,6.24-2.08,6.24-13
		V415.93z M1223.04,430.8c0,1.87,0,3.02,0.31,3.43c0.31,0.31,1.87,0.52,7.17,0.52c3.74,0,7.69-0.42,10.71-2.7
		c2.81-2.18,5.2-5.82,5.2-12.89c0-8.21-5.09-16.01-16.64-16.01c-6.45,0-6.76,0.42-6.76,3.33V430.8z"/>
	<path class="st0" d="M1334.08,444.73c-0.73-2.29-1.14-2.6-4.26-2.6h-15.7c-2.6,0-3.22,0.31-3.95,2.5l-3.64,10.92
		c-1.56,4.68-2.29,7.49-2.29,8.63c0,1.25,0.52,1.87,3.02,2.08l3.43,0.31c0.73,0.52,0.73,2.18-0.21,2.6
		c-2.7-0.21-5.93-0.21-10.81-0.31c-3.43,0-7.17,0.21-9.98,0.31c-0.62-0.42-0.83-2.08-0.21-2.6l3.43-0.31
		c2.5-0.21,4.78-1.35,6.24-5.09c1.87-4.78,4.78-11.54,9.15-23.19l10.61-28.07c1.46-3.74,2.08-5.72,1.77-7.38
		c2.5-0.73,4.26-2.6,5.41-3.95c0.62,0,1.35,0.21,1.56,0.94c1.35,4.57,3.02,9.36,4.58,13.93l14.24,41.8
		c3.02,8.94,4.37,10.5,8.84,11.02l2.81,0.31c0.73,0.52,0.52,2.18,0,2.6c-4.26-0.21-7.9-0.31-12.58-0.31
		c-4.99,0-8.94,0.21-11.96,0.31c-0.83-0.42-0.94-2.08-0.21-2.6l3.02-0.31c2.18-0.21,3.64-0.83,3.64-1.87c0-1.14-0.52-3.02-1.35-5.51
		L1334.08,444.73z M1313.5,435.48c-0.83,2.39-0.73,2.5,2.18,2.5h12.79c3.02,0,3.22-0.42,2.29-3.22l-5.61-16.95
		c-0.83-2.5-1.77-5.3-2.39-6.55h-0.21c-0.31,0.52-1.35,3.02-2.5,6.13L1313.5,435.48z"/>
	<path class="st0" d="M1444.72,451.18c0,3.12,0,15.49,0.31,18.2c-0.21,0.62-0.83,1.14-1.98,1.14c-1.25-1.77-4.26-5.41-13.31-15.7
		l-24.12-27.45c-2.81-3.22-9.88-11.75-12.06-14.04h-0.21c-0.42,1.25-0.52,3.64-0.52,6.76v22.67c0,4.89,0.1,18.4,1.87,21.52
		c0.62,1.14,2.7,1.77,5.3,1.98l3.22,0.31c0.62,0.83,0.52,2.08-0.21,2.6c-4.68-0.21-8.32-0.31-12.16-0.31
		c-4.37,0-7.17,0.1-10.81,0.31c-0.73-0.52-0.83-1.98-0.21-2.6l2.81-0.31c2.39-0.31,4.05-0.94,4.57-2.08
		c1.46-3.74,1.35-16.43,1.35-21.42v-30.05c0-2.91-0.1-5.09-2.29-7.49c-1.46-1.46-3.95-2.18-6.45-2.5l-1.77-0.21
		c-0.62-0.62-0.62-2.18,0.21-2.6c4.37,0.31,9.88,0.31,11.75,0.31c1.66,0,3.43-0.1,4.78-0.31c2.08,5.3,14.35,19.03,17.78,22.87
		l10.09,11.33c7.17,8.01,12.27,13.83,17.16,18.82h0.21c0.42-0.52,0.42-2.18,0.42-4.37v-22.25c0-4.89-0.1-18.4-2.08-21.52
		c-0.62-0.94-2.29-1.56-6.45-2.08l-1.77-0.21c-0.73-0.62-0.62-2.29,0.21-2.6c4.78,0.21,8.32,0.31,12.27,0.31
		c4.47,0,7.17-0.1,10.71-0.31c0.83,0.52,0.83,1.98,0.21,2.6l-1.46,0.21c-3.33,0.52-5.41,1.35-5.82,2.18
		c-1.77,3.74-1.56,16.64-1.56,21.42V451.18z"/>
	<path class="st0" d="M1485.57,413.75c0-7.28-0.52-9.46-4.89-10.09l-2.29-0.31c-0.83-0.52-0.94-2.18,0.1-2.6
		c8.84-0.52,17.26-0.83,26.1-0.83c8.73,0,16.12,0.62,22.87,3.12c14.04,5.09,21.11,16.95,21.11,30.67c0,13.2-6.34,24.54-18.2,30.98
		c-6.76,3.64-15.28,4.99-23.29,4.99c-6.65,0-13.31-0.83-16.95-0.83c-4.37,0-8.11,0.1-13,0.31c-0.62-0.31-0.83-1.98-0.21-2.6
		l2.39-0.31c6.03-0.83,6.24-2.08,6.24-13V413.75z M1494.1,450.87c0,5.51,0.31,8.84,2.08,11.33c2.29,3.22,6.24,4.26,12.79,4.26
		c20.17,0,29.22-13.2,29.22-32.54c0-11.44-5.51-30.78-32.75-30.78c-6.13,0-9.46,0.83-10.29,1.46c-0.83,0.62-1.04,3.22-1.04,7.9
		V450.87z"/>
	<path class="st0" d="M1618.76,411.26c-2.39-5.82-3.95-8.01-8.42-8.53l-1.87-0.21c-0.73-0.62-0.62-2.08,0.21-2.6
		c3.02,0.21,6.34,0.31,10.81,0.31c4.58,0,8.21-0.1,12.58-0.31c0.73,0.42,0.94,1.98,0.21,2.6l-1.56,0.21
		c-3.95,0.52-4.78,1.14-4.89,1.98c0.21,1.04,1.98,6.65,5.2,14.56c4.78,12.06,9.57,24.02,14.76,35.87
		c3.22-6.86,7.59-17.57,9.98-23.08c3.01-7.07,7.9-18.82,9.67-23.29c0.83-2.18,0.94-3.33,0.94-4.05c0-0.73-1.04-1.56-4.68-1.98
		l-1.87-0.21c-0.73-0.62-0.52-2.18,0.21-2.6c2.91,0.21,6.86,0.31,10.81,0.31c3.43,0,6.65-0.1,10.08-0.31
		c0.73,0.42,0.73,2.08,0.21,2.6l-3.12,0.21c-2.5,0.21-4.05,1.46-5.41,3.64c-2.91,4.89-6.97,13.31-11.65,23.91l-5.61,12.79
		c-4.16,9.57-9.05,21.63-10.81,27.14c-0.31,0.21-0.73,0.31-1.14,0.31c-0.52,0-1.04-0.1-1.56-0.31c-1.14-4.37-3.02-9.46-4.78-13.83
		L1618.76,411.26z"/>
	<path class="st0" d="M1711.34,416.04c0-11.02-0.21-12.79-6.34-13.31l-2.6-0.21c-0.62-0.42-0.42-2.29,0.21-2.6
		c5.2,0.21,8.73,0.31,13.1,0.31c4.16,0,7.69-0.1,12.89-0.31c0.62,0.31,0.83,2.18,0.21,2.6l-2.6,0.21
		c-6.13,0.52-6.34,2.29-6.34,13.31v37.01c0,11.02,0.21,12.48,6.34,13.2l2.6,0.31c0.62,0.42,0.42,2.29-0.21,2.6
		c-5.2-0.21-8.73-0.31-12.89-0.31c-4.37,0-7.9,0.1-13.1,0.31c-0.62-0.31-0.83-1.98-0.21-2.6l2.6-0.31c6.13-0.73,6.34-2.18,6.34-13.2
		V416.04z"/>
	<path class="st0" d="M1761.41,411.26c-2.39-5.82-3.95-8.01-8.42-8.53l-1.87-0.21c-0.73-0.62-0.62-2.08,0.21-2.6
		c3.02,0.21,6.34,0.31,10.81,0.31c4.58,0,8.21-0.1,12.58-0.31c0.73,0.42,0.94,1.98,0.21,2.6l-1.56,0.21
		c-3.95,0.52-4.78,1.14-4.89,1.98c0.21,1.04,1.98,6.65,5.2,14.56c4.78,12.06,9.57,24.02,14.76,35.87
		c3.22-6.86,7.59-17.57,9.98-23.08c3.01-7.07,7.9-18.82,9.67-23.29c0.83-2.18,0.94-3.33,0.94-4.05c0-0.73-1.04-1.56-4.68-1.98
		l-1.87-0.21c-0.73-0.62-0.52-2.18,0.21-2.6c2.91,0.21,6.86,0.31,10.81,0.31c3.43,0,6.65-0.1,10.08-0.31
		c0.73,0.42,0.73,2.08,0.21,2.6l-3.12,0.21c-2.5,0.21-4.05,1.46-5.41,3.64c-2.91,4.89-6.97,13.31-11.65,23.91l-5.61,12.79
		c-4.16,9.57-9.05,21.63-10.81,27.14c-0.31,0.21-0.73,0.31-1.14,0.31c-0.52,0-1.04-0.1-1.56-0.31c-1.14-4.37-3.02-9.46-4.78-13.83
		L1761.41,411.26z"/>
	<path class="st0" d="M1854,416.04c0-11.02-0.21-12.79-6.34-13.31l-2.6-0.21c-0.62-0.42-0.42-2.29,0.21-2.6
		c5.2,0.21,8.73,0.31,13.1,0.31c4.16,0,7.69-0.1,12.89-0.31c0.62,0.31,0.83,2.18,0.21,2.6l-2.6,0.21
		c-6.13,0.52-6.34,2.29-6.34,13.31v37.01c0,11.02,0.21,12.48,6.34,13.2l2.6,0.31c0.62,0.42,0.42,2.29-0.21,2.6
		c-5.2-0.21-8.73-0.31-12.89-0.31c-4.37,0-7.9,0.1-13.1,0.31c-0.62-0.31-0.83-1.98-0.21-2.6l2.6-0.31c6.13-0.73,6.34-2.18,6.34-13.2
		V416.04z"/>
	<path class="st0" d="M1904.41,413.75c0-7.28-0.52-9.46-4.89-10.09l-2.29-0.31c-0.83-0.52-0.94-2.18,0.1-2.6
		c8.84-0.52,17.26-0.83,26.1-0.83c8.73,0,16.12,0.62,22.87,3.12c14.04,5.09,21.11,16.95,21.11,30.67c0,13.2-6.34,24.54-18.2,30.98
		c-6.76,3.64-15.28,4.99-23.29,4.99c-6.65,0-13.31-0.83-16.95-0.83c-4.37,0-8.11,0.1-13,0.31c-0.62-0.31-0.83-1.98-0.21-2.6
		l2.39-0.31c6.03-0.83,6.24-2.08,6.24-13V413.75z M1912.93,450.87c0,5.51,0.31,8.84,2.08,11.33c2.29,3.22,6.24,4.26,12.79,4.26
		c20.17,0,29.22-13.2,29.22-32.54c0-11.44-5.51-30.78-32.75-30.78c-6.13,0-9.46,0.83-10.29,1.46c-0.83,0.62-1.04,3.22-1.04,7.9
		V450.87z"/>
	<path class="st0" d="M2046.61,426.33c0-6.45-0.21-18.4-1.98-21.52c-0.73-1.25-2.6-1.98-5.2-2.18l-2.6-0.21
		c-0.62-0.73-0.42-2.08,0.21-2.5c3.95,0.21,7.8,0.31,11.85,0.31c4.37,0,7.17-0.1,10.92-0.31c0.83,0.52,0.73,1.87,0.21,2.5l-2.5,0.21
		c-2.6,0.21-4.58,1.14-5.2,2.5c-1.46,3.43-1.46,15.39-1.46,21.21v11.75c0,9.05-1.46,18.61-7.28,24.85
		c-4.47,4.89-12.17,7.59-19.86,7.59c-7.17,0-14.35-1.35-19.44-5.72c-5.51-4.57-8.11-12.16-8.11-24.54v-24.54
		c0-10.81-0.21-12.58-6.24-13.1l-2.6-0.21c-0.62-0.42-0.42-2.18,0.21-2.5c5.2,0.21,8.73,0.31,12.89,0.31c4.26,0,7.69-0.1,12.79-0.31
		c0.62,0.31,0.83,2.08,0.21,2.5l-2.5,0.21c-6.03,0.52-6.24,2.29-6.24,13.1v22.46c0,16.74,5.2,27.76,21.11,27.76
		c15.08,0,20.79-11.85,20.79-27.66V426.33z"/>
	<path class="st0" d="M2097.67,470.52c-8.73,0-14.24-2.7-16.22-3.85c-1.25-2.29-2.6-9.67-2.81-14.56c0.52-0.73,2.08-0.94,2.5-0.31
		c1.56,5.3,5.82,15.49,17.88,15.49c8.73,0,13-5.72,13-11.96c0-4.57-0.94-9.67-8.53-14.56l-9.88-6.45
		c-5.2-3.43-11.23-9.36-11.23-17.88c0-9.88,7.69-17.88,21.21-17.88c3.22,0,6.97,0.62,9.67,1.35c1.35,0.42,2.81,0.62,3.64,0.62
		c0.94,2.5,1.87,8.32,1.87,12.68c-0.42,0.62-2.08,0.94-2.6,0.31c-1.35-4.99-4.16-11.75-14.14-11.75c-10.19,0-12.37,6.76-12.37,11.54
		c0,6.03,4.99,10.4,8.84,12.79l8.32,5.2c6.55,4.05,13,10.08,13,19.96C2119.81,462.72,2111.18,470.52,2097.67,470.52z"/>
</g>
</svg>
